%TF.GenerationSoftware,KiCad,Pcbnew,7.0.10-7.0.10~ubuntu22.04.1*%
%TF.CreationDate,2024-03-25T00:06:17+02:00*%
%TF.ProjectId,Power_Sub,506f7765-725f-4537-9562-2e6b69636164,rev?*%
%TF.SameCoordinates,Original*%
%TF.FileFunction,Legend,Bot*%
%TF.FilePolarity,Positive*%
%FSLAX46Y46*%
G04 Gerber Fmt 4.6, Leading zero omitted, Abs format (unit mm)*
G04 Created by KiCad (PCBNEW 7.0.10-7.0.10~ubuntu22.04.1) date 2024-03-25 00:06:17*
%MOMM*%
%LPD*%
G01*
G04 APERTURE LIST*
G04 Aperture macros list*
%AMRoundRect*
0 Rectangle with rounded corners*
0 $1 Rounding radius*
0 $2 $3 $4 $5 $6 $7 $8 $9 X,Y pos of 4 corners*
0 Add a 4 corners polygon primitive as box body*
4,1,4,$2,$3,$4,$5,$6,$7,$8,$9,$2,$3,0*
0 Add four circle primitives for the rounded corners*
1,1,$1+$1,$2,$3*
1,1,$1+$1,$4,$5*
1,1,$1+$1,$6,$7*
1,1,$1+$1,$8,$9*
0 Add four rect primitives between the rounded corners*
20,1,$1+$1,$2,$3,$4,$5,0*
20,1,$1+$1,$4,$5,$6,$7,0*
20,1,$1+$1,$6,$7,$8,$9,0*
20,1,$1+$1,$8,$9,$2,$3,0*%
G04 Aperture macros list end*
%ADD10C,0.150000*%
%ADD11C,0.120000*%
%ADD12RoundRect,0.250000X-0.350000X-0.625000X0.350000X-0.625000X0.350000X0.625000X-0.350000X0.625000X0*%
%ADD13O,1.200000X1.750000*%
%ADD14R,1.700000X1.700000*%
%ADD15O,1.700000X1.700000*%
G04 APERTURE END LIST*
D10*
X94494819Y-40306666D02*
X95209104Y-40306666D01*
X95209104Y-40306666D02*
X95351961Y-40259047D01*
X95351961Y-40259047D02*
X95447200Y-40163809D01*
X95447200Y-40163809D02*
X95494819Y-40020952D01*
X95494819Y-40020952D02*
X95494819Y-39925714D01*
X95494819Y-41306666D02*
X95494819Y-40735238D01*
X95494819Y-41020952D02*
X94494819Y-41020952D01*
X94494819Y-41020952D02*
X94637676Y-40925714D01*
X94637676Y-40925714D02*
X94732914Y-40830476D01*
X94732914Y-40830476D02*
X94780533Y-40735238D01*
D11*
%TO.C,J1*%
X73600000Y-43240000D02*
X73600000Y-38040000D01*
X91440000Y-43240000D02*
X73600000Y-43240000D01*
X91440000Y-43240000D02*
X91440000Y-40640000D01*
X92710000Y-43240000D02*
X94040000Y-43240000D01*
X94040000Y-43240000D02*
X94040000Y-41910000D01*
X91440000Y-40640000D02*
X94040000Y-40640000D01*
X94040000Y-40640000D02*
X94040000Y-38040000D01*
X94040000Y-38040000D02*
X73600000Y-38040000D01*
%TD*%
%LPC*%
D12*
%TO.C,J2*%
X71288400Y-50026400D03*
D13*
X73288400Y-50026400D03*
%TD*%
D14*
%TO.C,J1*%
X92710000Y-41910000D03*
D15*
X92710000Y-39370000D03*
X90170000Y-41910000D03*
X90170000Y-39370000D03*
X87630000Y-41910000D03*
X87630000Y-39370000D03*
X85090000Y-41910000D03*
X85090000Y-39370000D03*
X82550000Y-41910000D03*
X82550000Y-39370000D03*
X80010000Y-41910000D03*
X80010000Y-39370000D03*
X77470000Y-41910000D03*
X77470000Y-39370000D03*
X74930000Y-41910000D03*
X74930000Y-39370000D03*
%TD*%
%LPD*%
M02*
