%TF.GenerationSoftware,KiCad,Pcbnew,7.0.10-7.0.10~ubuntu22.04.1*%
%TF.CreationDate,2024-03-25T00:06:17+02:00*%
%TF.ProjectId,Power_Sub,506f7765-725f-4537-9562-2e6b69636164,rev?*%
%TF.SameCoordinates,Original*%
%TF.FileFunction,Copper,L1,Top*%
%TF.FilePolarity,Positive*%
%FSLAX46Y46*%
G04 Gerber Fmt 4.6, Leading zero omitted, Abs format (unit mm)*
G04 Created by KiCad (PCBNEW 7.0.10-7.0.10~ubuntu22.04.1) date 2024-03-25 00:06:17*
%MOMM*%
%LPD*%
G01*
G04 APERTURE LIST*
G04 Aperture macros list*
%AMRoundRect*
0 Rectangle with rounded corners*
0 $1 Rounding radius*
0 $2 $3 $4 $5 $6 $7 $8 $9 X,Y pos of 4 corners*
0 Add a 4 corners polygon primitive as box body*
4,1,4,$2,$3,$4,$5,$6,$7,$8,$9,$2,$3,0*
0 Add four circle primitives for the rounded corners*
1,1,$1+$1,$2,$3*
1,1,$1+$1,$4,$5*
1,1,$1+$1,$6,$7*
1,1,$1+$1,$8,$9*
0 Add four rect primitives between the rounded corners*
20,1,$1+$1,$2,$3,$4,$5,0*
20,1,$1+$1,$4,$5,$6,$7,0*
20,1,$1+$1,$6,$7,$8,$9,0*
20,1,$1+$1,$8,$9,$2,$3,0*%
G04 Aperture macros list end*
%TA.AperFunction,SMDPad,CuDef*%
%ADD10RoundRect,0.243750X0.243750X0.456250X-0.243750X0.456250X-0.243750X-0.456250X0.243750X-0.456250X0*%
%TD*%
%TA.AperFunction,SMDPad,CuDef*%
%ADD11RoundRect,0.062500X-0.062500X0.187500X-0.062500X-0.187500X0.062500X-0.187500X0.062500X0.187500X0*%
%TD*%
%TA.AperFunction,SMDPad,CuDef*%
%ADD12R,1.600000X0.900000*%
%TD*%
%TA.AperFunction,SMDPad,CuDef*%
%ADD13RoundRect,0.062500X-0.187500X-0.062500X0.187500X-0.062500X0.187500X0.062500X-0.187500X0.062500X0*%
%TD*%
%TA.AperFunction,SMDPad,CuDef*%
%ADD14R,0.900000X1.600000*%
%TD*%
%TA.AperFunction,SMDPad,CuDef*%
%ADD15RoundRect,0.250000X-0.475000X0.250000X-0.475000X-0.250000X0.475000X-0.250000X0.475000X0.250000X0*%
%TD*%
%TA.AperFunction,ComponentPad*%
%ADD16RoundRect,0.250000X-0.350000X-0.625000X0.350000X-0.625000X0.350000X0.625000X-0.350000X0.625000X0*%
%TD*%
%TA.AperFunction,ComponentPad*%
%ADD17O,1.200000X1.750000*%
%TD*%
%TA.AperFunction,SMDPad,CuDef*%
%ADD18R,0.900000X1.400000*%
%TD*%
%TA.AperFunction,SMDPad,CuDef*%
%ADD19R,0.750000X0.850000*%
%TD*%
%TA.AperFunction,SMDPad,CuDef*%
%ADD20RoundRect,0.042000X-0.943000X-0.258000X0.943000X-0.258000X0.943000X0.258000X-0.943000X0.258000X0*%
%TD*%
%TA.AperFunction,SMDPad,CuDef*%
%ADD21R,2.413000X3.302000*%
%TD*%
%TA.AperFunction,SMDPad,CuDef*%
%ADD22C,1.000000*%
%TD*%
%TA.AperFunction,SMDPad,CuDef*%
%ADD23RoundRect,0.250000X-0.250000X-0.475000X0.250000X-0.475000X0.250000X0.475000X-0.250000X0.475000X0*%
%TD*%
%TA.AperFunction,SMDPad,CuDef*%
%ADD24RoundRect,0.250000X0.450000X-0.262500X0.450000X0.262500X-0.450000X0.262500X-0.450000X-0.262500X0*%
%TD*%
%TA.AperFunction,SMDPad,CuDef*%
%ADD25RoundRect,0.250000X0.250000X0.475000X-0.250000X0.475000X-0.250000X-0.475000X0.250000X-0.475000X0*%
%TD*%
%TA.AperFunction,ComponentPad*%
%ADD26R,1.700000X1.700000*%
%TD*%
%TA.AperFunction,ComponentPad*%
%ADD27O,1.700000X1.700000*%
%TD*%
%TA.AperFunction,ViaPad*%
%ADD28C,0.800000*%
%TD*%
%TA.AperFunction,ViaPad*%
%ADD29C,0.600000*%
%TD*%
%TA.AperFunction,Conductor*%
%ADD30C,0.250000*%
%TD*%
%TA.AperFunction,Conductor*%
%ADD31C,0.350000*%
%TD*%
%TA.AperFunction,Conductor*%
%ADD32C,0.300000*%
%TD*%
G04 APERTURE END LIST*
D10*
%TO.P,D2,1,K*%
%TO.N,Net-(D2-K)*%
X96289100Y-45770800D03*
%TO.P,D2,2,A*%
%TO.N,+5V*%
X94414100Y-45770800D03*
%TD*%
D11*
%TO.P,U2,1,VM*%
%TO.N,VDC*%
X76700000Y-44450000D03*
%TO.P,U2,2,OUT1*%
%TO.N,/Motor1_A*%
X76200000Y-44450000D03*
%TO.P,U2,3,OUT2*%
%TO.N,/Motor1_B*%
X75700000Y-44450000D03*
%TO.P,U2,4,GND*%
%TO.N,GND*%
X75200000Y-44450000D03*
%TO.P,U2,5,IN2*%
%TO.N,/PWM4*%
X75200000Y-46350000D03*
%TO.P,U2,6,IN1*%
%TO.N,/PWM3*%
X75700000Y-46350000D03*
%TO.P,U2,7,~{SLEEP}*%
%TO.N,VDC*%
X76200000Y-46350000D03*
%TO.P,U2,8,VCC*%
X76700000Y-46350000D03*
D12*
%TO.P,U2,9,GND*%
%TO.N,GND*%
X75950000Y-45400000D03*
%TD*%
D13*
%TO.P,U1,1,VM*%
%TO.N,VDC*%
X95311000Y-41801400D03*
%TO.P,U1,2,OUT1*%
%TO.N,/Motor2_A*%
X95311000Y-42301400D03*
%TO.P,U1,3,OUT2*%
%TO.N,/Motor2_B*%
X95311000Y-42801400D03*
%TO.P,U1,4,GND*%
%TO.N,GND*%
X95311000Y-43301400D03*
%TO.P,U1,5,IN2*%
%TO.N,/PWM2*%
X97211000Y-43301400D03*
%TO.P,U1,6,IN1*%
%TO.N,/PWM1*%
X97211000Y-42801400D03*
%TO.P,U1,7,~{SLEEP}*%
%TO.N,VDC*%
X97211000Y-42301400D03*
%TO.P,U1,8,VCC*%
X97211000Y-41801400D03*
D14*
%TO.P,U1,9,GND*%
%TO.N,GND*%
X96261000Y-42551400D03*
%TD*%
D15*
%TO.P,C1,1*%
%TO.N,VDC*%
X78282800Y-44414400D03*
%TO.P,C1,2*%
%TO.N,GND*%
X78282800Y-46314400D03*
%TD*%
D16*
%TO.P,J2,1,Pin_1*%
%TO.N,/BATT*%
X71288400Y-50026400D03*
D17*
%TO.P,J2,2,Pin_2*%
%TO.N,GND*%
X73288400Y-50026400D03*
%TD*%
D18*
%TO.P,SW1,1,A*%
%TO.N,unconnected-(SW1A-A-Pad1)*%
X77607600Y-52824150D03*
%TO.P,SW1,2,B*%
%TO.N,/BATT*%
X80607600Y-52824150D03*
%TO.P,SW1,3,C*%
%TO.N,VDC*%
X82107600Y-52824150D03*
D19*
%TO.P,SW1,4*%
%TO.N,N/C*%
X76482600Y-53791150D03*
%TO.P,SW1,5*%
X76482600Y-55941150D03*
%TO.P,SW1,6*%
X83232600Y-53791150D03*
%TO.P,SW1,7*%
X83232600Y-55916150D03*
%TD*%
D20*
%TO.P,U3,1,TEMP*%
%TO.N,GND*%
X87184800Y-47726600D03*
%TO.P,U3,2,PROG*%
%TO.N,Net-(U3-PROG)*%
X87184800Y-48996600D03*
%TO.P,U3,3,GND*%
%TO.N,GND*%
X87184800Y-50266600D03*
%TO.P,U3,4,VCC*%
%TO.N,+5V*%
X87184800Y-51536600D03*
%TO.P,U3,5,BAT*%
%TO.N,/BATT*%
X92134800Y-51536600D03*
%TO.P,U3,6,~{STDBY}*%
%TO.N,Net-(U3-~{STDBY})*%
X92134800Y-50266600D03*
%TO.P,U3,7,~{CHRG}*%
%TO.N,Net-(U3-~{CHRG})*%
X92134800Y-48996600D03*
%TO.P,U3,8,CE*%
%TO.N,+5V*%
X92134800Y-47726600D03*
D21*
%TO.P,U3,9,EP*%
%TO.N,unconnected-(U3-EP-Pad9)*%
X89659800Y-49631600D03*
%TD*%
D22*
%TO.P,Motor1A,1,1*%
%TO.N,/Motor1_A*%
X78232000Y-49809400D03*
%TD*%
D23*
%TO.P,C2,1*%
%TO.N,VDC*%
X95631000Y-39141400D03*
%TO.P,C2,2*%
%TO.N,GND*%
X97531000Y-39141400D03*
%TD*%
D24*
%TO.P,R1,1*%
%TO.N,Net-(U3-PROG)*%
X84579800Y-49274100D03*
%TO.P,R1,2*%
%TO.N,GND*%
X84579800Y-47449100D03*
%TD*%
D25*
%TO.P,C4,1*%
%TO.N,+5V*%
X90561200Y-45821600D03*
%TO.P,C4,2*%
%TO.N,GND*%
X88661200Y-45821600D03*
%TD*%
D15*
%TO.P,C3,1*%
%TO.N,/BATT*%
X94488000Y-51526400D03*
%TO.P,C3,2*%
%TO.N,GND*%
X94488000Y-53426400D03*
%TD*%
D22*
%TO.P,Ground,1,1*%
%TO.N,GND*%
X71272400Y-47040800D03*
%TD*%
D24*
%TO.P,R3,1*%
%TO.N,Net-(D2-K)*%
X96469200Y-52068100D03*
%TO.P,R3,2*%
%TO.N,Net-(U3-~{STDBY})*%
X96469200Y-50243100D03*
%TD*%
D10*
%TO.P,D1,1,K*%
%TO.N,Net-(D1-K)*%
X96289100Y-47752000D03*
%TO.P,D1,2,A*%
%TO.N,+5V*%
X94414100Y-47752000D03*
%TD*%
D22*
%TO.P,VBat1,1,1*%
%TO.N,/BATT*%
X87350600Y-56565800D03*
%TD*%
D24*
%TO.P,R2,1*%
%TO.N,Net-(D1-K)*%
X98552000Y-52017300D03*
%TO.P,R2,2*%
%TO.N,Net-(U3-~{CHRG})*%
X98552000Y-50192300D03*
%TD*%
D22*
%TO.P,Motor2A,1,1*%
%TO.N,/Motor2_A*%
X99085400Y-45593000D03*
%TD*%
D26*
%TO.P,J1,1,Pin_1*%
%TO.N,/Motor2_A*%
X92710000Y-41910000D03*
D27*
%TO.P,J1,2,Pin_2*%
%TO.N,/PWM1*%
X92710000Y-39370000D03*
%TO.P,J1,3,Pin_3*%
%TO.N,/Motor2_B*%
X90170000Y-41910000D03*
%TO.P,J1,4,Pin_4*%
%TO.N,/PWM2*%
X90170000Y-39370000D03*
%TO.P,J1,5,Pin_5*%
%TO.N,GND*%
X87630000Y-41910000D03*
%TO.P,J1,6,Pin_6*%
X87630000Y-39370000D03*
%TO.P,J1,7,Pin_7*%
%TO.N,VDC*%
X85090000Y-41910000D03*
%TO.P,J1,8,Pin_8*%
X85090000Y-39370000D03*
%TO.P,J1,9,Pin_9*%
%TO.N,unconnected-(J1-Pin_9-Pad9)*%
X82550000Y-41910000D03*
%TO.P,J1,10,Pin_10*%
%TO.N,VDC*%
X82550000Y-39370000D03*
%TO.P,J1,11,Pin_11*%
%TO.N,+5V*%
X80010000Y-41910000D03*
%TO.P,J1,12,Pin_12*%
X80010000Y-39370000D03*
%TO.P,J1,13,Pin_13*%
%TO.N,/Motor1_A*%
X77470000Y-41910000D03*
%TO.P,J1,14,Pin_14*%
%TO.N,/PWM3*%
X77470000Y-39370000D03*
%TO.P,J1,15,Pin_15*%
%TO.N,/Motor1_B*%
X74930000Y-41910000D03*
%TO.P,J1,16,Pin_16*%
%TO.N,/PWM4*%
X74930000Y-39370000D03*
%TD*%
D28*
%TO.N,VDC*%
X96088200Y-40690800D03*
D29*
%TO.N,GND*%
X97434400Y-39039800D03*
D28*
X87147400Y-50266600D03*
D29*
X96266000Y-42545000D03*
X84582000Y-45593000D03*
X75971400Y-45364400D03*
X82829400Y-45618400D03*
X86334600Y-45669200D03*
X79730600Y-46355000D03*
D28*
%TO.N,/Motor2_A*%
X99110800Y-45593000D03*
%TO.N,/Motor1_A*%
X78232000Y-49834800D03*
%TD*%
D30*
%TO.N,VDC*%
X76200000Y-47345600D02*
X75895200Y-47650400D01*
D31*
X78282800Y-44414400D02*
X79618800Y-44414400D01*
D32*
X97211000Y-41801400D02*
X98303400Y-41801400D01*
D30*
X76200000Y-47345600D02*
X76200000Y-46350000D01*
D32*
X95336400Y-40690800D02*
X95311000Y-40716200D01*
X96088200Y-40690800D02*
X95336400Y-40690800D01*
D30*
X75895200Y-47650400D02*
X75027608Y-47650400D01*
X72745600Y-45368392D02*
X72745600Y-39190804D01*
D31*
X80543400Y-45339000D02*
X80543400Y-47142400D01*
X80543400Y-47142400D02*
X80543400Y-50215800D01*
D30*
X76700000Y-46350000D02*
X76700000Y-47337600D01*
D32*
X95311000Y-39461400D02*
X95311000Y-40868600D01*
X85090000Y-39370000D02*
X85090000Y-41910000D01*
D30*
X76700000Y-47337600D02*
X76708000Y-47345600D01*
D32*
X95311000Y-40868600D02*
X95311000Y-41776400D01*
D30*
X76708000Y-47345600D02*
X76200000Y-47345600D01*
X74217404Y-37719000D02*
X80899000Y-37719000D01*
D31*
X95631000Y-39141400D02*
X95311000Y-39461400D01*
X82107600Y-51780000D02*
X82107600Y-52824150D01*
X80543400Y-50215800D02*
X82107600Y-51780000D01*
D30*
X75027608Y-47650400D02*
X72745600Y-45368392D01*
D31*
X79618800Y-44414400D02*
X80543400Y-45339000D01*
D32*
X98303400Y-41280400D02*
X97713800Y-40690800D01*
X95311000Y-40716200D02*
X95311000Y-40868600D01*
D31*
X78247200Y-44450000D02*
X78282800Y-44414400D01*
D30*
X80340200Y-47345600D02*
X76708000Y-47345600D01*
D32*
X82550000Y-39370000D02*
X85090000Y-39370000D01*
D30*
X72745600Y-39190804D02*
X74217404Y-37719000D01*
D32*
X98303400Y-41801400D02*
X98303400Y-41280400D01*
D30*
X80899000Y-37719000D02*
X82550000Y-39370000D01*
D32*
X97713800Y-40690800D02*
X96088200Y-40690800D01*
D31*
X76700000Y-44450000D02*
X78247200Y-44450000D01*
D32*
X98303400Y-42037000D02*
X98303400Y-42301400D01*
X97211000Y-42301400D02*
X98303400Y-42301400D01*
X98303400Y-41801400D02*
X98303400Y-42301400D01*
%TO.N,GND*%
X74721752Y-45400000D02*
X74701400Y-45379648D01*
D31*
X87184800Y-46317600D02*
X87680800Y-45821600D01*
D32*
X75971400Y-45364400D02*
X77368400Y-45400000D01*
X78323400Y-46355000D02*
X78282800Y-46314400D01*
X74701400Y-44450000D02*
X75175000Y-44450000D01*
D31*
X84857300Y-47726600D02*
X84579800Y-47449100D01*
X87680800Y-45821600D02*
X88661200Y-45821600D01*
D32*
X75950000Y-45400000D02*
X74721752Y-45400000D01*
D30*
X95610740Y-43301400D02*
X96261000Y-42651140D01*
D32*
X74701400Y-45379648D02*
X74701400Y-44450000D01*
X79730600Y-46355000D02*
X78323400Y-46355000D01*
D30*
X71272400Y-47040800D02*
X71272400Y-48010400D01*
X71272400Y-48010400D02*
X73288400Y-50026400D01*
D31*
X87184800Y-47726600D02*
X84857300Y-47726600D01*
D32*
X77368400Y-45400000D02*
X78282800Y-46314400D01*
D30*
X95311000Y-43301400D02*
X95610740Y-43301400D01*
D31*
X87184800Y-47726600D02*
X87184800Y-46317600D01*
D32*
X75950000Y-45400000D02*
X75971400Y-45364400D01*
D30*
X96261000Y-42651140D02*
X96261000Y-42551400D01*
D32*
%TO.N,/BATT*%
X94477800Y-51536600D02*
X94488000Y-51526400D01*
D30*
X87350600Y-54889400D02*
X87299800Y-54838600D01*
D32*
X71288400Y-50333400D02*
X71288400Y-50026400D01*
X80607600Y-52824150D02*
X80607600Y-51677000D01*
X80289400Y-51358800D02*
X72313800Y-51358800D01*
X81819589Y-53928139D02*
X82730050Y-54838600D01*
X92134800Y-51536600D02*
X94477800Y-51536600D01*
X87299800Y-54838600D02*
X91313000Y-54838600D01*
X80547339Y-53928139D02*
X81819589Y-53928139D01*
X91313000Y-54838600D02*
X92134800Y-54016800D01*
X92134800Y-54016800D02*
X92134800Y-51536600D01*
X82730050Y-54838600D02*
X87299800Y-54838600D01*
D30*
X87350600Y-56565800D02*
X87350600Y-54889400D01*
D32*
X80607600Y-52824150D02*
X80547339Y-52884411D01*
X80547339Y-52884411D02*
X80547339Y-53928139D01*
X72313800Y-51358800D02*
X71288400Y-50333400D01*
X80607600Y-51677000D02*
X80289400Y-51358800D01*
D31*
%TO.N,+5V*%
X94414100Y-47752000D02*
X94414100Y-45770800D01*
D32*
X80010000Y-39370000D02*
X80010000Y-41910000D01*
D31*
X90561200Y-45821600D02*
X91440000Y-45821600D01*
X91440000Y-45821600D02*
X92134800Y-46516400D01*
D32*
X90561200Y-44638000D02*
X90220800Y-44297600D01*
X81711800Y-43611800D02*
X81711800Y-50241200D01*
X83007200Y-51536600D02*
X87184800Y-51536600D01*
D31*
X92134800Y-47726600D02*
X94388700Y-47726600D01*
X92134800Y-46516400D02*
X92134800Y-47726600D01*
D32*
X90561200Y-45821600D02*
X90561200Y-44638000D01*
X80010000Y-41910000D02*
X81711800Y-43611800D01*
X90220800Y-44297600D02*
X81711800Y-44297600D01*
D31*
X94388700Y-47726600D02*
X94414100Y-47752000D01*
D32*
X81711800Y-50241200D02*
X83007200Y-51536600D01*
D30*
%TO.N,Net-(D1-K)*%
X99669600Y-49530000D02*
X97891600Y-47752000D01*
X98706300Y-52017300D02*
X99669600Y-51054000D01*
X97891600Y-47752000D02*
X96289100Y-47752000D01*
X98552000Y-52017300D02*
X98706300Y-52017300D01*
X99669600Y-51054000D02*
X99669600Y-49530000D01*
%TO.N,Net-(D2-K)*%
X96469200Y-52730400D02*
X96875600Y-53136800D01*
X100228400Y-48717200D02*
X97282000Y-45770800D01*
X96469200Y-52068100D02*
X96469200Y-52730400D01*
X96875600Y-53136800D02*
X99390200Y-53136800D01*
X99390200Y-53136800D02*
X100228400Y-52298600D01*
X97282000Y-45770800D02*
X96289100Y-45770800D01*
X100228400Y-52298600D02*
X100228400Y-48717200D01*
D32*
%TO.N,/Motor2_A*%
X95311000Y-42301400D02*
X93101400Y-42301400D01*
X93101400Y-42301400D02*
X92710000Y-41910000D01*
X93330000Y-42530000D02*
X92710000Y-41910000D01*
%TO.N,/PWM1*%
X98171000Y-37693600D02*
X94386400Y-37693600D01*
X98803400Y-42508507D02*
X98803400Y-38326000D01*
X97211000Y-42801400D02*
X98510507Y-42801400D01*
X94386400Y-37693600D02*
X92710000Y-39370000D01*
X98803400Y-38326000D02*
X98171000Y-37693600D01*
X98510507Y-42801400D02*
X98803400Y-42508507D01*
%TO.N,/Motor2_B*%
X91370000Y-43110000D02*
X90170000Y-41910000D01*
X93910000Y-43110000D02*
X91370000Y-43110000D01*
X95311000Y-42801400D02*
X94218600Y-42801400D01*
X94218600Y-42801400D02*
X93910000Y-43110000D01*
%TO.N,/PWM2*%
X99303400Y-38118894D02*
X98378107Y-37193600D01*
X98378107Y-37193600D02*
X92346400Y-37193600D01*
X97211000Y-43301400D02*
X98717613Y-43301400D01*
X98717613Y-43301400D02*
X99303400Y-42715614D01*
X99303400Y-42715614D02*
X99303400Y-38118894D01*
X92346400Y-37193600D02*
X90170000Y-39370000D01*
%TO.N,/Motor1_A*%
X76225000Y-43155000D02*
X76225000Y-44182538D01*
X77470000Y-41910000D02*
X77304904Y-41910000D01*
X77470000Y-41910000D02*
X76225000Y-43155000D01*
D30*
%TO.N,/PWM3*%
X75410540Y-46939200D02*
X74952804Y-46939200D01*
X75700000Y-46649740D02*
X75410540Y-46939200D01*
X73304400Y-39268400D02*
X74377800Y-38195000D01*
X74952804Y-46939200D02*
X73304400Y-45290796D01*
X73304400Y-45290796D02*
X73304400Y-39268400D01*
X74377800Y-38195000D02*
X76295000Y-38195000D01*
X76295000Y-38195000D02*
X77470000Y-39370000D01*
X75700000Y-46350000D02*
X75700000Y-46649740D01*
D31*
%TO.N,/Motor1_B*%
X74930000Y-41910000D02*
X75700000Y-42680000D01*
X75700000Y-42680000D02*
X75700000Y-44450000D01*
D30*
%TO.N,/PWM4*%
X75200000Y-46350000D02*
X75000000Y-46350000D01*
X75000000Y-46350000D02*
X73755000Y-45105000D01*
X73755000Y-40545000D02*
X74930000Y-39370000D01*
X73755000Y-45105000D02*
X73755000Y-40545000D01*
%TO.N,Net-(U3-PROG)*%
X86907300Y-49274100D02*
X87184800Y-48996600D01*
X84579800Y-49274100D02*
X86907300Y-49274100D01*
%TO.N,Net-(U3-~{CHRG})*%
X98552000Y-49326800D02*
X98552000Y-50192300D01*
X98221800Y-48996600D02*
X98552000Y-49326800D01*
X92134800Y-48996600D02*
X98221800Y-48996600D01*
D31*
%TO.N,Net-(U3-~{STDBY})*%
X92158300Y-50243100D02*
X92134800Y-50266600D01*
D30*
X96469200Y-50243100D02*
X92158300Y-50243100D01*
%TD*%
%TA.AperFunction,Conductor*%
%TO.N,GND*%
G36*
X92076094Y-36388985D02*
G01*
X92121849Y-36441789D01*
X92131793Y-36510947D01*
X92102768Y-36574503D01*
X92072167Y-36600036D01*
X92069301Y-36601731D01*
X92067723Y-36602665D01*
X92050263Y-36611218D01*
X92030528Y-36619032D01*
X92030526Y-36619033D01*
X91993601Y-36645860D01*
X91983842Y-36652271D01*
X91944532Y-36675520D01*
X91929526Y-36690526D01*
X91914736Y-36703158D01*
X91897567Y-36715632D01*
X91897565Y-36715634D01*
X91868456Y-36750819D01*
X91860596Y-36759456D01*
X90597762Y-38022290D01*
X90536439Y-38055775D01*
X90477989Y-38054384D01*
X90405416Y-38034939D01*
X90405412Y-38034938D01*
X90405408Y-38034937D01*
X90405406Y-38034936D01*
X90405403Y-38034936D01*
X90170001Y-38014341D01*
X90169999Y-38014341D01*
X89934596Y-38034936D01*
X89934586Y-38034938D01*
X89706344Y-38096094D01*
X89706335Y-38096098D01*
X89492171Y-38195964D01*
X89492169Y-38195965D01*
X89298597Y-38331505D01*
X89131508Y-38498594D01*
X89001269Y-38684595D01*
X88946692Y-38728219D01*
X88877193Y-38735412D01*
X88814839Y-38703890D01*
X88798119Y-38684594D01*
X88668113Y-38498926D01*
X88668108Y-38498920D01*
X88501082Y-38331894D01*
X88307578Y-38196399D01*
X88093492Y-38096570D01*
X88093486Y-38096567D01*
X87880000Y-38039364D01*
X87880000Y-38934498D01*
X87772315Y-38885320D01*
X87665763Y-38870000D01*
X87594237Y-38870000D01*
X87487685Y-38885320D01*
X87380000Y-38934498D01*
X87380000Y-38039364D01*
X87379999Y-38039364D01*
X87166513Y-38096567D01*
X87166507Y-38096570D01*
X86952422Y-38196399D01*
X86952420Y-38196400D01*
X86758926Y-38331886D01*
X86758920Y-38331891D01*
X86591891Y-38498920D01*
X86591890Y-38498922D01*
X86461880Y-38684595D01*
X86407303Y-38728219D01*
X86337804Y-38735412D01*
X86275450Y-38703890D01*
X86258730Y-38684594D01*
X86128494Y-38498597D01*
X85961402Y-38331506D01*
X85961395Y-38331501D01*
X85767834Y-38195967D01*
X85767830Y-38195965D01*
X85706952Y-38167577D01*
X85553663Y-38096097D01*
X85553659Y-38096096D01*
X85553655Y-38096094D01*
X85325413Y-38034938D01*
X85325403Y-38034936D01*
X85090001Y-38014341D01*
X85089999Y-38014341D01*
X84854596Y-38034936D01*
X84854586Y-38034938D01*
X84626344Y-38096094D01*
X84626335Y-38096098D01*
X84412171Y-38195964D01*
X84412169Y-38195965D01*
X84218597Y-38331505D01*
X84051506Y-38498596D01*
X83933854Y-38666623D01*
X83879277Y-38710248D01*
X83832279Y-38719500D01*
X83807721Y-38719500D01*
X83740682Y-38699815D01*
X83706146Y-38666623D01*
X83588494Y-38498597D01*
X83421402Y-38331506D01*
X83421395Y-38331501D01*
X83227834Y-38195967D01*
X83227830Y-38195965D01*
X83166952Y-38167577D01*
X83013663Y-38096097D01*
X83013659Y-38096096D01*
X83013655Y-38096094D01*
X82785413Y-38034938D01*
X82785403Y-38034936D01*
X82550001Y-38014341D01*
X82549999Y-38014341D01*
X82314596Y-38034936D01*
X82314586Y-38034938D01*
X82214126Y-38061856D01*
X82144276Y-38060193D01*
X82094352Y-38029762D01*
X81399803Y-37335212D01*
X81389980Y-37322950D01*
X81389759Y-37323134D01*
X81384786Y-37317122D01*
X81335776Y-37271099D01*
X81332977Y-37268386D01*
X81313477Y-37248885D01*
X81313471Y-37248880D01*
X81310286Y-37246409D01*
X81301434Y-37238848D01*
X81269582Y-37208938D01*
X81269580Y-37208936D01*
X81269577Y-37208935D01*
X81252029Y-37199288D01*
X81235763Y-37188604D01*
X81219932Y-37176324D01*
X81179849Y-37158978D01*
X81169363Y-37153841D01*
X81131094Y-37132803D01*
X81131092Y-37132802D01*
X81111693Y-37127822D01*
X81093281Y-37121518D01*
X81074898Y-37113562D01*
X81074892Y-37113560D01*
X81031760Y-37106729D01*
X81020322Y-37104361D01*
X80978020Y-37093500D01*
X80978019Y-37093500D01*
X80957984Y-37093500D01*
X80938586Y-37091973D01*
X80931162Y-37090797D01*
X80918805Y-37088840D01*
X80918804Y-37088840D01*
X80875325Y-37092950D01*
X80863656Y-37093500D01*
X74300141Y-37093500D01*
X74284524Y-37091776D01*
X74284497Y-37092062D01*
X74276735Y-37091327D01*
X74209548Y-37093439D01*
X74205654Y-37093500D01*
X74178054Y-37093500D01*
X74174366Y-37093965D01*
X74174053Y-37094005D01*
X74162435Y-37094918D01*
X74118777Y-37096290D01*
X74118776Y-37096290D01*
X74099533Y-37101881D01*
X74080483Y-37105825D01*
X74060615Y-37108334D01*
X74060614Y-37108335D01*
X74020004Y-37124413D01*
X74008957Y-37128195D01*
X73967014Y-37140381D01*
X73967013Y-37140382D01*
X73949771Y-37150579D01*
X73932303Y-37159137D01*
X73913673Y-37166513D01*
X73913670Y-37166515D01*
X73878343Y-37192181D01*
X73868584Y-37198592D01*
X73830983Y-37220830D01*
X73816812Y-37235000D01*
X73802027Y-37247628D01*
X73785816Y-37259407D01*
X73757975Y-37293059D01*
X73750115Y-37301696D01*
X72361808Y-38690003D01*
X72349551Y-38699824D01*
X72349734Y-38700045D01*
X72343722Y-38705018D01*
X72297698Y-38754027D01*
X72294991Y-38756820D01*
X72275489Y-38776321D01*
X72275475Y-38776338D01*
X72273007Y-38779519D01*
X72265443Y-38788374D01*
X72235537Y-38820222D01*
X72235536Y-38820224D01*
X72225884Y-38837780D01*
X72215210Y-38854030D01*
X72202929Y-38869865D01*
X72202924Y-38869872D01*
X72185575Y-38909962D01*
X72180438Y-38920448D01*
X72159403Y-38958710D01*
X72154422Y-38978111D01*
X72148121Y-38996514D01*
X72140162Y-39014906D01*
X72140161Y-39014909D01*
X72133328Y-39058047D01*
X72130960Y-39069478D01*
X72120101Y-39111775D01*
X72120100Y-39111786D01*
X72120100Y-39131820D01*
X72118573Y-39151219D01*
X72115440Y-39170998D01*
X72115440Y-39170999D01*
X72119550Y-39214478D01*
X72120100Y-39226147D01*
X72120100Y-45285647D01*
X72118375Y-45301264D01*
X72118661Y-45301291D01*
X72117926Y-45309057D01*
X72120039Y-45376264D01*
X72120100Y-45380159D01*
X72120100Y-45407749D01*
X72120603Y-45411727D01*
X72121518Y-45423359D01*
X72122890Y-45467016D01*
X72122891Y-45467019D01*
X72128480Y-45486259D01*
X72132424Y-45505303D01*
X72134321Y-45520318D01*
X72134936Y-45525184D01*
X72151014Y-45565795D01*
X72154797Y-45576844D01*
X72166981Y-45618780D01*
X72177180Y-45636026D01*
X72185738Y-45653495D01*
X72193114Y-45672124D01*
X72218781Y-45707452D01*
X72225193Y-45717213D01*
X72247428Y-45754809D01*
X72247433Y-45754816D01*
X72261590Y-45768972D01*
X72274227Y-45783767D01*
X72286006Y-45799979D01*
X72308852Y-45818879D01*
X72319657Y-45827817D01*
X72328298Y-45835680D01*
X74526802Y-48034184D01*
X74536627Y-48046448D01*
X74536848Y-48046266D01*
X74541818Y-48052274D01*
X74590847Y-48098315D01*
X74593644Y-48101026D01*
X74613138Y-48120520D01*
X74616303Y-48122975D01*
X74625179Y-48130556D01*
X74657026Y-48160462D01*
X74657030Y-48160464D01*
X74674581Y-48170113D01*
X74690839Y-48180792D01*
X74706672Y-48193074D01*
X74737861Y-48206570D01*
X74746763Y-48210422D01*
X74757243Y-48215555D01*
X74795516Y-48236597D01*
X74814920Y-48241579D01*
X74833318Y-48247878D01*
X74851713Y-48255838D01*
X74894862Y-48262671D01*
X74906288Y-48265038D01*
X74948589Y-48275900D01*
X74968624Y-48275900D01*
X74988021Y-48277426D01*
X75007804Y-48280560D01*
X75051283Y-48276450D01*
X75062952Y-48275900D01*
X75812457Y-48275900D01*
X75828077Y-48277624D01*
X75828104Y-48277339D01*
X75835860Y-48278071D01*
X75835867Y-48278073D01*
X75903073Y-48275961D01*
X75906968Y-48275900D01*
X75934546Y-48275900D01*
X75934550Y-48275900D01*
X75938524Y-48275397D01*
X75950163Y-48274480D01*
X75993827Y-48273109D01*
X76013069Y-48267517D01*
X76032112Y-48263574D01*
X76051992Y-48261064D01*
X76092601Y-48244985D01*
X76103644Y-48241203D01*
X76145590Y-48229018D01*
X76162829Y-48218822D01*
X76180303Y-48210262D01*
X76198927Y-48202888D01*
X76198927Y-48202887D01*
X76198932Y-48202886D01*
X76234283Y-48177200D01*
X76244014Y-48170808D01*
X76281620Y-48148570D01*
X76295789Y-48134399D01*
X76310579Y-48121768D01*
X76326787Y-48109994D01*
X76354632Y-48076332D01*
X76362474Y-48067714D01*
X76422773Y-48007417D01*
X76484097Y-47973933D01*
X76510453Y-47971100D01*
X76628981Y-47971100D01*
X76649016Y-47971100D01*
X76668413Y-47972626D01*
X76688196Y-47975760D01*
X76731675Y-47971650D01*
X76743344Y-47971100D01*
X79743900Y-47971100D01*
X79810939Y-47990785D01*
X79856694Y-48043589D01*
X79867900Y-48095100D01*
X79867900Y-50191649D01*
X79867674Y-50199136D01*
X79864181Y-50256882D01*
X79864181Y-50256885D01*
X79874607Y-50313787D01*
X79875734Y-50321187D01*
X79882712Y-50378645D01*
X79886037Y-50387414D01*
X79892061Y-50409023D01*
X79893750Y-50418240D01*
X79917495Y-50471000D01*
X79920360Y-50477917D01*
X79943541Y-50539037D01*
X79940761Y-50540091D01*
X79951798Y-50595186D01*
X79926304Y-50660239D01*
X79869687Y-50701181D01*
X79828277Y-50708300D01*
X79050758Y-50708300D01*
X78983719Y-50688615D01*
X78937964Y-50635811D01*
X78928020Y-50566653D01*
X78954905Y-50505635D01*
X79067909Y-50367939D01*
X79067913Y-50367932D01*
X79160811Y-50194133D01*
X79160811Y-50194132D01*
X79160814Y-50194127D01*
X79218024Y-50005532D01*
X79237341Y-49809400D01*
X79218024Y-49613268D01*
X79160814Y-49424673D01*
X79160811Y-49424669D01*
X79160811Y-49424666D01*
X79067913Y-49250867D01*
X79067909Y-49250860D01*
X78942883Y-49098516D01*
X78790539Y-48973490D01*
X78790532Y-48973486D01*
X78616733Y-48880588D01*
X78616727Y-48880586D01*
X78428132Y-48823376D01*
X78428129Y-48823375D01*
X78232000Y-48804059D01*
X78035870Y-48823375D01*
X77847266Y-48880588D01*
X77673467Y-48973486D01*
X77673460Y-48973490D01*
X77521116Y-49098516D01*
X77396090Y-49250860D01*
X77396086Y-49250867D01*
X77303188Y-49424666D01*
X77245975Y-49613270D01*
X77226659Y-49809400D01*
X77245975Y-50005529D01*
X77245976Y-50005532D01*
X77298633Y-50179119D01*
X77303188Y-50194133D01*
X77396086Y-50367932D01*
X77396090Y-50367939D01*
X77509095Y-50505635D01*
X77536408Y-50569945D01*
X77524617Y-50638813D01*
X77477465Y-50690373D01*
X77413242Y-50708300D01*
X74480402Y-50708300D01*
X74413363Y-50688615D01*
X74367608Y-50635811D01*
X74357664Y-50566653D01*
X74358643Y-50560833D01*
X74388400Y-50406437D01*
X74388400Y-50276400D01*
X73567960Y-50276400D01*
X73606678Y-50234341D01*
X73656951Y-50119730D01*
X73667286Y-49995005D01*
X73636563Y-49873681D01*
X73573006Y-49776400D01*
X74388400Y-49776400D01*
X74388400Y-49699001D01*
X74373434Y-49542277D01*
X74373433Y-49542273D01*
X74314250Y-49340713D01*
X74217986Y-49153985D01*
X74088131Y-48988862D01*
X74088128Y-48988859D01*
X73929369Y-48851294D01*
X73929358Y-48851285D01*
X73747439Y-48746255D01*
X73747432Y-48746252D01*
X73548916Y-48677544D01*
X73538400Y-48676032D01*
X73538400Y-49745782D01*
X73469348Y-49692037D01*
X73350976Y-49651400D01*
X73257327Y-49651400D01*
X73164954Y-49666814D01*
X73054886Y-49726381D01*
X73038400Y-49744289D01*
X73038400Y-48680140D01*
X73038399Y-48680140D01*
X72926994Y-48707168D01*
X72926982Y-48707172D01*
X72735897Y-48794437D01*
X72735896Y-48794438D01*
X72564780Y-48916289D01*
X72564774Y-48916295D01*
X72466920Y-49018922D01*
X72406411Y-49053857D01*
X72336620Y-49050532D01*
X72279706Y-49010004D01*
X72271638Y-48998448D01*
X72265725Y-48988862D01*
X72231112Y-48932744D01*
X72107056Y-48808688D01*
X71957734Y-48716586D01*
X71791197Y-48661401D01*
X71791195Y-48661400D01*
X71688410Y-48650900D01*
X70888398Y-48650900D01*
X70888380Y-48650901D01*
X70785603Y-48661400D01*
X70785600Y-48661401D01*
X70619068Y-48716585D01*
X70619063Y-48716587D01*
X70469742Y-48808689D01*
X70345689Y-48932742D01*
X70253587Y-49082063D01*
X70253585Y-49082068D01*
X70229754Y-49153985D01*
X70198401Y-49248603D01*
X70198401Y-49248604D01*
X70198400Y-49248604D01*
X70187900Y-49351383D01*
X70187900Y-50701401D01*
X70187901Y-50701418D01*
X70198400Y-50804196D01*
X70198401Y-50804199D01*
X70213506Y-50849781D01*
X70253586Y-50970734D01*
X70345688Y-51120056D01*
X70469744Y-51244112D01*
X70619066Y-51336214D01*
X70785603Y-51391399D01*
X70888391Y-51401900D01*
X71385591Y-51401899D01*
X71452630Y-51421583D01*
X71473272Y-51438218D01*
X71793364Y-51758310D01*
X71803435Y-51770880D01*
X71803622Y-51770726D01*
X71808595Y-51776737D01*
X71859632Y-51824664D01*
X71862429Y-51827375D01*
X71882768Y-51847714D01*
X71886251Y-51850416D01*
X71895127Y-51857997D01*
X71907646Y-51869753D01*
X71928407Y-51889248D01*
X71946998Y-51899468D01*
X71963263Y-51910152D01*
X71980034Y-51923161D01*
X71980037Y-51923163D01*
X72021944Y-51941297D01*
X72032418Y-51946428D01*
X72072432Y-51968427D01*
X72092993Y-51973705D01*
X72111397Y-51980007D01*
X72130874Y-51988436D01*
X72175978Y-51995579D01*
X72187397Y-51997944D01*
X72231623Y-52009300D01*
X72252845Y-52009300D01*
X72272242Y-52010826D01*
X72293205Y-52014147D01*
X72338663Y-52009849D01*
X72350331Y-52009300D01*
X76533100Y-52009300D01*
X76600139Y-52028985D01*
X76645894Y-52081789D01*
X76657100Y-52133300D01*
X76657100Y-52741650D01*
X76637415Y-52808689D01*
X76584611Y-52854444D01*
X76533100Y-52865650D01*
X76059729Y-52865650D01*
X76059723Y-52865651D01*
X76000116Y-52872058D01*
X75865271Y-52922352D01*
X75865264Y-52922356D01*
X75750055Y-53008602D01*
X75750052Y-53008605D01*
X75663806Y-53123814D01*
X75663802Y-53123821D01*
X75613508Y-53258667D01*
X75607101Y-53318266D01*
X75607101Y-53318273D01*
X75607100Y-53318285D01*
X75607100Y-54264020D01*
X75607101Y-54264026D01*
X75613508Y-54323633D01*
X75663802Y-54458478D01*
X75663806Y-54458485D01*
X75750052Y-54573694D01*
X75750055Y-54573697D01*
X75865264Y-54659943D01*
X75865271Y-54659947D01*
X76000117Y-54710241D01*
X76000116Y-54710241D01*
X76007044Y-54710985D01*
X76059727Y-54716650D01*
X76905472Y-54716649D01*
X76965083Y-54710241D01*
X77099931Y-54659946D01*
X77215146Y-54573696D01*
X77301396Y-54458481D01*
X77351691Y-54323633D01*
X77358100Y-54264023D01*
X77358100Y-54148649D01*
X77377785Y-54081610D01*
X77430589Y-54035855D01*
X77482100Y-54024649D01*
X77950509Y-54024649D01*
X78017548Y-54044334D01*
X78063303Y-54097138D01*
X78073247Y-54166296D01*
X78044222Y-54229852D01*
X78008135Y-54258445D01*
X77956750Y-54285413D01*
X77829416Y-54398222D01*
X77732782Y-54538218D01*
X77672460Y-54697275D01*
X77672459Y-54697280D01*
X77651955Y-54866150D01*
X77672459Y-55035019D01*
X77672460Y-55035024D01*
X77732782Y-55194081D01*
X77787819Y-55273814D01*
X77829417Y-55334079D01*
X77927505Y-55420977D01*
X77956750Y-55446886D01*
X78074689Y-55508785D01*
X78107375Y-55525940D01*
X78272544Y-55566650D01*
X78442656Y-55566650D01*
X78607825Y-55525940D01*
X78707414Y-55473671D01*
X78758449Y-55446886D01*
X78758450Y-55446884D01*
X78758452Y-55446884D01*
X78885783Y-55334079D01*
X78982418Y-55194080D01*
X79042740Y-55035022D01*
X79063245Y-54866150D01*
X79042740Y-54697278D01*
X79033021Y-54671652D01*
X78999216Y-54582514D01*
X78982418Y-54538220D01*
X78974787Y-54527165D01*
X78943432Y-54481739D01*
X78885783Y-54398221D01*
X78790916Y-54314176D01*
X78758449Y-54285413D01*
X78607826Y-54206360D01*
X78442656Y-54165650D01*
X78408389Y-54165650D01*
X78341350Y-54145965D01*
X78295595Y-54093161D01*
X78285651Y-54024003D01*
X78314676Y-53960447D01*
X78334075Y-53942385D01*
X78415146Y-53881696D01*
X78501396Y-53766481D01*
X78551691Y-53631633D01*
X78558100Y-53572023D01*
X78558099Y-52133299D01*
X78577784Y-52066261D01*
X78630587Y-52020506D01*
X78682099Y-52009300D01*
X79533100Y-52009300D01*
X79600139Y-52028985D01*
X79645894Y-52081789D01*
X79657100Y-52133300D01*
X79657100Y-53572020D01*
X79657101Y-53572026D01*
X79663508Y-53631633D01*
X79713802Y-53766478D01*
X79713806Y-53766485D01*
X79800052Y-53881694D01*
X79800053Y-53881694D01*
X79800054Y-53881696D01*
X79836240Y-53908785D01*
X79851359Y-53920103D01*
X79893229Y-53976037D01*
X79900802Y-54011580D01*
X79903283Y-54050998D01*
X79906053Y-54059523D01*
X79911144Y-54082298D01*
X79912267Y-54091192D01*
X79912269Y-54091199D01*
X79933560Y-54144978D01*
X79936196Y-54152301D01*
X79954070Y-54207308D01*
X79954072Y-54207313D01*
X79958873Y-54214877D01*
X79969468Y-54235669D01*
X79970240Y-54237617D01*
X79972771Y-54244010D01*
X79972775Y-54244017D01*
X80006773Y-54290811D01*
X80011141Y-54297237D01*
X80042137Y-54346079D01*
X80046906Y-54350558D01*
X80048671Y-54352215D01*
X80064100Y-54369716D01*
X80069372Y-54376972D01*
X80069374Y-54376975D01*
X80113939Y-54413842D01*
X80119778Y-54418989D01*
X80161946Y-54458587D01*
X80161948Y-54458588D01*
X80161951Y-54458590D01*
X80169798Y-54462904D01*
X80189102Y-54476022D01*
X80196013Y-54481739D01*
X80196014Y-54481740D01*
X80221703Y-54493828D01*
X80248346Y-54506365D01*
X80255273Y-54509894D01*
X80305971Y-54537766D01*
X80314660Y-54539997D01*
X80336610Y-54547899D01*
X80344726Y-54551718D01*
X80401546Y-54562556D01*
X80409116Y-54564248D01*
X80465162Y-54578639D01*
X80474129Y-54578639D01*
X80497361Y-54580835D01*
X80499045Y-54581156D01*
X80506169Y-54582515D01*
X80538920Y-54580454D01*
X80607063Y-54595889D01*
X80656044Y-54645715D01*
X80670311Y-54714113D01*
X80669803Y-54719155D01*
X80651955Y-54866149D01*
X80672459Y-55035019D01*
X80672460Y-55035024D01*
X80732782Y-55194081D01*
X80787819Y-55273814D01*
X80829417Y-55334079D01*
X80927505Y-55420977D01*
X80956750Y-55446886D01*
X81074689Y-55508785D01*
X81107375Y-55525940D01*
X81272544Y-55566650D01*
X81442656Y-55566650D01*
X81607825Y-55525940D01*
X81707414Y-55473671D01*
X81758449Y-55446886D01*
X81758450Y-55446884D01*
X81758452Y-55446884D01*
X81885783Y-55334079D01*
X81972697Y-55208163D01*
X82026979Y-55164174D01*
X82096428Y-55156514D01*
X82158992Y-55187617D01*
X82162427Y-55190923D01*
X82209614Y-55238110D01*
X82219685Y-55250680D01*
X82219872Y-55250526D01*
X82224845Y-55256537D01*
X82224847Y-55256539D01*
X82224848Y-55256540D01*
X82246510Y-55276882D01*
X82275882Y-55304464D01*
X82278679Y-55307175D01*
X82299017Y-55327513D01*
X82302500Y-55330215D01*
X82311370Y-55337790D01*
X82318261Y-55344260D01*
X82353660Y-55404497D01*
X82357077Y-55439956D01*
X82357100Y-55439956D01*
X82357100Y-55440197D01*
X82357206Y-55441298D01*
X82357100Y-55443274D01*
X82357100Y-56389020D01*
X82357101Y-56389026D01*
X82363508Y-56448633D01*
X82413802Y-56583478D01*
X82413806Y-56583485D01*
X82500052Y-56698694D01*
X82500055Y-56698697D01*
X82615264Y-56784943D01*
X82615271Y-56784947D01*
X82750117Y-56835241D01*
X82750116Y-56835241D01*
X82757044Y-56835985D01*
X82809727Y-56841650D01*
X83655472Y-56841649D01*
X83715083Y-56835241D01*
X83849931Y-56784946D01*
X83965146Y-56698696D01*
X84051396Y-56583481D01*
X84101691Y-56448633D01*
X84108100Y-56389023D01*
X84108099Y-55613099D01*
X84127783Y-55546061D01*
X84180587Y-55500306D01*
X84232099Y-55489100D01*
X86601100Y-55489100D01*
X86668139Y-55508785D01*
X86713894Y-55561589D01*
X86725100Y-55613100D01*
X86725100Y-55726197D01*
X86705415Y-55793236D01*
X86679766Y-55822049D01*
X86639714Y-55854918D01*
X86514690Y-56007260D01*
X86514686Y-56007267D01*
X86421788Y-56181066D01*
X86364575Y-56369670D01*
X86345259Y-56565800D01*
X86364575Y-56761929D01*
X86421788Y-56950533D01*
X86514686Y-57124332D01*
X86514690Y-57124339D01*
X86639716Y-57276683D01*
X86792060Y-57401709D01*
X86792067Y-57401713D01*
X86965866Y-57494611D01*
X86965869Y-57494611D01*
X86965873Y-57494614D01*
X87154468Y-57551824D01*
X87350600Y-57571141D01*
X87546732Y-57551824D01*
X87735327Y-57494614D01*
X87909138Y-57401710D01*
X88061483Y-57276683D01*
X88186510Y-57124338D01*
X88279414Y-56950527D01*
X88336624Y-56761932D01*
X88355941Y-56565800D01*
X88336624Y-56369668D01*
X88279414Y-56181073D01*
X88279411Y-56181069D01*
X88279411Y-56181066D01*
X88186513Y-56007267D01*
X88186509Y-56007260D01*
X88061485Y-55854918D01*
X88021434Y-55822049D01*
X87982100Y-55764303D01*
X87976100Y-55726197D01*
X87976100Y-55613100D01*
X87995785Y-55546061D01*
X88048589Y-55500306D01*
X88100100Y-55489100D01*
X91227495Y-55489100D01*
X91243505Y-55490867D01*
X91243528Y-55490626D01*
X91251289Y-55491358D01*
X91251296Y-55491360D01*
X91321262Y-55489160D01*
X91325157Y-55489100D01*
X91353925Y-55489100D01*
X91358287Y-55488548D01*
X91369939Y-55487630D01*
X91415569Y-55486197D01*
X91435956Y-55480273D01*
X91454996Y-55476331D01*
X91476058Y-55473671D01*
X91518520Y-55456858D01*
X91529557Y-55453080D01*
X91573398Y-55440344D01*
X91591665Y-55429539D01*
X91609136Y-55420980D01*
X91628871Y-55413168D01*
X91665816Y-55386325D01*
X91675558Y-55379926D01*
X91714865Y-55356681D01*
X91729870Y-55341675D01*
X91744668Y-55329036D01*
X91761837Y-55316563D01*
X91790946Y-55281374D01*
X91798790Y-55272754D01*
X92534313Y-54537231D01*
X92546879Y-54527165D01*
X92546725Y-54526978D01*
X92552733Y-54522005D01*
X92552740Y-54522002D01*
X92590549Y-54481739D01*
X92600665Y-54470967D01*
X92603378Y-54468167D01*
X92608641Y-54462904D01*
X92623712Y-54447834D01*
X92626407Y-54444359D01*
X92633986Y-54435482D01*
X92665248Y-54402193D01*
X92675474Y-54383589D01*
X92686147Y-54367341D01*
X92699163Y-54350563D01*
X92717291Y-54308670D01*
X92722427Y-54298182D01*
X92744427Y-54258168D01*
X92749704Y-54237608D01*
X92756006Y-54219203D01*
X92764436Y-54199726D01*
X92771579Y-54154620D01*
X92773943Y-54143205D01*
X92785300Y-54098977D01*
X92785300Y-54077755D01*
X92786827Y-54058355D01*
X92787992Y-54050998D01*
X92790147Y-54037395D01*
X92785850Y-53991936D01*
X92785300Y-53980267D01*
X92785300Y-53676400D01*
X93263001Y-53676400D01*
X93263001Y-53726386D01*
X93273494Y-53829097D01*
X93328641Y-53995519D01*
X93328643Y-53995524D01*
X93420684Y-54144745D01*
X93544654Y-54268715D01*
X93693875Y-54360756D01*
X93693880Y-54360758D01*
X93860302Y-54415905D01*
X93860309Y-54415906D01*
X93963019Y-54426399D01*
X94237999Y-54426399D01*
X94238000Y-54426398D01*
X94238000Y-53676400D01*
X94738000Y-53676400D01*
X94738000Y-54426399D01*
X95012972Y-54426399D01*
X95012986Y-54426398D01*
X95115697Y-54415905D01*
X95282119Y-54360758D01*
X95282124Y-54360756D01*
X95431345Y-54268715D01*
X95555315Y-54144745D01*
X95647356Y-53995524D01*
X95647358Y-53995519D01*
X95702505Y-53829097D01*
X95702506Y-53829090D01*
X95712999Y-53726386D01*
X95713000Y-53726373D01*
X95713000Y-53676400D01*
X94738000Y-53676400D01*
X94238000Y-53676400D01*
X93263001Y-53676400D01*
X92785300Y-53676400D01*
X92785300Y-52461100D01*
X92804985Y-52394061D01*
X92857789Y-52348306D01*
X92909300Y-52337100D01*
X93120269Y-52337100D01*
X93142064Y-52334482D01*
X93207452Y-52326630D01*
X93342936Y-52273202D01*
X93412522Y-52266920D01*
X93474459Y-52299257D01*
X93476107Y-52300875D01*
X93544344Y-52369112D01*
X93547628Y-52371137D01*
X93547653Y-52371153D01*
X93549445Y-52373146D01*
X93550011Y-52373593D01*
X93549934Y-52373689D01*
X93594379Y-52423099D01*
X93605603Y-52492061D01*
X93577761Y-52556144D01*
X93547665Y-52582226D01*
X93544660Y-52584079D01*
X93544655Y-52584083D01*
X93420684Y-52708054D01*
X93328643Y-52857275D01*
X93328641Y-52857280D01*
X93273494Y-53023702D01*
X93273493Y-53023709D01*
X93263000Y-53126413D01*
X93263000Y-53176400D01*
X95712999Y-53176400D01*
X95719115Y-53170283D01*
X95732684Y-53124074D01*
X95785488Y-53078319D01*
X95854646Y-53068375D01*
X95862967Y-53069863D01*
X95866399Y-53070597D01*
X95866403Y-53070599D01*
X95888265Y-53072832D01*
X95952956Y-53099226D01*
X95965189Y-53111623D01*
X95965511Y-53111302D01*
X95985190Y-53130980D01*
X95997828Y-53145776D01*
X96009605Y-53161986D01*
X96009606Y-53161987D01*
X96043257Y-53189825D01*
X96051898Y-53197688D01*
X96374794Y-53520584D01*
X96384617Y-53532845D01*
X96384839Y-53532663D01*
X96389811Y-53538673D01*
X96389814Y-53538677D01*
X96425327Y-53572026D01*
X96438823Y-53584700D01*
X96441621Y-53587412D01*
X96461122Y-53606914D01*
X96461126Y-53606917D01*
X96461129Y-53606920D01*
X96464302Y-53609381D01*
X96473174Y-53616959D01*
X96505018Y-53646862D01*
X96522576Y-53656514D01*
X96538835Y-53667195D01*
X96554664Y-53679473D01*
X96594755Y-53696821D01*
X96605226Y-53701951D01*
X96627780Y-53714350D01*
X96643502Y-53722994D01*
X96643504Y-53722995D01*
X96643508Y-53722997D01*
X96662916Y-53727980D01*
X96681319Y-53734281D01*
X96699701Y-53742236D01*
X96699702Y-53742236D01*
X96699704Y-53742237D01*
X96742850Y-53749070D01*
X96754272Y-53751436D01*
X96796581Y-53762300D01*
X96816616Y-53762300D01*
X96836014Y-53763826D01*
X96855794Y-53766959D01*
X96855795Y-53766960D01*
X96855795Y-53766959D01*
X96855796Y-53766960D01*
X96899275Y-53762850D01*
X96910944Y-53762300D01*
X99307457Y-53762300D01*
X99323077Y-53764024D01*
X99323104Y-53763739D01*
X99330860Y-53764471D01*
X99330867Y-53764473D01*
X99398073Y-53762361D01*
X99401968Y-53762300D01*
X99429546Y-53762300D01*
X99429550Y-53762300D01*
X99433524Y-53761797D01*
X99445163Y-53760880D01*
X99488827Y-53759509D01*
X99508069Y-53753917D01*
X99527112Y-53749974D01*
X99546992Y-53747464D01*
X99587601Y-53731385D01*
X99598644Y-53727603D01*
X99640590Y-53715418D01*
X99657829Y-53705222D01*
X99675303Y-53696662D01*
X99693927Y-53689288D01*
X99693927Y-53689287D01*
X99693932Y-53689286D01*
X99729283Y-53663600D01*
X99739014Y-53657208D01*
X99776620Y-53634970D01*
X99790789Y-53620799D01*
X99805579Y-53608168D01*
X99821787Y-53596394D01*
X99849638Y-53562726D01*
X99857479Y-53554109D01*
X100426620Y-52984969D01*
X100487942Y-52951485D01*
X100557634Y-52956469D01*
X100613567Y-52998341D01*
X100637984Y-53063805D01*
X100638300Y-53072651D01*
X100638300Y-57995275D01*
X100618615Y-58062314D01*
X100565811Y-58108069D01*
X100514491Y-58119275D01*
X68319691Y-58168921D01*
X68252621Y-58149340D01*
X68206785Y-58096606D01*
X68195500Y-58044921D01*
X68195500Y-56414020D01*
X75607100Y-56414020D01*
X75607101Y-56414026D01*
X75613508Y-56473633D01*
X75663802Y-56608478D01*
X75663806Y-56608485D01*
X75750052Y-56723694D01*
X75750055Y-56723697D01*
X75865264Y-56809943D01*
X75865271Y-56809947D01*
X76000117Y-56860241D01*
X76000116Y-56860241D01*
X76007044Y-56860985D01*
X76059727Y-56866650D01*
X76905472Y-56866649D01*
X76965083Y-56860241D01*
X77099931Y-56809946D01*
X77215146Y-56723696D01*
X77301396Y-56608481D01*
X77351691Y-56473633D01*
X77358100Y-56414023D01*
X77358099Y-55468278D01*
X77351691Y-55408667D01*
X77343362Y-55386337D01*
X77301397Y-55273821D01*
X77301393Y-55273814D01*
X77215147Y-55158605D01*
X77215144Y-55158602D01*
X77099935Y-55072356D01*
X77099928Y-55072352D01*
X76965082Y-55022058D01*
X76965083Y-55022058D01*
X76905483Y-55015651D01*
X76905481Y-55015650D01*
X76905473Y-55015650D01*
X76905464Y-55015650D01*
X76059729Y-55015650D01*
X76059723Y-55015651D01*
X76000116Y-55022058D01*
X75865271Y-55072352D01*
X75865264Y-55072356D01*
X75750055Y-55158602D01*
X75750052Y-55158605D01*
X75663806Y-55273814D01*
X75663802Y-55273821D01*
X75613508Y-55408667D01*
X75608327Y-55456863D01*
X75607101Y-55468273D01*
X75607100Y-55468285D01*
X75607100Y-56414020D01*
X68195500Y-56414020D01*
X68195500Y-47902875D01*
X70763876Y-47902875D01*
X70887862Y-47969148D01*
X71076369Y-48026331D01*
X71076365Y-48026331D01*
X71272400Y-48045638D01*
X71468432Y-48026331D01*
X71656937Y-47969148D01*
X71780923Y-47902876D01*
X71780923Y-47902875D01*
X71272401Y-47394353D01*
X71272400Y-47394353D01*
X70763876Y-47902875D01*
X68195500Y-47902875D01*
X68195500Y-47412048D01*
X68215185Y-47345009D01*
X68247732Y-47310928D01*
X68628367Y-47040800D01*
X70267561Y-47040800D01*
X70286868Y-47236832D01*
X70344051Y-47425337D01*
X70410323Y-47549322D01*
X70918847Y-47040800D01*
X71625953Y-47040800D01*
X72134476Y-47549323D01*
X72200748Y-47425337D01*
X72257931Y-47236832D01*
X72277238Y-47040800D01*
X72257931Y-46844767D01*
X72200748Y-46656262D01*
X72134475Y-46532276D01*
X71625953Y-47040799D01*
X71625953Y-47040800D01*
X70918847Y-47040800D01*
X70410323Y-46532276D01*
X70344049Y-46656266D01*
X70286868Y-46844767D01*
X70267561Y-47040800D01*
X68628367Y-47040800D01*
X69843111Y-46178723D01*
X70763876Y-46178723D01*
X71272400Y-46687247D01*
X71272401Y-46687247D01*
X71780922Y-46178723D01*
X71656937Y-46112451D01*
X71468430Y-46055268D01*
X71468434Y-46055268D01*
X71272400Y-46035961D01*
X71076367Y-46055268D01*
X70887866Y-46112449D01*
X70763876Y-46178723D01*
X69843111Y-46178723D01*
X71235294Y-45190722D01*
X71238092Y-45188795D01*
X71275201Y-45164001D01*
X71285348Y-45148814D01*
X71298325Y-45132538D01*
X71310873Y-45119265D01*
X71313585Y-45112156D01*
X71326341Y-45087461D01*
X71330566Y-45081140D01*
X71334127Y-45063233D01*
X71339891Y-45043223D01*
X71346404Y-45026159D01*
X71345149Y-44981589D01*
X71345100Y-44978098D01*
X71345100Y-38167577D01*
X71364785Y-38100538D01*
X71387129Y-38074535D01*
X73287665Y-36400255D01*
X73350981Y-36370711D01*
X73369633Y-36369300D01*
X92009055Y-36369300D01*
X92076094Y-36388985D01*
G37*
%TD.AperFunction*%
%TA.AperFunction,Conductor*%
G36*
X87648465Y-44967785D02*
G01*
X87694220Y-45020589D01*
X87704164Y-45089747D01*
X87699132Y-45111104D01*
X87671694Y-45193902D01*
X87671693Y-45193909D01*
X87661200Y-45296613D01*
X87661200Y-45571600D01*
X88787200Y-45571600D01*
X88854239Y-45591285D01*
X88899994Y-45644089D01*
X88911200Y-45695600D01*
X88911200Y-47046599D01*
X88961172Y-47046599D01*
X88961186Y-47046598D01*
X89063897Y-47036105D01*
X89230319Y-46980958D01*
X89230324Y-46980956D01*
X89379545Y-46888915D01*
X89503518Y-46764942D01*
X89505365Y-46761948D01*
X89507169Y-46760324D01*
X89507998Y-46759277D01*
X89508176Y-46759418D01*
X89557310Y-46715221D01*
X89626273Y-46703996D01*
X89690356Y-46731836D01*
X89716443Y-46761941D01*
X89718488Y-46765256D01*
X89842544Y-46889312D01*
X89991866Y-46981414D01*
X90158403Y-47036599D01*
X90261191Y-47047100D01*
X90592668Y-47047099D01*
X90659706Y-47066783D01*
X90705461Y-47119587D01*
X90715405Y-47188746D01*
X90708022Y-47216588D01*
X90705829Y-47222150D01*
X90659770Y-47338948D01*
X90655934Y-47370887D01*
X90628399Y-47435098D01*
X90570516Y-47474231D01*
X90532820Y-47480100D01*
X88786276Y-47480100D01*
X88719237Y-47460415D01*
X88673482Y-47407611D01*
X88663161Y-47370885D01*
X88659340Y-47339069D01*
X88659340Y-47339068D01*
X88604681Y-47200462D01*
X88520610Y-47089599D01*
X88499517Y-47079122D01*
X88468161Y-47069915D01*
X88422406Y-47017111D01*
X88411200Y-46965600D01*
X88411200Y-46071600D01*
X87661201Y-46071600D01*
X87661201Y-46346586D01*
X87671694Y-46449297D01*
X87726841Y-46615719D01*
X87726843Y-46615724D01*
X87801958Y-46737503D01*
X87820398Y-46804895D01*
X87799476Y-46871559D01*
X87745834Y-46916329D01*
X87696419Y-46926600D01*
X87434800Y-46926600D01*
X87434800Y-47852600D01*
X87415115Y-47919639D01*
X87362311Y-47965394D01*
X87310800Y-47976600D01*
X87058800Y-47976600D01*
X86991761Y-47956915D01*
X86946006Y-47904111D01*
X86934800Y-47852600D01*
X86934800Y-46926600D01*
X86199366Y-46926600D01*
X86112269Y-46937059D01*
X86112268Y-46937059D01*
X85973660Y-46991719D01*
X85973656Y-46991721D01*
X85937282Y-47019305D01*
X85871971Y-47044128D01*
X85803607Y-47029700D01*
X85753896Y-46980602D01*
X85744652Y-46959505D01*
X85714158Y-46867480D01*
X85714156Y-46867475D01*
X85622115Y-46718254D01*
X85498145Y-46594284D01*
X85348924Y-46502243D01*
X85348919Y-46502241D01*
X85182497Y-46447094D01*
X85182490Y-46447093D01*
X85079786Y-46436600D01*
X84829800Y-46436600D01*
X84829800Y-47575100D01*
X84810115Y-47642139D01*
X84757311Y-47687894D01*
X84705800Y-47699100D01*
X83379801Y-47699100D01*
X83379801Y-47761586D01*
X83390294Y-47864297D01*
X83445441Y-48030719D01*
X83445443Y-48030724D01*
X83537484Y-48179945D01*
X83631104Y-48273565D01*
X83664589Y-48334888D01*
X83659605Y-48404580D01*
X83631105Y-48448927D01*
X83537087Y-48542945D01*
X83444987Y-48692263D01*
X83444985Y-48692268D01*
X83436927Y-48716585D01*
X83389801Y-48858803D01*
X83389801Y-48858804D01*
X83389800Y-48858804D01*
X83379300Y-48961583D01*
X83379300Y-49586601D01*
X83379301Y-49586619D01*
X83389800Y-49689396D01*
X83389801Y-49689399D01*
X83392983Y-49699001D01*
X83444986Y-49855934D01*
X83537088Y-50005256D01*
X83661144Y-50129312D01*
X83810466Y-50221414D01*
X83977003Y-50276599D01*
X84079791Y-50287100D01*
X85079808Y-50287099D01*
X85079816Y-50287098D01*
X85079819Y-50287098D01*
X85136102Y-50281348D01*
X85182597Y-50276599D01*
X85349134Y-50221414D01*
X85498456Y-50129312D01*
X85574849Y-50052919D01*
X85636172Y-50019434D01*
X85662530Y-50016600D01*
X87310800Y-50016600D01*
X87377839Y-50036285D01*
X87423594Y-50089089D01*
X87434800Y-50140600D01*
X87434800Y-50392600D01*
X87415115Y-50459639D01*
X87362311Y-50505394D01*
X87310800Y-50516600D01*
X85699800Y-50516600D01*
X85699800Y-50567034D01*
X85710259Y-50654130D01*
X85710260Y-50654134D01*
X85734898Y-50716611D01*
X85741179Y-50786197D01*
X85708842Y-50848133D01*
X85648153Y-50882754D01*
X85619543Y-50886100D01*
X83328008Y-50886100D01*
X83260969Y-50866415D01*
X83240327Y-50849781D01*
X82398619Y-50008073D01*
X82365134Y-49946750D01*
X82362300Y-49920392D01*
X82362300Y-47199100D01*
X83379800Y-47199100D01*
X84329800Y-47199100D01*
X84329800Y-46436600D01*
X84079829Y-46436600D01*
X84079812Y-46436601D01*
X83977102Y-46447094D01*
X83810680Y-46502241D01*
X83810675Y-46502243D01*
X83661454Y-46594284D01*
X83537484Y-46718254D01*
X83445443Y-46867475D01*
X83445441Y-46867480D01*
X83390294Y-47033902D01*
X83390293Y-47033909D01*
X83379800Y-47136613D01*
X83379800Y-47199100D01*
X82362300Y-47199100D01*
X82362300Y-45072100D01*
X82381985Y-45005061D01*
X82434789Y-44959306D01*
X82486300Y-44948100D01*
X87581426Y-44948100D01*
X87648465Y-44967785D01*
G37*
%TD.AperFunction*%
%TA.AperFunction,Conductor*%
G36*
X96405709Y-42321085D02*
G01*
X96451464Y-42373889D01*
X96461609Y-42409217D01*
X96474989Y-42510868D01*
X96477094Y-42518722D01*
X96473814Y-42519600D01*
X96479581Y-42573473D01*
X96476517Y-42583922D01*
X96477095Y-42584077D01*
X96474990Y-42591929D01*
X96460500Y-42701998D01*
X96460500Y-42900803D01*
X96474989Y-43010868D01*
X96477094Y-43018722D01*
X96473814Y-43019600D01*
X96479581Y-43073473D01*
X96476517Y-43083922D01*
X96477095Y-43084077D01*
X96474990Y-43091929D01*
X96460500Y-43201998D01*
X96460500Y-43400803D01*
X96474988Y-43510863D01*
X96474990Y-43510870D01*
X96474991Y-43510872D01*
X96500182Y-43571689D01*
X96501561Y-43575016D01*
X96511000Y-43622469D01*
X96511000Y-43851400D01*
X96704575Y-43851400D01*
X96752028Y-43860839D01*
X96876528Y-43912409D01*
X96986599Y-43926900D01*
X97015787Y-43926899D01*
X97046626Y-43930794D01*
X97128823Y-43951900D01*
X98632108Y-43951900D01*
X98648118Y-43953667D01*
X98648141Y-43953426D01*
X98655902Y-43954158D01*
X98655909Y-43954160D01*
X98725875Y-43951960D01*
X98729770Y-43951900D01*
X98758538Y-43951900D01*
X98762900Y-43951348D01*
X98774552Y-43950430D01*
X98820182Y-43948997D01*
X98840564Y-43943075D01*
X98859608Y-43939131D01*
X98880671Y-43936471D01*
X98923126Y-43919661D01*
X98934156Y-43915885D01*
X98978011Y-43903145D01*
X98996286Y-43892336D01*
X99013760Y-43883776D01*
X99033484Y-43875968D01*
X99070418Y-43849132D01*
X99080172Y-43842725D01*
X99119478Y-43819481D01*
X99134488Y-43804470D01*
X99149276Y-43791839D01*
X99166450Y-43779363D01*
X99195559Y-43744174D01*
X99203402Y-43735555D01*
X99563020Y-43375938D01*
X99624342Y-43342454D01*
X99694034Y-43347438D01*
X99749967Y-43389310D01*
X99774384Y-43454774D01*
X99774700Y-43463620D01*
X99774700Y-44565582D01*
X99772326Y-44589727D01*
X99769791Y-44602491D01*
X99769796Y-44614709D01*
X99766129Y-44614710D01*
X99761811Y-44663166D01*
X99718967Y-44718358D01*
X99653086Y-44741626D01*
X99587952Y-44727164D01*
X99470133Y-44664188D01*
X99470127Y-44664186D01*
X99343718Y-44625840D01*
X99281529Y-44606975D01*
X99085400Y-44587659D01*
X98889270Y-44606975D01*
X98700666Y-44664188D01*
X98526867Y-44757086D01*
X98526860Y-44757090D01*
X98374516Y-44882116D01*
X98249490Y-45034460D01*
X98249486Y-45034467D01*
X98156588Y-45208266D01*
X98099375Y-45396870D01*
X98097573Y-45415172D01*
X98071411Y-45479959D01*
X98014376Y-45520318D01*
X97944576Y-45523434D01*
X97886489Y-45490698D01*
X97782803Y-45387012D01*
X97772980Y-45374750D01*
X97772759Y-45374934D01*
X97767786Y-45368922D01*
X97718776Y-45322899D01*
X97715977Y-45320186D01*
X97696477Y-45300685D01*
X97696471Y-45300680D01*
X97693286Y-45298209D01*
X97684434Y-45290648D01*
X97652582Y-45260738D01*
X97652580Y-45260736D01*
X97652577Y-45260735D01*
X97635029Y-45251088D01*
X97618763Y-45240404D01*
X97617306Y-45239274D01*
X97602936Y-45228127D01*
X97602935Y-45228126D01*
X97602932Y-45228124D01*
X97562849Y-45210778D01*
X97552363Y-45205641D01*
X97514094Y-45184603D01*
X97514092Y-45184602D01*
X97494693Y-45179622D01*
X97476281Y-45173318D01*
X97457898Y-45165362D01*
X97457892Y-45165360D01*
X97414760Y-45158529D01*
X97403322Y-45156161D01*
X97361020Y-45145300D01*
X97361019Y-45145300D01*
X97350355Y-45145300D01*
X97283316Y-45125615D01*
X97237561Y-45072811D01*
X97232649Y-45060305D01*
X97226985Y-45043212D01*
X97211962Y-44997875D01*
X97211958Y-44997869D01*
X97211957Y-44997866D01*
X97120628Y-44849800D01*
X97120625Y-44849796D01*
X96997603Y-44726774D01*
X96997599Y-44726771D01*
X96849533Y-44635442D01*
X96849527Y-44635439D01*
X96849525Y-44635438D01*
X96786969Y-44614709D01*
X96684376Y-44580713D01*
X96582455Y-44570300D01*
X96582448Y-44570300D01*
X95995752Y-44570300D01*
X95995744Y-44570300D01*
X95893823Y-44580713D01*
X95728677Y-44635437D01*
X95728666Y-44635442D01*
X95580600Y-44726771D01*
X95580596Y-44726774D01*
X95457574Y-44849796D01*
X95457571Y-44849800D01*
X95457138Y-44850503D01*
X95456714Y-44850883D01*
X95453093Y-44855464D01*
X95452310Y-44854845D01*
X95405190Y-44897228D01*
X95336228Y-44908449D01*
X95272146Y-44880606D01*
X95250257Y-44855344D01*
X95250107Y-44855464D01*
X95247459Y-44852115D01*
X95246062Y-44850503D01*
X95245628Y-44849800D01*
X95245625Y-44849796D01*
X95122603Y-44726774D01*
X95122599Y-44726771D01*
X94974533Y-44635442D01*
X94974527Y-44635439D01*
X94974525Y-44635438D01*
X94911969Y-44614709D01*
X94809376Y-44580713D01*
X94707455Y-44570300D01*
X94707448Y-44570300D01*
X94120752Y-44570300D01*
X94120744Y-44570300D01*
X94018823Y-44580713D01*
X93853677Y-44635437D01*
X93853666Y-44635442D01*
X93705600Y-44726771D01*
X93705596Y-44726774D01*
X93582574Y-44849796D01*
X93582571Y-44849800D01*
X93491242Y-44997866D01*
X93491237Y-44997877D01*
X93436513Y-45163023D01*
X93426100Y-45264944D01*
X93426100Y-46276655D01*
X93436513Y-46378576D01*
X93491237Y-46543722D01*
X93491242Y-46543733D01*
X93585349Y-46696303D01*
X93603790Y-46763695D01*
X93585349Y-46826498D01*
X93510810Y-46947343D01*
X93458862Y-46994067D01*
X93389899Y-47005288D01*
X93354389Y-46993590D01*
X93354074Y-46994390D01*
X93207457Y-46936571D01*
X93207449Y-46936569D01*
X93120269Y-46926100D01*
X93120268Y-46926100D01*
X92934300Y-46926100D01*
X92867261Y-46906415D01*
X92821506Y-46853611D01*
X92810300Y-46802100D01*
X92810300Y-46540550D01*
X92810526Y-46533063D01*
X92814019Y-46475315D01*
X92808847Y-46447093D01*
X92803584Y-46418377D01*
X92802463Y-46411003D01*
X92795488Y-46353557D01*
X92795488Y-46353555D01*
X92792163Y-46344789D01*
X92786138Y-46323176D01*
X92784450Y-46313961D01*
X92760703Y-46261198D01*
X92757840Y-46254283D01*
X92737320Y-46200179D01*
X92737319Y-46200178D01*
X92737318Y-46200174D01*
X92731998Y-46192466D01*
X92720971Y-46172915D01*
X92717126Y-46164371D01*
X92681441Y-46118824D01*
X92677001Y-46112790D01*
X92644133Y-46065172D01*
X92632954Y-46055268D01*
X92600810Y-46026791D01*
X92595372Y-46021671D01*
X91934727Y-45361026D01*
X91929608Y-45355589D01*
X91891229Y-45312268D01*
X91843589Y-45279385D01*
X91837592Y-45274972D01*
X91792028Y-45239274D01*
X91792026Y-45239273D01*
X91792025Y-45239272D01*
X91792023Y-45239271D01*
X91783476Y-45235424D01*
X91763938Y-45224405D01*
X91756226Y-45219082D01*
X91756224Y-45219081D01*
X91702117Y-45198560D01*
X91695200Y-45195695D01*
X91642440Y-45171950D01*
X91642441Y-45171950D01*
X91635087Y-45170602D01*
X91633222Y-45170260D01*
X91611614Y-45164237D01*
X91602847Y-45160912D01*
X91601222Y-45160512D01*
X91600160Y-45159893D01*
X91595836Y-45158254D01*
X91596108Y-45157534D01*
X91540843Y-45125353D01*
X91513196Y-45079119D01*
X91506962Y-45060305D01*
X91496014Y-45027266D01*
X91403912Y-44877944D01*
X91279856Y-44753888D01*
X91271140Y-44748511D01*
X91224416Y-44696565D01*
X91212299Y-44646866D01*
X91211761Y-44629732D01*
X91211700Y-44625840D01*
X91211700Y-44597077D01*
X91211699Y-44597070D01*
X91211149Y-44592716D01*
X91210230Y-44581054D01*
X91208797Y-44535430D01*
X91202876Y-44515052D01*
X91198931Y-44496003D01*
X91196271Y-44474942D01*
X91179461Y-44432487D01*
X91175681Y-44421445D01*
X91162943Y-44377599D01*
X91152141Y-44359335D01*
X91143579Y-44341858D01*
X91142551Y-44339262D01*
X91135768Y-44322129D01*
X91108937Y-44285199D01*
X91102523Y-44275435D01*
X91079282Y-44236137D01*
X91079281Y-44236135D01*
X91064275Y-44221129D01*
X91051635Y-44206330D01*
X91039161Y-44189160D01*
X91003980Y-44160056D01*
X90995340Y-44152194D01*
X90741234Y-43898088D01*
X90731161Y-43885514D01*
X90730974Y-43885670D01*
X90725998Y-43879654D01*
X90674967Y-43831734D01*
X90672169Y-43829023D01*
X90651835Y-43808689D01*
X90648348Y-43805984D01*
X90639469Y-43798400D01*
X90606196Y-43767154D01*
X90606188Y-43767148D01*
X90587592Y-43756925D01*
X90571331Y-43746244D01*
X90554563Y-43733237D01*
X90538095Y-43726111D01*
X90512653Y-43715101D01*
X90502194Y-43709977D01*
X90462168Y-43687973D01*
X90462165Y-43687972D01*
X90441601Y-43682692D01*
X90423196Y-43676390D01*
X90403727Y-43667965D01*
X90403721Y-43667963D01*
X90358637Y-43660823D01*
X90347198Y-43658454D01*
X90302980Y-43647100D01*
X90302977Y-43647100D01*
X90281755Y-43647100D01*
X90262355Y-43645573D01*
X90241396Y-43642253D01*
X90241395Y-43642253D01*
X90206275Y-43645573D01*
X90195940Y-43646550D01*
X90184270Y-43647100D01*
X82483895Y-43647100D01*
X82416856Y-43627415D01*
X82371101Y-43574611D01*
X82359956Y-43526994D01*
X82359874Y-43524389D01*
X82359398Y-43509231D01*
X82353476Y-43488850D01*
X82349531Y-43469795D01*
X82346872Y-43448749D01*
X82346871Y-43448744D01*
X82346871Y-43448742D01*
X82338401Y-43427351D01*
X82332026Y-43357775D01*
X82364279Y-43295795D01*
X82424921Y-43261091D01*
X82464498Y-43258178D01*
X82550000Y-43265659D01*
X82785408Y-43245063D01*
X83013663Y-43183903D01*
X83227830Y-43084035D01*
X83421401Y-42948495D01*
X83588495Y-42781401D01*
X83718425Y-42595842D01*
X83773002Y-42552217D01*
X83842500Y-42545023D01*
X83904855Y-42576546D01*
X83921575Y-42595842D01*
X84051281Y-42781082D01*
X84051505Y-42781401D01*
X84218599Y-42948495D01*
X84307677Y-43010868D01*
X84412165Y-43084032D01*
X84412167Y-43084033D01*
X84412170Y-43084035D01*
X84626337Y-43183903D01*
X84854592Y-43245063D01*
X85037126Y-43261033D01*
X85089999Y-43265659D01*
X85090000Y-43265659D01*
X85090001Y-43265659D01*
X85142874Y-43261033D01*
X85325408Y-43245063D01*
X85553663Y-43183903D01*
X85767830Y-43084035D01*
X85961401Y-42948495D01*
X86128495Y-42781401D01*
X86258730Y-42595405D01*
X86313307Y-42551781D01*
X86382805Y-42544587D01*
X86445160Y-42576110D01*
X86461879Y-42595405D01*
X86591890Y-42781078D01*
X86758917Y-42948105D01*
X86952421Y-43083600D01*
X87166507Y-43183429D01*
X87166516Y-43183433D01*
X87380000Y-43240634D01*
X87380000Y-42345501D01*
X87487685Y-42394680D01*
X87594237Y-42410000D01*
X87665763Y-42410000D01*
X87772315Y-42394680D01*
X87880000Y-42345501D01*
X87880000Y-43240633D01*
X88093483Y-43183433D01*
X88093492Y-43183429D01*
X88307578Y-43083600D01*
X88501082Y-42948105D01*
X88668105Y-42781082D01*
X88798119Y-42595405D01*
X88852696Y-42551781D01*
X88922195Y-42544588D01*
X88984549Y-42576110D01*
X89001269Y-42595405D01*
X89131505Y-42781401D01*
X89298599Y-42948495D01*
X89387677Y-43010868D01*
X89492165Y-43084032D01*
X89492167Y-43084033D01*
X89492170Y-43084035D01*
X89706337Y-43183903D01*
X89934592Y-43245063D01*
X90117126Y-43261033D01*
X90169999Y-43265659D01*
X90170000Y-43265659D01*
X90170001Y-43265659D01*
X90222874Y-43261033D01*
X90405408Y-43245063D01*
X90477989Y-43225615D01*
X90547839Y-43227278D01*
X90597763Y-43257709D01*
X90849564Y-43509510D01*
X90859635Y-43522080D01*
X90859822Y-43521926D01*
X90864795Y-43527937D01*
X90864797Y-43527939D01*
X90864798Y-43527940D01*
X90882059Y-43544149D01*
X90915832Y-43575864D01*
X90918629Y-43578575D01*
X90938967Y-43598913D01*
X90942450Y-43601615D01*
X90951326Y-43609196D01*
X90965461Y-43622469D01*
X90984607Y-43640448D01*
X90987890Y-43642253D01*
X91003205Y-43650672D01*
X91019470Y-43661357D01*
X91036232Y-43674360D01*
X91036235Y-43674361D01*
X91036236Y-43674362D01*
X91078140Y-43692495D01*
X91088612Y-43697625D01*
X91128632Y-43719627D01*
X91144340Y-43723659D01*
X91149186Y-43724904D01*
X91167598Y-43731207D01*
X91187073Y-43739635D01*
X91232179Y-43746778D01*
X91243574Y-43749138D01*
X91287823Y-43760500D01*
X91309051Y-43760500D01*
X91328448Y-43762026D01*
X91349403Y-43765345D01*
X91349404Y-43765346D01*
X91349404Y-43765345D01*
X91349405Y-43765346D01*
X91394852Y-43761050D01*
X91406521Y-43760500D01*
X93824495Y-43760500D01*
X93840505Y-43762267D01*
X93840528Y-43762026D01*
X93848289Y-43762758D01*
X93848296Y-43762760D01*
X93918262Y-43760560D01*
X93922157Y-43760500D01*
X93950925Y-43760500D01*
X93955287Y-43759948D01*
X93966939Y-43759030D01*
X94012569Y-43757597D01*
X94032956Y-43751673D01*
X94051996Y-43747731D01*
X94073058Y-43745071D01*
X94115520Y-43728258D01*
X94126557Y-43724480D01*
X94170398Y-43711744D01*
X94188665Y-43700939D01*
X94206136Y-43692380D01*
X94225871Y-43684568D01*
X94262816Y-43657725D01*
X94272558Y-43651326D01*
X94311865Y-43628081D01*
X94326870Y-43613075D01*
X94341668Y-43600436D01*
X94358837Y-43587963D01*
X94387942Y-43552779D01*
X94395796Y-43544149D01*
X94401411Y-43538534D01*
X94462734Y-43505049D01*
X94532426Y-43510033D01*
X94588359Y-43551905D01*
X94603653Y-43578762D01*
X94632156Y-43647575D01*
X94722320Y-43765079D01*
X94839824Y-43855243D01*
X94976658Y-43911921D01*
X95086622Y-43926399D01*
X95086637Y-43926400D01*
X95186000Y-43926400D01*
X95186000Y-43575900D01*
X95205685Y-43508861D01*
X95258489Y-43463106D01*
X95310000Y-43451900D01*
X95312000Y-43451900D01*
X95379039Y-43471585D01*
X95424794Y-43524389D01*
X95436000Y-43575900D01*
X95436000Y-43926400D01*
X95535363Y-43926400D01*
X95535377Y-43926399D01*
X95645341Y-43911921D01*
X95645342Y-43911921D01*
X95768666Y-43860839D01*
X95816119Y-43851400D01*
X96011000Y-43851400D01*
X96011000Y-43122469D01*
X96020439Y-43075016D01*
X96047009Y-43010872D01*
X96061500Y-42900801D01*
X96061499Y-42702000D01*
X96047009Y-42591928D01*
X96047008Y-42591925D01*
X96044905Y-42584074D01*
X96048207Y-42583189D01*
X96042392Y-42529475D01*
X96045501Y-42518885D01*
X96044905Y-42518726D01*
X96047008Y-42510875D01*
X96047008Y-42510874D01*
X96047009Y-42510872D01*
X96060392Y-42409214D01*
X96088658Y-42345318D01*
X96146983Y-42306847D01*
X96183331Y-42301400D01*
X96338670Y-42301400D01*
X96405709Y-42321085D01*
G37*
%TD.AperFunction*%
%TA.AperFunction,Conductor*%
G36*
X79409666Y-45176414D02*
G01*
X79454014Y-45204915D01*
X79831581Y-45582482D01*
X79865066Y-45643805D01*
X79867900Y-45670163D01*
X79867900Y-46596100D01*
X79848215Y-46663139D01*
X79795411Y-46708894D01*
X79743900Y-46720100D01*
X79631800Y-46720100D01*
X79564761Y-46700415D01*
X79519006Y-46647611D01*
X79507800Y-46596100D01*
X79507800Y-46564400D01*
X78156800Y-46564400D01*
X78089761Y-46544715D01*
X78044006Y-46491911D01*
X78032800Y-46440400D01*
X78032800Y-46188400D01*
X78052485Y-46121361D01*
X78105289Y-46075606D01*
X78156800Y-46064400D01*
X79507799Y-46064400D01*
X79507799Y-46014428D01*
X79507798Y-46014413D01*
X79497305Y-45911702D01*
X79442158Y-45745280D01*
X79442156Y-45745275D01*
X79350115Y-45596054D01*
X79226144Y-45472083D01*
X79226141Y-45472081D01*
X79223139Y-45470229D01*
X79221513Y-45468421D01*
X79220477Y-45467602D01*
X79220617Y-45467424D01*
X79176417Y-45418280D01*
X79165197Y-45349317D01*
X79193043Y-45285236D01*
X79223144Y-45259154D01*
X79226456Y-45257112D01*
X79278653Y-45204914D01*
X79339974Y-45171430D01*
X79409666Y-45176414D01*
G37*
%TD.AperFunction*%
%TA.AperFunction,Conductor*%
G36*
X87880000Y-41474498D02*
G01*
X87772315Y-41425320D01*
X87665763Y-41410000D01*
X87594237Y-41410000D01*
X87487685Y-41425320D01*
X87380000Y-41474498D01*
X87380000Y-39805501D01*
X87487685Y-39854680D01*
X87594237Y-39870000D01*
X87665763Y-39870000D01*
X87772315Y-39854680D01*
X87880000Y-39805501D01*
X87880000Y-41474498D01*
G37*
%TD.AperFunction*%
%TD*%
M02*
