M48
; DRILL file {KiCad 7.0.10-7.0.10~ubuntu22.04.1} date Mon 25 Mar 2024 12:06:17 AM SAST
; FORMAT={-:-/ absolute / inch / decimal}
; #@! TF.CreationDate,2024-03-25T00:06:17+02:00
; #@! TF.GenerationSoftware,Kicad,Pcbnew,7.0.10-7.0.10~ubuntu22.04.1
; #@! TF.FileFunction,Plated,1,2,PTH
FMAT,2
INCH
; #@! TA.AperFunction,Plated,PTH,ViaDrill
T1C0.0118
; #@! TA.AperFunction,Plated,PTH,ViaDrill
T2C0.0157
; #@! TA.AperFunction,Plated,PTH,ComponentDrill
T3C0.0295
; #@! TA.AperFunction,Plated,PTH,ComponentDrill
T4C0.0394
%
G90
G05
T1
X2.991Y-1.786
X3.139Y-1.825
X3.261Y-1.796
X3.33Y-1.795
X3.399Y-1.798
X3.79Y-1.675
X3.836Y-1.537
T2
X3.08Y-1.962
X3.431Y-1.979
X3.783Y-1.602
X3.902Y-1.795
T3
X2.8066Y-1.9695
X2.8854Y-1.9695
T4
X2.95Y-1.55
X2.95Y-1.65
X3.05Y-1.55
X3.05Y-1.65
X3.15Y-1.55
X3.15Y-1.65
X3.25Y-1.55
X3.25Y-1.65
X3.35Y-1.55
X3.35Y-1.65
X3.45Y-1.55
X3.45Y-1.65
X3.55Y-1.55
X3.55Y-1.65
X3.65Y-1.55
X3.65Y-1.65
M30
