%TF.GenerationSoftware,KiCad,Pcbnew,7.0.10-7.0.10~ubuntu22.04.1*%
%TF.CreationDate,2024-03-25T00:06:17+02:00*%
%TF.ProjectId,Power_Sub,506f7765-725f-4537-9562-2e6b69636164,rev?*%
%TF.SameCoordinates,Original*%
%TF.FileFunction,Copper,L2,Bot*%
%TF.FilePolarity,Positive*%
%FSLAX46Y46*%
G04 Gerber Fmt 4.6, Leading zero omitted, Abs format (unit mm)*
G04 Created by KiCad (PCBNEW 7.0.10-7.0.10~ubuntu22.04.1) date 2024-03-25 00:06:17*
%MOMM*%
%LPD*%
G01*
G04 APERTURE LIST*
G04 Aperture macros list*
%AMRoundRect*
0 Rectangle with rounded corners*
0 $1 Rounding radius*
0 $2 $3 $4 $5 $6 $7 $8 $9 X,Y pos of 4 corners*
0 Add a 4 corners polygon primitive as box body*
4,1,4,$2,$3,$4,$5,$6,$7,$8,$9,$2,$3,0*
0 Add four circle primitives for the rounded corners*
1,1,$1+$1,$2,$3*
1,1,$1+$1,$4,$5*
1,1,$1+$1,$6,$7*
1,1,$1+$1,$8,$9*
0 Add four rect primitives between the rounded corners*
20,1,$1+$1,$2,$3,$4,$5,0*
20,1,$1+$1,$4,$5,$6,$7,0*
20,1,$1+$1,$6,$7,$8,$9,0*
20,1,$1+$1,$8,$9,$2,$3,0*%
G04 Aperture macros list end*
%TA.AperFunction,ComponentPad*%
%ADD10RoundRect,0.250000X-0.350000X-0.625000X0.350000X-0.625000X0.350000X0.625000X-0.350000X0.625000X0*%
%TD*%
%TA.AperFunction,ComponentPad*%
%ADD11O,1.200000X1.750000*%
%TD*%
%TA.AperFunction,ComponentPad*%
%ADD12R,1.700000X1.700000*%
%TD*%
%TA.AperFunction,ComponentPad*%
%ADD13O,1.700000X1.700000*%
%TD*%
%TA.AperFunction,ViaPad*%
%ADD14C,0.800000*%
%TD*%
%TA.AperFunction,ViaPad*%
%ADD15C,0.600000*%
%TD*%
%TA.AperFunction,Conductor*%
%ADD16C,0.300000*%
%TD*%
G04 APERTURE END LIST*
D10*
%TO.P,J2,1,Pin_1*%
%TO.N,/BATT*%
X71288400Y-50026400D03*
D11*
%TO.P,J2,2,Pin_2*%
%TO.N,GND*%
X73288400Y-50026400D03*
%TD*%
D12*
%TO.P,J1,1,Pin_1*%
%TO.N,/Motor2_A*%
X92710000Y-41910000D03*
D13*
%TO.P,J1,2,Pin_2*%
%TO.N,/PWM1*%
X92710000Y-39370000D03*
%TO.P,J1,3,Pin_3*%
%TO.N,/Motor2_B*%
X90170000Y-41910000D03*
%TO.P,J1,4,Pin_4*%
%TO.N,/PWM2*%
X90170000Y-39370000D03*
%TO.P,J1,5,Pin_5*%
%TO.N,GND*%
X87630000Y-41910000D03*
%TO.P,J1,6,Pin_6*%
X87630000Y-39370000D03*
%TO.P,J1,7,Pin_7*%
%TO.N,VDC*%
X85090000Y-41910000D03*
%TO.P,J1,8,Pin_8*%
X85090000Y-39370000D03*
%TO.P,J1,9,Pin_9*%
%TO.N,unconnected-(J1-Pin_9-Pad9)*%
X82550000Y-41910000D03*
%TO.P,J1,10,Pin_10*%
%TO.N,VDC*%
X82550000Y-39370000D03*
%TO.P,J1,11,Pin_11*%
%TO.N,+5V*%
X80010000Y-41910000D03*
%TO.P,J1,12,Pin_12*%
X80010000Y-39370000D03*
%TO.P,J1,13,Pin_13*%
%TO.N,/Motor1_A*%
X77470000Y-41910000D03*
%TO.P,J1,14,Pin_14*%
%TO.N,/PWM3*%
X77470000Y-39370000D03*
%TO.P,J1,15,Pin_15*%
%TO.N,/Motor1_B*%
X74930000Y-41910000D03*
%TO.P,J1,16,Pin_16*%
%TO.N,/PWM4*%
X74930000Y-39370000D03*
%TD*%
D14*
%TO.N,VDC*%
X96088200Y-40690800D03*
D15*
%TO.N,GND*%
X97434400Y-39039800D03*
D14*
X87147400Y-50266600D03*
D15*
X96266000Y-42545000D03*
X84582000Y-45593000D03*
X75971400Y-45364400D03*
X82829400Y-45618400D03*
X86334600Y-45669200D03*
X79730600Y-46355000D03*
D14*
%TO.N,/Motor2_A*%
X99110800Y-45593000D03*
%TO.N,/Motor1_A*%
X78232000Y-49834800D03*
%TD*%
D16*
%TO.N,VDC*%
X86334600Y-40665400D02*
X85090000Y-41910000D01*
X96088200Y-40690800D02*
X92456000Y-37058600D01*
X86334600Y-37058600D02*
X86334600Y-40665400D01*
X92456000Y-37058600D02*
X86334600Y-37058600D01*
%TO.N,/Motor2_A*%
X96393000Y-45593000D02*
X92710000Y-41910000D01*
X99110800Y-45593000D02*
X96393000Y-45593000D01*
%TO.N,/Motor1_A*%
X78232000Y-49834800D02*
X77470000Y-49072800D01*
X77470000Y-49072800D02*
X77470000Y-41910000D01*
%TD*%
%TA.AperFunction,Conductor*%
%TO.N,GND*%
G36*
X85864665Y-36388985D02*
G01*
X85910420Y-36441789D01*
X85920364Y-36510947D01*
X85891339Y-36574503D01*
X85887734Y-36578254D01*
X85848896Y-36625200D01*
X85843749Y-36631038D01*
X85804151Y-36673207D01*
X85804149Y-36673210D01*
X85799826Y-36681073D01*
X85786721Y-36700356D01*
X85781004Y-36707267D01*
X85781001Y-36707272D01*
X85756374Y-36759604D01*
X85752840Y-36766539D01*
X85724974Y-36817228D01*
X85724973Y-36817232D01*
X85722741Y-36825924D01*
X85714839Y-36847871D01*
X85711020Y-36855986D01*
X85700186Y-36912780D01*
X85698488Y-36920378D01*
X85684100Y-36976418D01*
X85684100Y-36985389D01*
X85681904Y-37008620D01*
X85680224Y-37017426D01*
X85680224Y-37017430D01*
X85683855Y-37075142D01*
X85684100Y-37082928D01*
X85684100Y-37969447D01*
X85664415Y-38036486D01*
X85611611Y-38082241D01*
X85542453Y-38092185D01*
X85528007Y-38089222D01*
X85325413Y-38034938D01*
X85325403Y-38034936D01*
X85090001Y-38014341D01*
X85089999Y-38014341D01*
X84854596Y-38034936D01*
X84854586Y-38034938D01*
X84626344Y-38096094D01*
X84626335Y-38096098D01*
X84412171Y-38195964D01*
X84412169Y-38195965D01*
X84218597Y-38331505D01*
X84051505Y-38498597D01*
X83921575Y-38684158D01*
X83866998Y-38727783D01*
X83797500Y-38734977D01*
X83735145Y-38703454D01*
X83718425Y-38684158D01*
X83588494Y-38498597D01*
X83421402Y-38331506D01*
X83421395Y-38331501D01*
X83227834Y-38195967D01*
X83227830Y-38195965D01*
X83144098Y-38156920D01*
X83013663Y-38096097D01*
X83013659Y-38096096D01*
X83013655Y-38096094D01*
X82785413Y-38034938D01*
X82785403Y-38034936D01*
X82550001Y-38014341D01*
X82549999Y-38014341D01*
X82314596Y-38034936D01*
X82314586Y-38034938D01*
X82086344Y-38096094D01*
X82086335Y-38096098D01*
X81872171Y-38195964D01*
X81872169Y-38195965D01*
X81678597Y-38331505D01*
X81511505Y-38498597D01*
X81381575Y-38684158D01*
X81326998Y-38727783D01*
X81257500Y-38734977D01*
X81195145Y-38703454D01*
X81178425Y-38684158D01*
X81048494Y-38498597D01*
X80881402Y-38331506D01*
X80881395Y-38331501D01*
X80687834Y-38195967D01*
X80687830Y-38195965D01*
X80604098Y-38156920D01*
X80473663Y-38096097D01*
X80473659Y-38096096D01*
X80473655Y-38096094D01*
X80245413Y-38034938D01*
X80245403Y-38034936D01*
X80010001Y-38014341D01*
X80009999Y-38014341D01*
X79774596Y-38034936D01*
X79774586Y-38034938D01*
X79546344Y-38096094D01*
X79546335Y-38096098D01*
X79332171Y-38195964D01*
X79332169Y-38195965D01*
X79138597Y-38331505D01*
X78971505Y-38498597D01*
X78841575Y-38684158D01*
X78786998Y-38727783D01*
X78717500Y-38734977D01*
X78655145Y-38703454D01*
X78638425Y-38684158D01*
X78508494Y-38498597D01*
X78341402Y-38331506D01*
X78341395Y-38331501D01*
X78147834Y-38195967D01*
X78147830Y-38195965D01*
X78064098Y-38156920D01*
X77933663Y-38096097D01*
X77933659Y-38096096D01*
X77933655Y-38096094D01*
X77705413Y-38034938D01*
X77705403Y-38034936D01*
X77470001Y-38014341D01*
X77469999Y-38014341D01*
X77234596Y-38034936D01*
X77234586Y-38034938D01*
X77006344Y-38096094D01*
X77006335Y-38096098D01*
X76792171Y-38195964D01*
X76792169Y-38195965D01*
X76598597Y-38331505D01*
X76431505Y-38498597D01*
X76301575Y-38684158D01*
X76246998Y-38727783D01*
X76177500Y-38734977D01*
X76115145Y-38703454D01*
X76098425Y-38684158D01*
X75968494Y-38498597D01*
X75801402Y-38331506D01*
X75801395Y-38331501D01*
X75607834Y-38195967D01*
X75607830Y-38195965D01*
X75524098Y-38156920D01*
X75393663Y-38096097D01*
X75393659Y-38096096D01*
X75393655Y-38096094D01*
X75165413Y-38034938D01*
X75165403Y-38034936D01*
X74930001Y-38014341D01*
X74929999Y-38014341D01*
X74694596Y-38034936D01*
X74694586Y-38034938D01*
X74466344Y-38096094D01*
X74466335Y-38096098D01*
X74252171Y-38195964D01*
X74252169Y-38195965D01*
X74058597Y-38331505D01*
X73891505Y-38498597D01*
X73755965Y-38692169D01*
X73755964Y-38692171D01*
X73656098Y-38906335D01*
X73656094Y-38906344D01*
X73594938Y-39134586D01*
X73594936Y-39134596D01*
X73574341Y-39369999D01*
X73574341Y-39370000D01*
X73594936Y-39605403D01*
X73594938Y-39605413D01*
X73656094Y-39833655D01*
X73656096Y-39833659D01*
X73656097Y-39833663D01*
X73690131Y-39906648D01*
X73755965Y-40047830D01*
X73755967Y-40047834D01*
X73864281Y-40202521D01*
X73891504Y-40241400D01*
X73891506Y-40241402D01*
X74058597Y-40408493D01*
X74058603Y-40408498D01*
X74244158Y-40538425D01*
X74287783Y-40593002D01*
X74294977Y-40662500D01*
X74263454Y-40724855D01*
X74244158Y-40741575D01*
X74058597Y-40871505D01*
X73891505Y-41038597D01*
X73755965Y-41232169D01*
X73755964Y-41232171D01*
X73656098Y-41446335D01*
X73656094Y-41446344D01*
X73594938Y-41674586D01*
X73594936Y-41674596D01*
X73574341Y-41909999D01*
X73574341Y-41910000D01*
X73594936Y-42145403D01*
X73594938Y-42145413D01*
X73656094Y-42373655D01*
X73656096Y-42373659D01*
X73656097Y-42373663D01*
X73735801Y-42544588D01*
X73755965Y-42587830D01*
X73755967Y-42587834D01*
X73864281Y-42742521D01*
X73891505Y-42781401D01*
X74058599Y-42948495D01*
X74155384Y-43016265D01*
X74252165Y-43084032D01*
X74252167Y-43084033D01*
X74252170Y-43084035D01*
X74466337Y-43183903D01*
X74694592Y-43245063D01*
X74871034Y-43260500D01*
X74929999Y-43265659D01*
X74930000Y-43265659D01*
X74930001Y-43265659D01*
X74988966Y-43260500D01*
X75165408Y-43245063D01*
X75393663Y-43183903D01*
X75607830Y-43084035D01*
X75801401Y-42948495D01*
X75968495Y-42781401D01*
X76098425Y-42595842D01*
X76153002Y-42552217D01*
X76222500Y-42545023D01*
X76284855Y-42576546D01*
X76301575Y-42595842D01*
X76431501Y-42781396D01*
X76431506Y-42781402D01*
X76598597Y-42948493D01*
X76598603Y-42948498D01*
X76766623Y-43066147D01*
X76810248Y-43120724D01*
X76819500Y-43167722D01*
X76819500Y-48987294D01*
X76817732Y-49003305D01*
X76817974Y-49003328D01*
X76817240Y-49011094D01*
X76819439Y-49081062D01*
X76819500Y-49084957D01*
X76819500Y-49113720D01*
X76819501Y-49113738D01*
X76820053Y-49118111D01*
X76820968Y-49129741D01*
X76822402Y-49175367D01*
X76822403Y-49175370D01*
X76828323Y-49195748D01*
X76832268Y-49214796D01*
X76834928Y-49235854D01*
X76834931Y-49235865D01*
X76851737Y-49278314D01*
X76855520Y-49289363D01*
X76868254Y-49333195D01*
X76868255Y-49333197D01*
X76868256Y-49333198D01*
X76879015Y-49351391D01*
X76879060Y-49351466D01*
X76887617Y-49368934D01*
X76893226Y-49383100D01*
X76895432Y-49388672D01*
X76922266Y-49425606D01*
X76928679Y-49435369D01*
X76951916Y-49474661D01*
X76951922Y-49474668D01*
X76966922Y-49489668D01*
X76979561Y-49504465D01*
X76992037Y-49521637D01*
X76992039Y-49521639D01*
X77027213Y-49550737D01*
X77035854Y-49558600D01*
X77176255Y-49699001D01*
X77297191Y-49819936D01*
X77330676Y-49881259D01*
X77332830Y-49894650D01*
X77346326Y-50023056D01*
X77346327Y-50023059D01*
X77404818Y-50203077D01*
X77404821Y-50203084D01*
X77499467Y-50367016D01*
X77626129Y-50507688D01*
X77779265Y-50618948D01*
X77779270Y-50618951D01*
X77952192Y-50695942D01*
X77952197Y-50695944D01*
X78137354Y-50735300D01*
X78137355Y-50735300D01*
X78326644Y-50735300D01*
X78326646Y-50735300D01*
X78511803Y-50695944D01*
X78684730Y-50618951D01*
X78837871Y-50507688D01*
X78964533Y-50367016D01*
X79059179Y-50203084D01*
X79117674Y-50023056D01*
X79137460Y-49834800D01*
X79117674Y-49646544D01*
X79061827Y-49474665D01*
X79059181Y-49466522D01*
X79059180Y-49466521D01*
X79059179Y-49466516D01*
X78964533Y-49302584D01*
X78837871Y-49161912D01*
X78837870Y-49161911D01*
X78684734Y-49050651D01*
X78684729Y-49050648D01*
X78511807Y-48973657D01*
X78511802Y-48973655D01*
X78366001Y-48942665D01*
X78326646Y-48934300D01*
X78326645Y-48934300D01*
X78302808Y-48934300D01*
X78235769Y-48914615D01*
X78215127Y-48897981D01*
X78156819Y-48839673D01*
X78123334Y-48778350D01*
X78120500Y-48751992D01*
X78120500Y-43167722D01*
X78140185Y-43100683D01*
X78173377Y-43066147D01*
X78224429Y-43030399D01*
X78341401Y-42948495D01*
X78508495Y-42781401D01*
X78638425Y-42595842D01*
X78693002Y-42552217D01*
X78762500Y-42545023D01*
X78824855Y-42576546D01*
X78841575Y-42595842D01*
X78971500Y-42781395D01*
X78971505Y-42781401D01*
X79138599Y-42948495D01*
X79235384Y-43016265D01*
X79332165Y-43084032D01*
X79332167Y-43084033D01*
X79332170Y-43084035D01*
X79546337Y-43183903D01*
X79774592Y-43245063D01*
X79951034Y-43260500D01*
X80009999Y-43265659D01*
X80010000Y-43265659D01*
X80010001Y-43265659D01*
X80068966Y-43260500D01*
X80245408Y-43245063D01*
X80473663Y-43183903D01*
X80687830Y-43084035D01*
X80881401Y-42948495D01*
X81048495Y-42781401D01*
X81178425Y-42595842D01*
X81233002Y-42552217D01*
X81302500Y-42545023D01*
X81364855Y-42576546D01*
X81381575Y-42595842D01*
X81511500Y-42781395D01*
X81511505Y-42781401D01*
X81678599Y-42948495D01*
X81775384Y-43016265D01*
X81872165Y-43084032D01*
X81872167Y-43084033D01*
X81872170Y-43084035D01*
X82086337Y-43183903D01*
X82314592Y-43245063D01*
X82491034Y-43260500D01*
X82549999Y-43265659D01*
X82550000Y-43265659D01*
X82550001Y-43265659D01*
X82608966Y-43260500D01*
X82785408Y-43245063D01*
X83013663Y-43183903D01*
X83227830Y-43084035D01*
X83421401Y-42948495D01*
X83588495Y-42781401D01*
X83718425Y-42595842D01*
X83773002Y-42552217D01*
X83842500Y-42545023D01*
X83904855Y-42576546D01*
X83921575Y-42595842D01*
X84051500Y-42781395D01*
X84051505Y-42781401D01*
X84218599Y-42948495D01*
X84315384Y-43016265D01*
X84412165Y-43084032D01*
X84412167Y-43084033D01*
X84412170Y-43084035D01*
X84626337Y-43183903D01*
X84854592Y-43245063D01*
X85031034Y-43260500D01*
X85089999Y-43265659D01*
X85090000Y-43265659D01*
X85090001Y-43265659D01*
X85148966Y-43260500D01*
X85325408Y-43245063D01*
X85553663Y-43183903D01*
X85767830Y-43084035D01*
X85961401Y-42948495D01*
X86128495Y-42781401D01*
X86258730Y-42595405D01*
X86313307Y-42551781D01*
X86382805Y-42544587D01*
X86445160Y-42576110D01*
X86461879Y-42595405D01*
X86591890Y-42781078D01*
X86758917Y-42948105D01*
X86952421Y-43083600D01*
X87166507Y-43183429D01*
X87166516Y-43183433D01*
X87380000Y-43240634D01*
X87380000Y-42345501D01*
X87487685Y-42394680D01*
X87594237Y-42410000D01*
X87665763Y-42410000D01*
X87772315Y-42394680D01*
X87880000Y-42345501D01*
X87880000Y-43240634D01*
X88093483Y-43183433D01*
X88093492Y-43183429D01*
X88307578Y-43083600D01*
X88501082Y-42948105D01*
X88668105Y-42781082D01*
X88798119Y-42595405D01*
X88852696Y-42551781D01*
X88922195Y-42544588D01*
X88984549Y-42576110D01*
X89001269Y-42595405D01*
X89131505Y-42781401D01*
X89298599Y-42948495D01*
X89395384Y-43016265D01*
X89492165Y-43084032D01*
X89492167Y-43084033D01*
X89492170Y-43084035D01*
X89706337Y-43183903D01*
X89934592Y-43245063D01*
X90111034Y-43260500D01*
X90169999Y-43265659D01*
X90170000Y-43265659D01*
X90170001Y-43265659D01*
X90228966Y-43260500D01*
X90405408Y-43245063D01*
X90633663Y-43183903D01*
X90847830Y-43084035D01*
X91041401Y-42948495D01*
X91163329Y-42826566D01*
X91224648Y-42793084D01*
X91294340Y-42798068D01*
X91350274Y-42839939D01*
X91367189Y-42870917D01*
X91416202Y-43002328D01*
X91416206Y-43002335D01*
X91502452Y-43117544D01*
X91502455Y-43117547D01*
X91617664Y-43203793D01*
X91617671Y-43203797D01*
X91752517Y-43254091D01*
X91752516Y-43254091D01*
X91759444Y-43254835D01*
X91812127Y-43260500D01*
X93089191Y-43260499D01*
X93156230Y-43280184D01*
X93176872Y-43296818D01*
X95872564Y-45992510D01*
X95882635Y-46005080D01*
X95882822Y-46004926D01*
X95887795Y-46010937D01*
X95938832Y-46058864D01*
X95941629Y-46061575D01*
X95961968Y-46081914D01*
X95965451Y-46084616D01*
X95974327Y-46092197D01*
X95986846Y-46103953D01*
X96007607Y-46123448D01*
X96026198Y-46133668D01*
X96042463Y-46144352D01*
X96059234Y-46157361D01*
X96059237Y-46157363D01*
X96101144Y-46175497D01*
X96111618Y-46180628D01*
X96151632Y-46202627D01*
X96172193Y-46207905D01*
X96190597Y-46214207D01*
X96210074Y-46222636D01*
X96255178Y-46229779D01*
X96266597Y-46232144D01*
X96310823Y-46243500D01*
X96332045Y-46243500D01*
X96351442Y-46245026D01*
X96372405Y-46248347D01*
X96417863Y-46244049D01*
X96429531Y-46243500D01*
X98433825Y-46243500D01*
X98500864Y-46263185D01*
X98506710Y-46267182D01*
X98658065Y-46377148D01*
X98658070Y-46377151D01*
X98830992Y-46454142D01*
X98830997Y-46454144D01*
X99016154Y-46493500D01*
X99016155Y-46493500D01*
X99205444Y-46493500D01*
X99205446Y-46493500D01*
X99390603Y-46454144D01*
X99563530Y-46377151D01*
X99716671Y-46265888D01*
X99843333Y-46125216D01*
X99937979Y-45961284D01*
X99996474Y-45781256D01*
X99996475Y-45781243D01*
X99996981Y-45778868D01*
X99997656Y-45777616D01*
X99998482Y-45775076D01*
X99998946Y-45775226D01*
X100030169Y-45717384D01*
X100091329Y-45683603D01*
X100161044Y-45688250D01*
X100217179Y-45729850D01*
X100232817Y-45757146D01*
X100240314Y-45775226D01*
X100617582Y-46685108D01*
X100628844Y-46712268D01*
X100638300Y-46759762D01*
X100638300Y-57995275D01*
X100618615Y-58062314D01*
X100565811Y-58108069D01*
X100514491Y-58119275D01*
X68319691Y-58168921D01*
X68252621Y-58149340D01*
X68206785Y-58096606D01*
X68195500Y-58044921D01*
X68195500Y-54866150D01*
X77651955Y-54866150D01*
X77672459Y-55035019D01*
X77672460Y-55035024D01*
X77732782Y-55194081D01*
X77795075Y-55284327D01*
X77829417Y-55334079D01*
X77935105Y-55427710D01*
X77956750Y-55446886D01*
X78107373Y-55525939D01*
X78107375Y-55525940D01*
X78272544Y-55566650D01*
X78442656Y-55566650D01*
X78607825Y-55525940D01*
X78687292Y-55484231D01*
X78758449Y-55446886D01*
X78758450Y-55446884D01*
X78758452Y-55446884D01*
X78885783Y-55334079D01*
X78982418Y-55194080D01*
X79042740Y-55035022D01*
X79063245Y-54866150D01*
X80651955Y-54866150D01*
X80672459Y-55035019D01*
X80672460Y-55035024D01*
X80732782Y-55194081D01*
X80795075Y-55284327D01*
X80829417Y-55334079D01*
X80935105Y-55427710D01*
X80956750Y-55446886D01*
X81107373Y-55525939D01*
X81107375Y-55525940D01*
X81272544Y-55566650D01*
X81442656Y-55566650D01*
X81607825Y-55525940D01*
X81687292Y-55484231D01*
X81758449Y-55446886D01*
X81758450Y-55446884D01*
X81758452Y-55446884D01*
X81885783Y-55334079D01*
X81982418Y-55194080D01*
X82042740Y-55035022D01*
X82063245Y-54866150D01*
X82042740Y-54697278D01*
X82033021Y-54671652D01*
X81982417Y-54538218D01*
X81948076Y-54488468D01*
X81885783Y-54398221D01*
X81758452Y-54285416D01*
X81758449Y-54285413D01*
X81607826Y-54206360D01*
X81442656Y-54165650D01*
X81272544Y-54165650D01*
X81107373Y-54206360D01*
X80956750Y-54285413D01*
X80829416Y-54398222D01*
X80732782Y-54538218D01*
X80672460Y-54697275D01*
X80672459Y-54697280D01*
X80651955Y-54866150D01*
X79063245Y-54866150D01*
X79042740Y-54697278D01*
X79033021Y-54671652D01*
X78982417Y-54538218D01*
X78948076Y-54488468D01*
X78885783Y-54398221D01*
X78758452Y-54285416D01*
X78758449Y-54285413D01*
X78607826Y-54206360D01*
X78442656Y-54165650D01*
X78272544Y-54165650D01*
X78107373Y-54206360D01*
X77956750Y-54285413D01*
X77829416Y-54398222D01*
X77732782Y-54538218D01*
X77672460Y-54697275D01*
X77672459Y-54697280D01*
X77651955Y-54866150D01*
X68195500Y-54866150D01*
X68195500Y-50701401D01*
X70187900Y-50701401D01*
X70187901Y-50701418D01*
X70198400Y-50804196D01*
X70198401Y-50804199D01*
X70253585Y-50970731D01*
X70253587Y-50970736D01*
X70270564Y-50998260D01*
X70345688Y-51120056D01*
X70469744Y-51244112D01*
X70619066Y-51336214D01*
X70785603Y-51391399D01*
X70888391Y-51401900D01*
X71688408Y-51401899D01*
X71688416Y-51401898D01*
X71688419Y-51401898D01*
X71744702Y-51396148D01*
X71791197Y-51391399D01*
X71957734Y-51336214D01*
X72107056Y-51244112D01*
X72231112Y-51120056D01*
X72270494Y-51056206D01*
X72322440Y-51009483D01*
X72391403Y-50998260D01*
X72455485Y-51026103D01*
X72473502Y-51044651D01*
X72488672Y-51063941D01*
X72647430Y-51201505D01*
X72647441Y-51201514D01*
X72829360Y-51306544D01*
X72829367Y-51306547D01*
X73027887Y-51375256D01*
X73038400Y-51376767D01*
X73038400Y-50307017D01*
X73107452Y-50360763D01*
X73225824Y-50401400D01*
X73319473Y-50401400D01*
X73411846Y-50385986D01*
X73521914Y-50326419D01*
X73538400Y-50308510D01*
X73538400Y-51372657D01*
X73649809Y-51345629D01*
X73840907Y-51258359D01*
X74012019Y-51136510D01*
X74012025Y-51136504D01*
X74156992Y-50984467D01*
X74270566Y-50807742D01*
X74348644Y-50612714D01*
X74388400Y-50406437D01*
X74388400Y-50276400D01*
X73567960Y-50276400D01*
X73606678Y-50234341D01*
X73656951Y-50119730D01*
X73667286Y-49995005D01*
X73636563Y-49873681D01*
X73573006Y-49776400D01*
X74388400Y-49776400D01*
X74388400Y-49699001D01*
X74373434Y-49542277D01*
X74373433Y-49542273D01*
X74314250Y-49340713D01*
X74217986Y-49153985D01*
X74088131Y-48988862D01*
X74088128Y-48988859D01*
X73929369Y-48851294D01*
X73929358Y-48851285D01*
X73747439Y-48746255D01*
X73747432Y-48746252D01*
X73548916Y-48677544D01*
X73538400Y-48676032D01*
X73538400Y-49745782D01*
X73469348Y-49692037D01*
X73350976Y-49651400D01*
X73257327Y-49651400D01*
X73164954Y-49666814D01*
X73054886Y-49726381D01*
X73038400Y-49744289D01*
X73038400Y-48680140D01*
X73038399Y-48680140D01*
X72926994Y-48707168D01*
X72926982Y-48707172D01*
X72735897Y-48794437D01*
X72735896Y-48794438D01*
X72564780Y-48916289D01*
X72564774Y-48916295D01*
X72466920Y-49018922D01*
X72406411Y-49053857D01*
X72336620Y-49050532D01*
X72279706Y-49010004D01*
X72271638Y-48998448D01*
X72265725Y-48988862D01*
X72231112Y-48932744D01*
X72107056Y-48808688D01*
X71957734Y-48716586D01*
X71791197Y-48661401D01*
X71791195Y-48661400D01*
X71688410Y-48650900D01*
X70888398Y-48650900D01*
X70888380Y-48650901D01*
X70785603Y-48661400D01*
X70785600Y-48661401D01*
X70619068Y-48716585D01*
X70619063Y-48716587D01*
X70469742Y-48808689D01*
X70345689Y-48932742D01*
X70253587Y-49082063D01*
X70253585Y-49082068D01*
X70252628Y-49084957D01*
X70198401Y-49248603D01*
X70198401Y-49248604D01*
X70198400Y-49248604D01*
X70187900Y-49351383D01*
X70187900Y-50701401D01*
X68195500Y-50701401D01*
X68195500Y-47412048D01*
X68215185Y-47345009D01*
X68247732Y-47310928D01*
X71235294Y-45190722D01*
X71238092Y-45188795D01*
X71275201Y-45164001D01*
X71285348Y-45148814D01*
X71298325Y-45132538D01*
X71310873Y-45119265D01*
X71313585Y-45112156D01*
X71326341Y-45087461D01*
X71330566Y-45081140D01*
X71334127Y-45063233D01*
X71339891Y-45043223D01*
X71346404Y-45026159D01*
X71345149Y-44981589D01*
X71345100Y-44978098D01*
X71345100Y-38167577D01*
X71364785Y-38100538D01*
X71387129Y-38074535D01*
X73287665Y-36400255D01*
X73350981Y-36370711D01*
X73369633Y-36369300D01*
X85797626Y-36369300D01*
X85864665Y-36388985D01*
G37*
%TD.AperFunction*%
%TA.AperFunction,Conductor*%
G36*
X97666931Y-36388985D02*
G01*
X97668930Y-36390296D01*
X99719744Y-37765017D01*
X99764469Y-37818696D01*
X99774700Y-37868017D01*
X99774700Y-44565582D01*
X99772326Y-44589727D01*
X99769791Y-44602491D01*
X99769791Y-44602492D01*
X99779633Y-44651874D01*
X99779630Y-44651874D01*
X99779641Y-44651917D01*
X99790830Y-44708168D01*
X99784603Y-44777759D01*
X99741740Y-44832937D01*
X99675850Y-44856181D01*
X99607853Y-44840113D01*
X99596329Y-44832678D01*
X99563533Y-44808850D01*
X99563529Y-44808848D01*
X99390607Y-44731857D01*
X99390602Y-44731855D01*
X99241390Y-44700140D01*
X99205446Y-44692500D01*
X99016154Y-44692500D01*
X98983697Y-44699398D01*
X98830997Y-44731855D01*
X98830992Y-44731857D01*
X98658070Y-44808848D01*
X98658065Y-44808851D01*
X98506710Y-44918818D01*
X98440904Y-44942298D01*
X98433825Y-44942500D01*
X96713808Y-44942500D01*
X96646769Y-44922815D01*
X96626127Y-44906181D01*
X94096818Y-42376872D01*
X94063333Y-42315549D01*
X94060499Y-42289191D01*
X94060499Y-41012129D01*
X94060498Y-41012123D01*
X94054091Y-40952516D01*
X94003797Y-40817671D01*
X94003793Y-40817664D01*
X93917547Y-40702455D01*
X93917544Y-40702452D01*
X93802335Y-40616206D01*
X93802328Y-40616202D01*
X93670917Y-40567189D01*
X93614983Y-40525318D01*
X93590566Y-40459853D01*
X93605418Y-40391580D01*
X93626563Y-40363332D01*
X93748495Y-40241401D01*
X93884035Y-40047830D01*
X93983903Y-39833663D01*
X93983905Y-39833653D01*
X93983907Y-39833650D01*
X93997463Y-39783055D01*
X94033826Y-39723394D01*
X94096672Y-39692863D01*
X94166048Y-39701157D01*
X94204919Y-39727465D01*
X95153391Y-40675937D01*
X95186876Y-40737260D01*
X95189030Y-40750651D01*
X95202526Y-40879056D01*
X95202527Y-40879059D01*
X95261018Y-41059077D01*
X95261021Y-41059084D01*
X95355667Y-41223016D01*
X95402845Y-41275412D01*
X95482329Y-41363688D01*
X95635465Y-41474948D01*
X95635470Y-41474951D01*
X95808392Y-41551942D01*
X95808397Y-41551944D01*
X95993554Y-41591300D01*
X95993555Y-41591300D01*
X96182844Y-41591300D01*
X96182846Y-41591300D01*
X96368003Y-41551944D01*
X96540930Y-41474951D01*
X96694071Y-41363688D01*
X96820733Y-41223016D01*
X96915379Y-41059084D01*
X96973874Y-40879056D01*
X96993660Y-40690800D01*
X96973874Y-40502544D01*
X96915379Y-40322516D01*
X96820733Y-40158584D01*
X96694071Y-40017912D01*
X96694070Y-40017911D01*
X96540934Y-39906651D01*
X96540929Y-39906648D01*
X96368007Y-39829657D01*
X96368002Y-39829655D01*
X96204732Y-39794952D01*
X96182846Y-39790300D01*
X96182845Y-39790300D01*
X96159008Y-39790300D01*
X96091969Y-39770615D01*
X96071327Y-39753981D01*
X92976434Y-36659088D01*
X92966361Y-36646514D01*
X92966174Y-36646670D01*
X92961198Y-36640654D01*
X92910167Y-36592734D01*
X92907369Y-36590023D01*
X92898327Y-36580981D01*
X92864842Y-36519658D01*
X92869826Y-36449966D01*
X92911698Y-36394033D01*
X92977162Y-36369616D01*
X92986008Y-36369300D01*
X97599892Y-36369300D01*
X97666931Y-36388985D01*
G37*
%TD.AperFunction*%
%TA.AperFunction,Conductor*%
G36*
X87880000Y-41474498D02*
G01*
X87772315Y-41425320D01*
X87665763Y-41410000D01*
X87594237Y-41410000D01*
X87487685Y-41425320D01*
X87380000Y-41474498D01*
X87380000Y-39805501D01*
X87487685Y-39854680D01*
X87594237Y-39870000D01*
X87665763Y-39870000D01*
X87772315Y-39854680D01*
X87880000Y-39805501D01*
X87880000Y-41474498D01*
G37*
%TD.AperFunction*%
%TA.AperFunction,Conductor*%
G36*
X92202231Y-37728785D02*
G01*
X92222873Y-37745419D01*
X92352534Y-37875080D01*
X92386019Y-37936403D01*
X92381035Y-38006095D01*
X92339163Y-38062028D01*
X92296947Y-38082536D01*
X92246341Y-38096095D01*
X92246335Y-38096098D01*
X92032171Y-38195964D01*
X92032169Y-38195965D01*
X91838597Y-38331505D01*
X91671505Y-38498597D01*
X91541575Y-38684158D01*
X91486998Y-38727783D01*
X91417500Y-38734977D01*
X91355145Y-38703454D01*
X91338425Y-38684158D01*
X91208494Y-38498597D01*
X91041402Y-38331506D01*
X91041395Y-38331501D01*
X90847834Y-38195967D01*
X90847830Y-38195965D01*
X90764098Y-38156920D01*
X90633663Y-38096097D01*
X90633659Y-38096096D01*
X90633655Y-38096094D01*
X90405413Y-38034938D01*
X90405403Y-38034936D01*
X90170001Y-38014341D01*
X90169999Y-38014341D01*
X89934596Y-38034936D01*
X89934586Y-38034938D01*
X89706344Y-38096094D01*
X89706335Y-38096098D01*
X89492171Y-38195964D01*
X89492169Y-38195965D01*
X89298597Y-38331505D01*
X89131508Y-38498594D01*
X89001269Y-38684595D01*
X88946692Y-38728219D01*
X88877193Y-38735412D01*
X88814839Y-38703890D01*
X88798119Y-38684594D01*
X88668113Y-38498926D01*
X88668108Y-38498920D01*
X88501082Y-38331894D01*
X88307578Y-38196399D01*
X88093492Y-38096570D01*
X88093486Y-38096567D01*
X87880000Y-38039364D01*
X87880000Y-38934498D01*
X87772315Y-38885320D01*
X87665763Y-38870000D01*
X87594237Y-38870000D01*
X87487685Y-38885320D01*
X87380000Y-38934498D01*
X87380000Y-38039364D01*
X87379999Y-38039364D01*
X87166513Y-38096567D01*
X87166506Y-38096570D01*
X87161499Y-38098905D01*
X87092421Y-38109393D01*
X87028639Y-38080870D01*
X86990402Y-38022392D01*
X86985100Y-37986520D01*
X86985100Y-37833100D01*
X87004785Y-37766061D01*
X87057589Y-37720306D01*
X87109100Y-37709100D01*
X92135192Y-37709100D01*
X92202231Y-37728785D01*
G37*
%TD.AperFunction*%
%TD*%
M02*
