%TF.GenerationSoftware,KiCad,Pcbnew,7.0.10-7.0.10~ubuntu22.04.1*%
%TF.CreationDate,2024-03-25T00:06:17+02:00*%
%TF.ProjectId,Power_Sub,506f7765-725f-4537-9562-2e6b69636164,rev?*%
%TF.SameCoordinates,Original*%
%TF.FileFunction,Paste,Top*%
%TF.FilePolarity,Positive*%
%FSLAX46Y46*%
G04 Gerber Fmt 4.6, Leading zero omitted, Abs format (unit mm)*
G04 Created by KiCad (PCBNEW 7.0.10-7.0.10~ubuntu22.04.1) date 2024-03-25 00:06:17*
%MOMM*%
%LPD*%
G01*
G04 APERTURE LIST*
G04 Aperture macros list*
%AMRoundRect*
0 Rectangle with rounded corners*
0 $1 Rounding radius*
0 $2 $3 $4 $5 $6 $7 $8 $9 X,Y pos of 4 corners*
0 Add a 4 corners polygon primitive as box body*
4,1,4,$2,$3,$4,$5,$6,$7,$8,$9,$2,$3,0*
0 Add four circle primitives for the rounded corners*
1,1,$1+$1,$2,$3*
1,1,$1+$1,$4,$5*
1,1,$1+$1,$6,$7*
1,1,$1+$1,$8,$9*
0 Add four rect primitives between the rounded corners*
20,1,$1+$1,$2,$3,$4,$5,0*
20,1,$1+$1,$4,$5,$6,$7,0*
20,1,$1+$1,$6,$7,$8,$9,0*
20,1,$1+$1,$8,$9,$2,$3,0*%
G04 Aperture macros list end*
%ADD10C,0.010000*%
%ADD11RoundRect,0.243750X0.243750X0.456250X-0.243750X0.456250X-0.243750X-0.456250X0.243750X-0.456250X0*%
%ADD12R,0.650000X0.750000*%
%ADD13RoundRect,0.062500X-0.062500X0.187500X-0.062500X-0.187500X0.062500X-0.187500X0.062500X0.187500X0*%
%ADD14R,0.750000X0.650000*%
%ADD15RoundRect,0.062500X-0.187500X-0.062500X0.187500X-0.062500X0.187500X0.062500X-0.187500X0.062500X0*%
%ADD16RoundRect,0.250000X-0.475000X0.250000X-0.475000X-0.250000X0.475000X-0.250000X0.475000X0.250000X0*%
%ADD17R,0.900000X1.400000*%
%ADD18R,0.750000X0.850000*%
%ADD19RoundRect,0.042000X-0.943000X-0.258000X0.943000X-0.258000X0.943000X0.258000X-0.943000X0.258000X0*%
%ADD20RoundRect,0.250000X-0.250000X-0.475000X0.250000X-0.475000X0.250000X0.475000X-0.250000X0.475000X0*%
%ADD21RoundRect,0.250000X0.450000X-0.262500X0.450000X0.262500X-0.450000X0.262500X-0.450000X-0.262500X0*%
%ADD22RoundRect,0.250000X0.250000X0.475000X-0.250000X0.475000X-0.250000X-0.475000X0.250000X-0.475000X0*%
G04 APERTURE END LIST*
%TO.C,U3*%
D10*
X90304800Y-50451600D02*
X89014800Y-50451600D01*
X89014800Y-48811600D01*
X90304800Y-48811600D01*
X90304800Y-50451600D01*
G36*
X90304800Y-50451600D02*
G01*
X89014800Y-50451600D01*
X89014800Y-48811600D01*
X90304800Y-48811600D01*
X90304800Y-50451600D01*
G37*
%TD*%
D11*
%TO.C,D2*%
X96289100Y-45770800D03*
X94414100Y-45770800D03*
%TD*%
D12*
%TO.C,U2*%
X76350000Y-45400000D03*
X75550000Y-45400000D03*
D13*
X76700000Y-44450000D03*
X76200000Y-44450000D03*
X75700000Y-44450000D03*
X75200000Y-44450000D03*
X75200000Y-46350000D03*
X75700000Y-46350000D03*
X76200000Y-46350000D03*
X76700000Y-46350000D03*
%TD*%
D14*
%TO.C,U1*%
X96261000Y-42151400D03*
X96261000Y-42951400D03*
D15*
X95311000Y-41801400D03*
X95311000Y-42301400D03*
X95311000Y-42801400D03*
X95311000Y-43301400D03*
X97211000Y-43301400D03*
X97211000Y-42801400D03*
X97211000Y-42301400D03*
X97211000Y-41801400D03*
%TD*%
D16*
%TO.C,C1*%
X78282800Y-44414400D03*
X78282800Y-46314400D03*
%TD*%
D17*
%TO.C,SW1*%
X77607600Y-52824150D03*
X80607600Y-52824150D03*
X82107600Y-52824150D03*
D18*
X76482600Y-53791150D03*
X76482600Y-55941150D03*
X83232600Y-53791150D03*
X83232600Y-55916150D03*
%TD*%
D19*
%TO.C,U3*%
X87184800Y-47726600D03*
X87184800Y-48996600D03*
X87184800Y-50266600D03*
X87184800Y-51536600D03*
X92134800Y-51536600D03*
X92134800Y-50266600D03*
X92134800Y-48996600D03*
X92134800Y-47726600D03*
%TD*%
D20*
%TO.C,C2*%
X95631000Y-39141400D03*
X97531000Y-39141400D03*
%TD*%
D21*
%TO.C,R1*%
X84579800Y-49274100D03*
X84579800Y-47449100D03*
%TD*%
D22*
%TO.C,C4*%
X90561200Y-45821600D03*
X88661200Y-45821600D03*
%TD*%
D16*
%TO.C,C3*%
X94488000Y-51526400D03*
X94488000Y-53426400D03*
%TD*%
D21*
%TO.C,R3*%
X96469200Y-52068100D03*
X96469200Y-50243100D03*
%TD*%
D11*
%TO.C,D1*%
X96289100Y-47752000D03*
X94414100Y-47752000D03*
%TD*%
D21*
%TO.C,R2*%
X98552000Y-52017300D03*
X98552000Y-50192300D03*
%TD*%
M02*
