%TF.GenerationSoftware,KiCad,Pcbnew,7.0.10-7.0.10~ubuntu22.04.1*%
%TF.CreationDate,2024-03-25T00:06:17+02:00*%
%TF.ProjectId,Power_Sub,506f7765-725f-4537-9562-2e6b69636164,rev?*%
%TF.SameCoordinates,Original*%
%TF.FileFunction,Soldermask,Top*%
%TF.FilePolarity,Negative*%
%FSLAX46Y46*%
G04 Gerber Fmt 4.6, Leading zero omitted, Abs format (unit mm)*
G04 Created by KiCad (PCBNEW 7.0.10-7.0.10~ubuntu22.04.1) date 2024-03-25 00:06:17*
%MOMM*%
%LPD*%
G01*
G04 APERTURE LIST*
G04 Aperture macros list*
%AMRoundRect*
0 Rectangle with rounded corners*
0 $1 Rounding radius*
0 $2 $3 $4 $5 $6 $7 $8 $9 X,Y pos of 4 corners*
0 Add a 4 corners polygon primitive as box body*
4,1,4,$2,$3,$4,$5,$6,$7,$8,$9,$2,$3,0*
0 Add four circle primitives for the rounded corners*
1,1,$1+$1,$2,$3*
1,1,$1+$1,$4,$5*
1,1,$1+$1,$6,$7*
1,1,$1+$1,$8,$9*
0 Add four rect primitives between the rounded corners*
20,1,$1+$1,$2,$3,$4,$5,0*
20,1,$1+$1,$4,$5,$6,$7,0*
20,1,$1+$1,$6,$7,$8,$9,0*
20,1,$1+$1,$8,$9,$2,$3,0*%
G04 Aperture macros list end*
%ADD10RoundRect,0.243750X0.243750X0.456250X-0.243750X0.456250X-0.243750X-0.456250X0.243750X-0.456250X0*%
%ADD11RoundRect,0.062500X-0.062500X0.187500X-0.062500X-0.187500X0.062500X-0.187500X0.062500X0.187500X0*%
%ADD12R,1.600000X0.900000*%
%ADD13RoundRect,0.062500X-0.187500X-0.062500X0.187500X-0.062500X0.187500X0.062500X-0.187500X0.062500X0*%
%ADD14R,0.900000X1.600000*%
%ADD15RoundRect,0.250000X-0.475000X0.250000X-0.475000X-0.250000X0.475000X-0.250000X0.475000X0.250000X0*%
%ADD16RoundRect,0.250000X-0.350000X-0.625000X0.350000X-0.625000X0.350000X0.625000X-0.350000X0.625000X0*%
%ADD17O,1.200000X1.750000*%
%ADD18R,0.900000X1.400000*%
%ADD19R,0.750000X0.850000*%
%ADD20RoundRect,0.056280X-1.030720X-0.345720X1.030720X-0.345720X1.030720X0.345720X-1.030720X0.345720X0*%
%ADD21RoundRect,0.102000X-1.206500X-1.651000X1.206500X-1.651000X1.206500X1.651000X-1.206500X1.651000X0*%
%ADD22C,1.000000*%
%ADD23RoundRect,0.250000X-0.250000X-0.475000X0.250000X-0.475000X0.250000X0.475000X-0.250000X0.475000X0*%
%ADD24RoundRect,0.250000X0.450000X-0.262500X0.450000X0.262500X-0.450000X0.262500X-0.450000X-0.262500X0*%
%ADD25RoundRect,0.250000X0.250000X0.475000X-0.250000X0.475000X-0.250000X-0.475000X0.250000X-0.475000X0*%
%ADD26R,1.700000X1.700000*%
%ADD27O,1.700000X1.700000*%
G04 APERTURE END LIST*
D10*
%TO.C,D2*%
X96289100Y-45770800D03*
X94414100Y-45770800D03*
%TD*%
D11*
%TO.C,U2*%
X76700000Y-44450000D03*
X76200000Y-44450000D03*
X75700000Y-44450000D03*
X75200000Y-44450000D03*
X75200000Y-46350000D03*
X75700000Y-46350000D03*
X76200000Y-46350000D03*
X76700000Y-46350000D03*
D12*
X75950000Y-45400000D03*
%TD*%
D13*
%TO.C,U1*%
X95311000Y-41801400D03*
X95311000Y-42301400D03*
X95311000Y-42801400D03*
X95311000Y-43301400D03*
X97211000Y-43301400D03*
X97211000Y-42801400D03*
X97211000Y-42301400D03*
X97211000Y-41801400D03*
D14*
X96261000Y-42551400D03*
%TD*%
D15*
%TO.C,C1*%
X78282800Y-44414400D03*
X78282800Y-46314400D03*
%TD*%
D16*
%TO.C,J2*%
X71288400Y-50026400D03*
D17*
X73288400Y-50026400D03*
%TD*%
D18*
%TO.C,SW1*%
X77607600Y-52824150D03*
X80607600Y-52824150D03*
X82107600Y-52824150D03*
D19*
X76482600Y-53791150D03*
X76482600Y-55941150D03*
X83232600Y-53791150D03*
X83232600Y-55916150D03*
%TD*%
D20*
%TO.C,U3*%
X87184800Y-47726600D03*
X87184800Y-48996600D03*
X87184800Y-50266600D03*
X87184800Y-51536600D03*
X92134800Y-51536600D03*
X92134800Y-50266600D03*
X92134800Y-48996600D03*
X92134800Y-47726600D03*
D21*
X89659800Y-49631600D03*
%TD*%
D22*
%TO.C,Motor1A*%
X78232000Y-49809400D03*
%TD*%
D23*
%TO.C,C2*%
X95631000Y-39141400D03*
X97531000Y-39141400D03*
%TD*%
D24*
%TO.C,R1*%
X84579800Y-49274100D03*
X84579800Y-47449100D03*
%TD*%
D25*
%TO.C,C4*%
X90561200Y-45821600D03*
X88661200Y-45821600D03*
%TD*%
D15*
%TO.C,C3*%
X94488000Y-51526400D03*
X94488000Y-53426400D03*
%TD*%
D22*
%TO.C,Ground*%
X71272400Y-47040800D03*
%TD*%
D24*
%TO.C,R3*%
X96469200Y-52068100D03*
X96469200Y-50243100D03*
%TD*%
D10*
%TO.C,D1*%
X96289100Y-47752000D03*
X94414100Y-47752000D03*
%TD*%
D22*
%TO.C,VBat1*%
X87350600Y-56565800D03*
%TD*%
D24*
%TO.C,R2*%
X98552000Y-52017300D03*
X98552000Y-50192300D03*
%TD*%
D22*
%TO.C,Motor2A*%
X99085400Y-45593000D03*
%TD*%
D26*
%TO.C,J1*%
X92710000Y-41910000D03*
D27*
X92710000Y-39370000D03*
X90170000Y-41910000D03*
X90170000Y-39370000D03*
X87630000Y-41910000D03*
X87630000Y-39370000D03*
X85090000Y-41910000D03*
X85090000Y-39370000D03*
X82550000Y-41910000D03*
X82550000Y-39370000D03*
X80010000Y-41910000D03*
X80010000Y-39370000D03*
X77470000Y-41910000D03*
X77470000Y-39370000D03*
X74930000Y-41910000D03*
X74930000Y-39370000D03*
%TD*%
M02*
