%TF.GenerationSoftware,KiCad,Pcbnew,7.0.10-7.0.10~ubuntu22.04.1*%
%TF.CreationDate,2024-03-25T00:06:17+02:00*%
%TF.ProjectId,Power_Sub,506f7765-725f-4537-9562-2e6b69636164,rev?*%
%TF.SameCoordinates,Original*%
%TF.FileFunction,Legend,Top*%
%TF.FilePolarity,Positive*%
%FSLAX46Y46*%
G04 Gerber Fmt 4.6, Leading zero omitted, Abs format (unit mm)*
G04 Created by KiCad (PCBNEW 7.0.10-7.0.10~ubuntu22.04.1) date 2024-03-25 00:06:17*
%MOMM*%
%LPD*%
G01*
G04 APERTURE LIST*
G04 Aperture macros list*
%AMRoundRect*
0 Rectangle with rounded corners*
0 $1 Rounding radius*
0 $2 $3 $4 $5 $6 $7 $8 $9 X,Y pos of 4 corners*
0 Add a 4 corners polygon primitive as box body*
4,1,4,$2,$3,$4,$5,$6,$7,$8,$9,$2,$3,0*
0 Add four circle primitives for the rounded corners*
1,1,$1+$1,$2,$3*
1,1,$1+$1,$4,$5*
1,1,$1+$1,$6,$7*
1,1,$1+$1,$8,$9*
0 Add four rect primitives between the rounded corners*
20,1,$1+$1,$2,$3,$4,$5,0*
20,1,$1+$1,$4,$5,$6,$7,0*
20,1,$1+$1,$6,$7,$8,$9,0*
20,1,$1+$1,$8,$9,$2,$3,0*%
G04 Aperture macros list end*
%ADD10C,0.100000*%
%ADD11C,0.050000*%
%ADD12C,0.150000*%
%ADD13C,0.120000*%
%ADD14C,0.127000*%
%ADD15C,0.200000*%
%ADD16RoundRect,0.243750X0.243750X0.456250X-0.243750X0.456250X-0.243750X-0.456250X0.243750X-0.456250X0*%
%ADD17RoundRect,0.062500X-0.062500X0.187500X-0.062500X-0.187500X0.062500X-0.187500X0.062500X0.187500X0*%
%ADD18R,1.600000X0.900000*%
%ADD19RoundRect,0.062500X-0.187500X-0.062500X0.187500X-0.062500X0.187500X0.062500X-0.187500X0.062500X0*%
%ADD20R,0.900000X1.600000*%
%ADD21RoundRect,0.250000X-0.475000X0.250000X-0.475000X-0.250000X0.475000X-0.250000X0.475000X0.250000X0*%
%ADD22RoundRect,0.250000X-0.350000X-0.625000X0.350000X-0.625000X0.350000X0.625000X-0.350000X0.625000X0*%
%ADD23O,1.200000X1.750000*%
%ADD24R,0.900000X1.400000*%
%ADD25R,0.750000X0.850000*%
%ADD26RoundRect,0.056280X-1.030720X-0.345720X1.030720X-0.345720X1.030720X0.345720X-1.030720X0.345720X0*%
%ADD27RoundRect,0.102000X-1.206500X-1.651000X1.206500X-1.651000X1.206500X1.651000X-1.206500X1.651000X0*%
%ADD28C,1.000000*%
%ADD29RoundRect,0.250000X-0.250000X-0.475000X0.250000X-0.475000X0.250000X0.475000X-0.250000X0.475000X0*%
%ADD30RoundRect,0.250000X0.450000X-0.262500X0.450000X0.262500X-0.450000X0.262500X-0.450000X-0.262500X0*%
%ADD31RoundRect,0.250000X0.250000X0.475000X-0.250000X0.475000X-0.250000X-0.475000X0.250000X-0.475000X0*%
%ADD32R,1.700000X1.700000*%
%ADD33O,1.700000X1.700000*%
G04 APERTURE END LIST*
D10*
X93864808Y-56007209D02*
X94150522Y-56007209D01*
X94007665Y-56507209D02*
X94007665Y-56007209D01*
X94388617Y-56507209D02*
X94340998Y-56483400D01*
X94340998Y-56483400D02*
X94317188Y-56459590D01*
X94317188Y-56459590D02*
X94293379Y-56411971D01*
X94293379Y-56411971D02*
X94293379Y-56269114D01*
X94293379Y-56269114D02*
X94317188Y-56221495D01*
X94317188Y-56221495D02*
X94340998Y-56197685D01*
X94340998Y-56197685D02*
X94388617Y-56173876D01*
X94388617Y-56173876D02*
X94460045Y-56173876D01*
X94460045Y-56173876D02*
X94507664Y-56197685D01*
X94507664Y-56197685D02*
X94531474Y-56221495D01*
X94531474Y-56221495D02*
X94555283Y-56269114D01*
X94555283Y-56269114D02*
X94555283Y-56411971D01*
X94555283Y-56411971D02*
X94531474Y-56459590D01*
X94531474Y-56459590D02*
X94507664Y-56483400D01*
X94507664Y-56483400D02*
X94460045Y-56507209D01*
X94460045Y-56507209D02*
X94388617Y-56507209D01*
X94769569Y-56507209D02*
X94769569Y-56007209D01*
X94983855Y-56507209D02*
X94983855Y-56245304D01*
X94983855Y-56245304D02*
X94960045Y-56197685D01*
X94960045Y-56197685D02*
X94912426Y-56173876D01*
X94912426Y-56173876D02*
X94840998Y-56173876D01*
X94840998Y-56173876D02*
X94793379Y-56197685D01*
X94793379Y-56197685D02*
X94769569Y-56221495D01*
X95293379Y-56507209D02*
X95245760Y-56483400D01*
X95245760Y-56483400D02*
X95221950Y-56435780D01*
X95221950Y-56435780D02*
X95221950Y-56007209D01*
X95698141Y-56507209D02*
X95698141Y-56245304D01*
X95698141Y-56245304D02*
X95674331Y-56197685D01*
X95674331Y-56197685D02*
X95626712Y-56173876D01*
X95626712Y-56173876D02*
X95531474Y-56173876D01*
X95531474Y-56173876D02*
X95483855Y-56197685D01*
X95698141Y-56483400D02*
X95650522Y-56507209D01*
X95650522Y-56507209D02*
X95531474Y-56507209D01*
X95531474Y-56507209D02*
X95483855Y-56483400D01*
X95483855Y-56483400D02*
X95460046Y-56435780D01*
X95460046Y-56435780D02*
X95460046Y-56388161D01*
X95460046Y-56388161D02*
X95483855Y-56340542D01*
X95483855Y-56340542D02*
X95531474Y-56316733D01*
X95531474Y-56316733D02*
X95650522Y-56316733D01*
X95650522Y-56316733D02*
X95698141Y-56292923D01*
X95936236Y-56173876D02*
X95936236Y-56507209D01*
X95936236Y-56221495D02*
X95960046Y-56197685D01*
X95960046Y-56197685D02*
X96007665Y-56173876D01*
X96007665Y-56173876D02*
X96079093Y-56173876D01*
X96079093Y-56173876D02*
X96126712Y-56197685D01*
X96126712Y-56197685D02*
X96150522Y-56245304D01*
X96150522Y-56245304D02*
X96150522Y-56507209D01*
X96602903Y-56173876D02*
X96602903Y-56578638D01*
X96602903Y-56578638D02*
X96579093Y-56626257D01*
X96579093Y-56626257D02*
X96555284Y-56650066D01*
X96555284Y-56650066D02*
X96507665Y-56673876D01*
X96507665Y-56673876D02*
X96436236Y-56673876D01*
X96436236Y-56673876D02*
X96388617Y-56650066D01*
X96602903Y-56483400D02*
X96555284Y-56507209D01*
X96555284Y-56507209D02*
X96460046Y-56507209D01*
X96460046Y-56507209D02*
X96412427Y-56483400D01*
X96412427Y-56483400D02*
X96388617Y-56459590D01*
X96388617Y-56459590D02*
X96364808Y-56411971D01*
X96364808Y-56411971D02*
X96364808Y-56269114D01*
X96364808Y-56269114D02*
X96388617Y-56221495D01*
X96388617Y-56221495D02*
X96412427Y-56197685D01*
X96412427Y-56197685D02*
X96460046Y-56173876D01*
X96460046Y-56173876D02*
X96555284Y-56173876D01*
X96555284Y-56173876D02*
X96602903Y-56197685D01*
X96721951Y-56554828D02*
X97102903Y-56554828D01*
X97507664Y-56507209D02*
X97340998Y-56269114D01*
X97221950Y-56507209D02*
X97221950Y-56007209D01*
X97221950Y-56007209D02*
X97412426Y-56007209D01*
X97412426Y-56007209D02*
X97460045Y-56031019D01*
X97460045Y-56031019D02*
X97483855Y-56054828D01*
X97483855Y-56054828D02*
X97507664Y-56102447D01*
X97507664Y-56102447D02*
X97507664Y-56173876D01*
X97507664Y-56173876D02*
X97483855Y-56221495D01*
X97483855Y-56221495D02*
X97460045Y-56245304D01*
X97460045Y-56245304D02*
X97412426Y-56269114D01*
X97412426Y-56269114D02*
X97221950Y-56269114D01*
X97936236Y-56507209D02*
X97936236Y-56245304D01*
X97936236Y-56245304D02*
X97912426Y-56197685D01*
X97912426Y-56197685D02*
X97864807Y-56173876D01*
X97864807Y-56173876D02*
X97769569Y-56173876D01*
X97769569Y-56173876D02*
X97721950Y-56197685D01*
X97936236Y-56483400D02*
X97888617Y-56507209D01*
X97888617Y-56507209D02*
X97769569Y-56507209D01*
X97769569Y-56507209D02*
X97721950Y-56483400D01*
X97721950Y-56483400D02*
X97698141Y-56435780D01*
X97698141Y-56435780D02*
X97698141Y-56388161D01*
X97698141Y-56388161D02*
X97721950Y-56340542D01*
X97721950Y-56340542D02*
X97769569Y-56316733D01*
X97769569Y-56316733D02*
X97888617Y-56316733D01*
X97888617Y-56316733D02*
X97936236Y-56292923D01*
X98174331Y-56507209D02*
X98174331Y-56007209D01*
X98221950Y-56316733D02*
X98364807Y-56507209D01*
X98364807Y-56173876D02*
X98174331Y-56364352D01*
X98579093Y-56507209D02*
X98579093Y-56007209D01*
X98793379Y-56507209D02*
X98793379Y-56245304D01*
X98793379Y-56245304D02*
X98769569Y-56197685D01*
X98769569Y-56197685D02*
X98721950Y-56173876D01*
X98721950Y-56173876D02*
X98650522Y-56173876D01*
X98650522Y-56173876D02*
X98602903Y-56197685D01*
X98602903Y-56197685D02*
X98579093Y-56221495D01*
X99245760Y-56507209D02*
X99245760Y-56245304D01*
X99245760Y-56245304D02*
X99221950Y-56197685D01*
X99221950Y-56197685D02*
X99174331Y-56173876D01*
X99174331Y-56173876D02*
X99079093Y-56173876D01*
X99079093Y-56173876D02*
X99031474Y-56197685D01*
X99245760Y-56483400D02*
X99198141Y-56507209D01*
X99198141Y-56507209D02*
X99079093Y-56507209D01*
X99079093Y-56507209D02*
X99031474Y-56483400D01*
X99031474Y-56483400D02*
X99007665Y-56435780D01*
X99007665Y-56435780D02*
X99007665Y-56388161D01*
X99007665Y-56388161D02*
X99031474Y-56340542D01*
X99031474Y-56340542D02*
X99079093Y-56316733D01*
X99079093Y-56316733D02*
X99198141Y-56316733D01*
X99198141Y-56316733D02*
X99245760Y-56292923D01*
X99483855Y-56173876D02*
X99483855Y-56673876D01*
X99483855Y-56197685D02*
X99531474Y-56173876D01*
X99531474Y-56173876D02*
X99626712Y-56173876D01*
X99626712Y-56173876D02*
X99674331Y-56197685D01*
X99674331Y-56197685D02*
X99698141Y-56221495D01*
X99698141Y-56221495D02*
X99721950Y-56269114D01*
X99721950Y-56269114D02*
X99721950Y-56411971D01*
X99721950Y-56411971D02*
X99698141Y-56459590D01*
X99698141Y-56459590D02*
X99674331Y-56483400D01*
X99674331Y-56483400D02*
X99626712Y-56507209D01*
X99626712Y-56507209D02*
X99531474Y-56507209D01*
X99531474Y-56507209D02*
X99483855Y-56483400D01*
X100150522Y-56173876D02*
X100150522Y-56507209D01*
X99936236Y-56173876D02*
X99936236Y-56435780D01*
X99936236Y-56435780D02*
X99960046Y-56483400D01*
X99960046Y-56483400D02*
X100007665Y-56507209D01*
X100007665Y-56507209D02*
X100079093Y-56507209D01*
X100079093Y-56507209D02*
X100126712Y-56483400D01*
X100126712Y-56483400D02*
X100150522Y-56459590D01*
X94221950Y-57312209D02*
X94055284Y-57074114D01*
X93936236Y-57312209D02*
X93936236Y-56812209D01*
X93936236Y-56812209D02*
X94126712Y-56812209D01*
X94126712Y-56812209D02*
X94174331Y-56836019D01*
X94174331Y-56836019D02*
X94198141Y-56859828D01*
X94198141Y-56859828D02*
X94221950Y-56907447D01*
X94221950Y-56907447D02*
X94221950Y-56978876D01*
X94221950Y-56978876D02*
X94198141Y-57026495D01*
X94198141Y-57026495D02*
X94174331Y-57050304D01*
X94174331Y-57050304D02*
X94126712Y-57074114D01*
X94126712Y-57074114D02*
X93936236Y-57074114D01*
X94436236Y-57312209D02*
X94436236Y-56812209D01*
X94721950Y-57312209D02*
X94507665Y-57026495D01*
X94721950Y-56812209D02*
X94436236Y-57097923D01*
X94936236Y-57312209D02*
X94936236Y-56812209D01*
X94936236Y-57050304D02*
X95221950Y-57050304D01*
X95221950Y-57312209D02*
X95221950Y-56812209D01*
X95388618Y-56812209D02*
X95674332Y-56812209D01*
X95531475Y-57312209D02*
X95531475Y-56812209D01*
X95936236Y-56812209D02*
X96031474Y-56812209D01*
X96031474Y-56812209D02*
X96079093Y-56836019D01*
X96079093Y-56836019D02*
X96126712Y-56883638D01*
X96126712Y-56883638D02*
X96150522Y-56978876D01*
X96150522Y-56978876D02*
X96150522Y-57145542D01*
X96150522Y-57145542D02*
X96126712Y-57240780D01*
X96126712Y-57240780D02*
X96079093Y-57288400D01*
X96079093Y-57288400D02*
X96031474Y-57312209D01*
X96031474Y-57312209D02*
X95936236Y-57312209D01*
X95936236Y-57312209D02*
X95888617Y-57288400D01*
X95888617Y-57288400D02*
X95840998Y-57240780D01*
X95840998Y-57240780D02*
X95817189Y-57145542D01*
X95817189Y-57145542D02*
X95817189Y-56978876D01*
X95817189Y-56978876D02*
X95840998Y-56883638D01*
X95840998Y-56883638D02*
X95888617Y-56836019D01*
X95888617Y-56836019D02*
X95936236Y-56812209D01*
X96364808Y-57312209D02*
X96364808Y-56812209D01*
X96364808Y-57050304D02*
X96650522Y-57050304D01*
X96650522Y-57312209D02*
X96650522Y-56812209D01*
X96983856Y-56812209D02*
X97031475Y-56812209D01*
X97031475Y-56812209D02*
X97079094Y-56836019D01*
X97079094Y-56836019D02*
X97102904Y-56859828D01*
X97102904Y-56859828D02*
X97126713Y-56907447D01*
X97126713Y-56907447D02*
X97150523Y-57002685D01*
X97150523Y-57002685D02*
X97150523Y-57121733D01*
X97150523Y-57121733D02*
X97126713Y-57216971D01*
X97126713Y-57216971D02*
X97102904Y-57264590D01*
X97102904Y-57264590D02*
X97079094Y-57288400D01*
X97079094Y-57288400D02*
X97031475Y-57312209D01*
X97031475Y-57312209D02*
X96983856Y-57312209D01*
X96983856Y-57312209D02*
X96936237Y-57288400D01*
X96936237Y-57288400D02*
X96912428Y-57264590D01*
X96912428Y-57264590D02*
X96888618Y-57216971D01*
X96888618Y-57216971D02*
X96864809Y-57121733D01*
X96864809Y-57121733D02*
X96864809Y-57002685D01*
X96864809Y-57002685D02*
X96888618Y-56907447D01*
X96888618Y-56907447D02*
X96912428Y-56859828D01*
X96912428Y-56859828D02*
X96936237Y-56836019D01*
X96936237Y-56836019D02*
X96983856Y-56812209D01*
X97460046Y-56812209D02*
X97507665Y-56812209D01*
X97507665Y-56812209D02*
X97555284Y-56836019D01*
X97555284Y-56836019D02*
X97579094Y-56859828D01*
X97579094Y-56859828D02*
X97602903Y-56907447D01*
X97602903Y-56907447D02*
X97626713Y-57002685D01*
X97626713Y-57002685D02*
X97626713Y-57121733D01*
X97626713Y-57121733D02*
X97602903Y-57216971D01*
X97602903Y-57216971D02*
X97579094Y-57264590D01*
X97579094Y-57264590D02*
X97555284Y-57288400D01*
X97555284Y-57288400D02*
X97507665Y-57312209D01*
X97507665Y-57312209D02*
X97460046Y-57312209D01*
X97460046Y-57312209D02*
X97412427Y-57288400D01*
X97412427Y-57288400D02*
X97388618Y-57264590D01*
X97388618Y-57264590D02*
X97364808Y-57216971D01*
X97364808Y-57216971D02*
X97340999Y-57121733D01*
X97340999Y-57121733D02*
X97340999Y-57002685D01*
X97340999Y-57002685D02*
X97364808Y-56907447D01*
X97364808Y-56907447D02*
X97388618Y-56859828D01*
X97388618Y-56859828D02*
X97412427Y-56836019D01*
X97412427Y-56836019D02*
X97460046Y-56812209D01*
X98102903Y-57312209D02*
X97817189Y-57312209D01*
X97960046Y-57312209D02*
X97960046Y-56812209D01*
X97960046Y-56812209D02*
X97912427Y-56883638D01*
X97912427Y-56883638D02*
X97864808Y-56931257D01*
X97864808Y-56931257D02*
X97817189Y-56955066D01*
D11*
X93153752Y-44475509D02*
X93153752Y-43975509D01*
X93153752Y-43975509D02*
X93272800Y-43975509D01*
X93272800Y-43975509D02*
X93344228Y-43999319D01*
X93344228Y-43999319D02*
X93391847Y-44046938D01*
X93391847Y-44046938D02*
X93415657Y-44094557D01*
X93415657Y-44094557D02*
X93439466Y-44189795D01*
X93439466Y-44189795D02*
X93439466Y-44261223D01*
X93439466Y-44261223D02*
X93415657Y-44356461D01*
X93415657Y-44356461D02*
X93391847Y-44404080D01*
X93391847Y-44404080D02*
X93344228Y-44451700D01*
X93344228Y-44451700D02*
X93272800Y-44475509D01*
X93272800Y-44475509D02*
X93153752Y-44475509D01*
X93629943Y-44023128D02*
X93653752Y-43999319D01*
X93653752Y-43999319D02*
X93701371Y-43975509D01*
X93701371Y-43975509D02*
X93820419Y-43975509D01*
X93820419Y-43975509D02*
X93868038Y-43999319D01*
X93868038Y-43999319D02*
X93891847Y-44023128D01*
X93891847Y-44023128D02*
X93915657Y-44070747D01*
X93915657Y-44070747D02*
X93915657Y-44118366D01*
X93915657Y-44118366D02*
X93891847Y-44189795D01*
X93891847Y-44189795D02*
X93606133Y-44475509D01*
X93606133Y-44475509D02*
X93915657Y-44475509D01*
X75750909Y-48717152D02*
X76155671Y-48717152D01*
X76155671Y-48717152D02*
X76203290Y-48693342D01*
X76203290Y-48693342D02*
X76227100Y-48669533D01*
X76227100Y-48669533D02*
X76250909Y-48621914D01*
X76250909Y-48621914D02*
X76250909Y-48526676D01*
X76250909Y-48526676D02*
X76227100Y-48479057D01*
X76227100Y-48479057D02*
X76203290Y-48455247D01*
X76203290Y-48455247D02*
X76155671Y-48431438D01*
X76155671Y-48431438D02*
X75750909Y-48431438D01*
X75798528Y-48217151D02*
X75774719Y-48193342D01*
X75774719Y-48193342D02*
X75750909Y-48145723D01*
X75750909Y-48145723D02*
X75750909Y-48026675D01*
X75750909Y-48026675D02*
X75774719Y-47979056D01*
X75774719Y-47979056D02*
X75798528Y-47955247D01*
X75798528Y-47955247D02*
X75846147Y-47931437D01*
X75846147Y-47931437D02*
X75893766Y-47931437D01*
X75893766Y-47931437D02*
X75965195Y-47955247D01*
X75965195Y-47955247D02*
X76250909Y-48240961D01*
X76250909Y-48240961D02*
X76250909Y-47931437D01*
X97688447Y-39987709D02*
X97688447Y-40392471D01*
X97688447Y-40392471D02*
X97712257Y-40440090D01*
X97712257Y-40440090D02*
X97736066Y-40463900D01*
X97736066Y-40463900D02*
X97783685Y-40487709D01*
X97783685Y-40487709D02*
X97878923Y-40487709D01*
X97878923Y-40487709D02*
X97926542Y-40463900D01*
X97926542Y-40463900D02*
X97950352Y-40440090D01*
X97950352Y-40440090D02*
X97974161Y-40392471D01*
X97974161Y-40392471D02*
X97974161Y-39987709D01*
X98474162Y-40487709D02*
X98188448Y-40487709D01*
X98331305Y-40487709D02*
X98331305Y-39987709D01*
X98331305Y-39987709D02*
X98283686Y-40059138D01*
X98283686Y-40059138D02*
X98236067Y-40106757D01*
X98236067Y-40106757D02*
X98188448Y-40130566D01*
X80114890Y-43923733D02*
X80138700Y-43947542D01*
X80138700Y-43947542D02*
X80162509Y-44018971D01*
X80162509Y-44018971D02*
X80162509Y-44066590D01*
X80162509Y-44066590D02*
X80138700Y-44138018D01*
X80138700Y-44138018D02*
X80091080Y-44185637D01*
X80091080Y-44185637D02*
X80043461Y-44209447D01*
X80043461Y-44209447D02*
X79948223Y-44233256D01*
X79948223Y-44233256D02*
X79876795Y-44233256D01*
X79876795Y-44233256D02*
X79781557Y-44209447D01*
X79781557Y-44209447D02*
X79733938Y-44185637D01*
X79733938Y-44185637D02*
X79686319Y-44138018D01*
X79686319Y-44138018D02*
X79662509Y-44066590D01*
X79662509Y-44066590D02*
X79662509Y-44018971D01*
X79662509Y-44018971D02*
X79686319Y-43947542D01*
X79686319Y-43947542D02*
X79710128Y-43923733D01*
X80162509Y-43447542D02*
X80162509Y-43733256D01*
X80162509Y-43590399D02*
X79662509Y-43590399D01*
X79662509Y-43590399D02*
X79733938Y-43638018D01*
X79733938Y-43638018D02*
X79781557Y-43685637D01*
X79781557Y-43685637D02*
X79805366Y-43733256D01*
D12*
X71574066Y-56706419D02*
X71574066Y-57420704D01*
X71574066Y-57420704D02*
X71526447Y-57563561D01*
X71526447Y-57563561D02*
X71431209Y-57658800D01*
X71431209Y-57658800D02*
X71288352Y-57706419D01*
X71288352Y-57706419D02*
X71193114Y-57706419D01*
X72002638Y-56801657D02*
X72050257Y-56754038D01*
X72050257Y-56754038D02*
X72145495Y-56706419D01*
X72145495Y-56706419D02*
X72383590Y-56706419D01*
X72383590Y-56706419D02*
X72478828Y-56754038D01*
X72478828Y-56754038D02*
X72526447Y-56801657D01*
X72526447Y-56801657D02*
X72574066Y-56896895D01*
X72574066Y-56896895D02*
X72574066Y-56992133D01*
X72574066Y-56992133D02*
X72526447Y-57134990D01*
X72526447Y-57134990D02*
X71955019Y-57706419D01*
X71955019Y-57706419D02*
X72574066Y-57706419D01*
D11*
X82035734Y-46432900D02*
X82107162Y-46456709D01*
X82107162Y-46456709D02*
X82226210Y-46456709D01*
X82226210Y-46456709D02*
X82273829Y-46432900D01*
X82273829Y-46432900D02*
X82297638Y-46409090D01*
X82297638Y-46409090D02*
X82321448Y-46361471D01*
X82321448Y-46361471D02*
X82321448Y-46313852D01*
X82321448Y-46313852D02*
X82297638Y-46266233D01*
X82297638Y-46266233D02*
X82273829Y-46242423D01*
X82273829Y-46242423D02*
X82226210Y-46218614D01*
X82226210Y-46218614D02*
X82130972Y-46194804D01*
X82130972Y-46194804D02*
X82083353Y-46170995D01*
X82083353Y-46170995D02*
X82059543Y-46147185D01*
X82059543Y-46147185D02*
X82035734Y-46099566D01*
X82035734Y-46099566D02*
X82035734Y-46051947D01*
X82035734Y-46051947D02*
X82059543Y-46004328D01*
X82059543Y-46004328D02*
X82083353Y-45980519D01*
X82083353Y-45980519D02*
X82130972Y-45956709D01*
X82130972Y-45956709D02*
X82250019Y-45956709D01*
X82250019Y-45956709D02*
X82321448Y-45980519D01*
X82488114Y-45956709D02*
X82607162Y-46456709D01*
X82607162Y-46456709D02*
X82702400Y-46099566D01*
X82702400Y-46099566D02*
X82797638Y-46456709D01*
X82797638Y-46456709D02*
X82916686Y-45956709D01*
X83369067Y-46456709D02*
X83083353Y-46456709D01*
X83226210Y-46456709D02*
X83226210Y-45956709D01*
X83226210Y-45956709D02*
X83178591Y-46028138D01*
X83178591Y-46028138D02*
X83130972Y-46075757D01*
X83130972Y-46075757D02*
X83083353Y-46099566D01*
X89230247Y-52408309D02*
X89230247Y-52813071D01*
X89230247Y-52813071D02*
X89254057Y-52860690D01*
X89254057Y-52860690D02*
X89277866Y-52884500D01*
X89277866Y-52884500D02*
X89325485Y-52908309D01*
X89325485Y-52908309D02*
X89420723Y-52908309D01*
X89420723Y-52908309D02*
X89468342Y-52884500D01*
X89468342Y-52884500D02*
X89492152Y-52860690D01*
X89492152Y-52860690D02*
X89515961Y-52813071D01*
X89515961Y-52813071D02*
X89515961Y-52408309D01*
X89706438Y-52408309D02*
X90015962Y-52408309D01*
X90015962Y-52408309D02*
X89849295Y-52598785D01*
X89849295Y-52598785D02*
X89920724Y-52598785D01*
X89920724Y-52598785D02*
X89968343Y-52622595D01*
X89968343Y-52622595D02*
X89992152Y-52646404D01*
X89992152Y-52646404D02*
X90015962Y-52694023D01*
X90015962Y-52694023D02*
X90015962Y-52813071D01*
X90015962Y-52813071D02*
X89992152Y-52860690D01*
X89992152Y-52860690D02*
X89968343Y-52884500D01*
X89968343Y-52884500D02*
X89920724Y-52908309D01*
X89920724Y-52908309D02*
X89777867Y-52908309D01*
X89777867Y-52908309D02*
X89730248Y-52884500D01*
X89730248Y-52884500D02*
X89706438Y-52860690D01*
X76862952Y-48590109D02*
X76862952Y-48090109D01*
X76862952Y-48090109D02*
X77029619Y-48447252D01*
X77029619Y-48447252D02*
X77196285Y-48090109D01*
X77196285Y-48090109D02*
X77196285Y-48590109D01*
X77505810Y-48590109D02*
X77458191Y-48566300D01*
X77458191Y-48566300D02*
X77434381Y-48542490D01*
X77434381Y-48542490D02*
X77410572Y-48494871D01*
X77410572Y-48494871D02*
X77410572Y-48352014D01*
X77410572Y-48352014D02*
X77434381Y-48304395D01*
X77434381Y-48304395D02*
X77458191Y-48280585D01*
X77458191Y-48280585D02*
X77505810Y-48256776D01*
X77505810Y-48256776D02*
X77577238Y-48256776D01*
X77577238Y-48256776D02*
X77624857Y-48280585D01*
X77624857Y-48280585D02*
X77648667Y-48304395D01*
X77648667Y-48304395D02*
X77672476Y-48352014D01*
X77672476Y-48352014D02*
X77672476Y-48494871D01*
X77672476Y-48494871D02*
X77648667Y-48542490D01*
X77648667Y-48542490D02*
X77624857Y-48566300D01*
X77624857Y-48566300D02*
X77577238Y-48590109D01*
X77577238Y-48590109D02*
X77505810Y-48590109D01*
X77815334Y-48256776D02*
X78005810Y-48256776D01*
X77886762Y-48090109D02*
X77886762Y-48518680D01*
X77886762Y-48518680D02*
X77910572Y-48566300D01*
X77910572Y-48566300D02*
X77958191Y-48590109D01*
X77958191Y-48590109D02*
X78005810Y-48590109D01*
X78243905Y-48590109D02*
X78196286Y-48566300D01*
X78196286Y-48566300D02*
X78172476Y-48542490D01*
X78172476Y-48542490D02*
X78148667Y-48494871D01*
X78148667Y-48494871D02*
X78148667Y-48352014D01*
X78148667Y-48352014D02*
X78172476Y-48304395D01*
X78172476Y-48304395D02*
X78196286Y-48280585D01*
X78196286Y-48280585D02*
X78243905Y-48256776D01*
X78243905Y-48256776D02*
X78315333Y-48256776D01*
X78315333Y-48256776D02*
X78362952Y-48280585D01*
X78362952Y-48280585D02*
X78386762Y-48304395D01*
X78386762Y-48304395D02*
X78410571Y-48352014D01*
X78410571Y-48352014D02*
X78410571Y-48494871D01*
X78410571Y-48494871D02*
X78386762Y-48542490D01*
X78386762Y-48542490D02*
X78362952Y-48566300D01*
X78362952Y-48566300D02*
X78315333Y-48590109D01*
X78315333Y-48590109D02*
X78243905Y-48590109D01*
X78624857Y-48590109D02*
X78624857Y-48256776D01*
X78624857Y-48352014D02*
X78648667Y-48304395D01*
X78648667Y-48304395D02*
X78672476Y-48280585D01*
X78672476Y-48280585D02*
X78720095Y-48256776D01*
X78720095Y-48256776D02*
X78767714Y-48256776D01*
X79196286Y-48590109D02*
X78910572Y-48590109D01*
X79053429Y-48590109D02*
X79053429Y-48090109D01*
X79053429Y-48090109D02*
X79005810Y-48161538D01*
X79005810Y-48161538D02*
X78958191Y-48209157D01*
X78958191Y-48209157D02*
X78910572Y-48232966D01*
X79386762Y-48447252D02*
X79624857Y-48447252D01*
X79339143Y-48590109D02*
X79505809Y-48090109D01*
X79505809Y-48090109D02*
X79672476Y-48590109D01*
X96868466Y-36934890D02*
X96844657Y-36958700D01*
X96844657Y-36958700D02*
X96773228Y-36982509D01*
X96773228Y-36982509D02*
X96725609Y-36982509D01*
X96725609Y-36982509D02*
X96654181Y-36958700D01*
X96654181Y-36958700D02*
X96606562Y-36911080D01*
X96606562Y-36911080D02*
X96582752Y-36863461D01*
X96582752Y-36863461D02*
X96558943Y-36768223D01*
X96558943Y-36768223D02*
X96558943Y-36696795D01*
X96558943Y-36696795D02*
X96582752Y-36601557D01*
X96582752Y-36601557D02*
X96606562Y-36553938D01*
X96606562Y-36553938D02*
X96654181Y-36506319D01*
X96654181Y-36506319D02*
X96725609Y-36482509D01*
X96725609Y-36482509D02*
X96773228Y-36482509D01*
X96773228Y-36482509D02*
X96844657Y-36506319D01*
X96844657Y-36506319D02*
X96868466Y-36530128D01*
X97058943Y-36530128D02*
X97082752Y-36506319D01*
X97082752Y-36506319D02*
X97130371Y-36482509D01*
X97130371Y-36482509D02*
X97249419Y-36482509D01*
X97249419Y-36482509D02*
X97297038Y-36506319D01*
X97297038Y-36506319D02*
X97320847Y-36530128D01*
X97320847Y-36530128D02*
X97344657Y-36577747D01*
X97344657Y-36577747D02*
X97344657Y-36625366D01*
X97344657Y-36625366D02*
X97320847Y-36696795D01*
X97320847Y-36696795D02*
X97035133Y-36982509D01*
X97035133Y-36982509D02*
X97344657Y-36982509D01*
X82880309Y-48673533D02*
X82642214Y-48840199D01*
X82880309Y-48959247D02*
X82380309Y-48959247D01*
X82380309Y-48959247D02*
X82380309Y-48768771D01*
X82380309Y-48768771D02*
X82404119Y-48721152D01*
X82404119Y-48721152D02*
X82427928Y-48697342D01*
X82427928Y-48697342D02*
X82475547Y-48673533D01*
X82475547Y-48673533D02*
X82546976Y-48673533D01*
X82546976Y-48673533D02*
X82594595Y-48697342D01*
X82594595Y-48697342D02*
X82618404Y-48721152D01*
X82618404Y-48721152D02*
X82642214Y-48768771D01*
X82642214Y-48768771D02*
X82642214Y-48959247D01*
X82880309Y-48197342D02*
X82880309Y-48483056D01*
X82880309Y-48340199D02*
X82380309Y-48340199D01*
X82380309Y-48340199D02*
X82451738Y-48387818D01*
X82451738Y-48387818D02*
X82499357Y-48435437D01*
X82499357Y-48435437D02*
X82523166Y-48483056D01*
X91737666Y-45215290D02*
X91713857Y-45239100D01*
X91713857Y-45239100D02*
X91642428Y-45262909D01*
X91642428Y-45262909D02*
X91594809Y-45262909D01*
X91594809Y-45262909D02*
X91523381Y-45239100D01*
X91523381Y-45239100D02*
X91475762Y-45191480D01*
X91475762Y-45191480D02*
X91451952Y-45143861D01*
X91451952Y-45143861D02*
X91428143Y-45048623D01*
X91428143Y-45048623D02*
X91428143Y-44977195D01*
X91428143Y-44977195D02*
X91451952Y-44881957D01*
X91451952Y-44881957D02*
X91475762Y-44834338D01*
X91475762Y-44834338D02*
X91523381Y-44786719D01*
X91523381Y-44786719D02*
X91594809Y-44762909D01*
X91594809Y-44762909D02*
X91642428Y-44762909D01*
X91642428Y-44762909D02*
X91713857Y-44786719D01*
X91713857Y-44786719D02*
X91737666Y-44810528D01*
X92166238Y-44929576D02*
X92166238Y-45262909D01*
X92047190Y-44739100D02*
X91928143Y-45096242D01*
X91928143Y-45096242D02*
X92237666Y-45096242D01*
X94049066Y-55070490D02*
X94025257Y-55094300D01*
X94025257Y-55094300D02*
X93953828Y-55118109D01*
X93953828Y-55118109D02*
X93906209Y-55118109D01*
X93906209Y-55118109D02*
X93834781Y-55094300D01*
X93834781Y-55094300D02*
X93787162Y-55046680D01*
X93787162Y-55046680D02*
X93763352Y-54999061D01*
X93763352Y-54999061D02*
X93739543Y-54903823D01*
X93739543Y-54903823D02*
X93739543Y-54832395D01*
X93739543Y-54832395D02*
X93763352Y-54737157D01*
X93763352Y-54737157D02*
X93787162Y-54689538D01*
X93787162Y-54689538D02*
X93834781Y-54641919D01*
X93834781Y-54641919D02*
X93906209Y-54618109D01*
X93906209Y-54618109D02*
X93953828Y-54618109D01*
X93953828Y-54618109D02*
X94025257Y-54641919D01*
X94025257Y-54641919D02*
X94049066Y-54665728D01*
X94215733Y-54618109D02*
X94525257Y-54618109D01*
X94525257Y-54618109D02*
X94358590Y-54808585D01*
X94358590Y-54808585D02*
X94430019Y-54808585D01*
X94430019Y-54808585D02*
X94477638Y-54832395D01*
X94477638Y-54832395D02*
X94501447Y-54856204D01*
X94501447Y-54856204D02*
X94525257Y-54903823D01*
X94525257Y-54903823D02*
X94525257Y-55022871D01*
X94525257Y-55022871D02*
X94501447Y-55070490D01*
X94501447Y-55070490D02*
X94477638Y-55094300D01*
X94477638Y-55094300D02*
X94430019Y-55118109D01*
X94430019Y-55118109D02*
X94287162Y-55118109D01*
X94287162Y-55118109D02*
X94239543Y-55094300D01*
X94239543Y-55094300D02*
X94215733Y-55070490D01*
X72248828Y-47529919D02*
X72201209Y-47506109D01*
X72201209Y-47506109D02*
X72129780Y-47506109D01*
X72129780Y-47506109D02*
X72058352Y-47529919D01*
X72058352Y-47529919D02*
X72010733Y-47577538D01*
X72010733Y-47577538D02*
X71986923Y-47625157D01*
X71986923Y-47625157D02*
X71963114Y-47720395D01*
X71963114Y-47720395D02*
X71963114Y-47791823D01*
X71963114Y-47791823D02*
X71986923Y-47887061D01*
X71986923Y-47887061D02*
X72010733Y-47934680D01*
X72010733Y-47934680D02*
X72058352Y-47982300D01*
X72058352Y-47982300D02*
X72129780Y-48006109D01*
X72129780Y-48006109D02*
X72177399Y-48006109D01*
X72177399Y-48006109D02*
X72248828Y-47982300D01*
X72248828Y-47982300D02*
X72272637Y-47958490D01*
X72272637Y-47958490D02*
X72272637Y-47791823D01*
X72272637Y-47791823D02*
X72177399Y-47791823D01*
X72486923Y-48006109D02*
X72486923Y-47672776D01*
X72486923Y-47768014D02*
X72510733Y-47720395D01*
X72510733Y-47720395D02*
X72534542Y-47696585D01*
X72534542Y-47696585D02*
X72582161Y-47672776D01*
X72582161Y-47672776D02*
X72629780Y-47672776D01*
X72867876Y-48006109D02*
X72820257Y-47982300D01*
X72820257Y-47982300D02*
X72796447Y-47958490D01*
X72796447Y-47958490D02*
X72772638Y-47910871D01*
X72772638Y-47910871D02*
X72772638Y-47768014D01*
X72772638Y-47768014D02*
X72796447Y-47720395D01*
X72796447Y-47720395D02*
X72820257Y-47696585D01*
X72820257Y-47696585D02*
X72867876Y-47672776D01*
X72867876Y-47672776D02*
X72939304Y-47672776D01*
X72939304Y-47672776D02*
X72986923Y-47696585D01*
X72986923Y-47696585D02*
X73010733Y-47720395D01*
X73010733Y-47720395D02*
X73034542Y-47768014D01*
X73034542Y-47768014D02*
X73034542Y-47910871D01*
X73034542Y-47910871D02*
X73010733Y-47958490D01*
X73010733Y-47958490D02*
X72986923Y-47982300D01*
X72986923Y-47982300D02*
X72939304Y-48006109D01*
X72939304Y-48006109D02*
X72867876Y-48006109D01*
X73463114Y-47672776D02*
X73463114Y-48006109D01*
X73248828Y-47672776D02*
X73248828Y-47934680D01*
X73248828Y-47934680D02*
X73272638Y-47982300D01*
X73272638Y-47982300D02*
X73320257Y-48006109D01*
X73320257Y-48006109D02*
X73391685Y-48006109D01*
X73391685Y-48006109D02*
X73439304Y-47982300D01*
X73439304Y-47982300D02*
X73463114Y-47958490D01*
X73701209Y-47672776D02*
X73701209Y-48006109D01*
X73701209Y-47720395D02*
X73725019Y-47696585D01*
X73725019Y-47696585D02*
X73772638Y-47672776D01*
X73772638Y-47672776D02*
X73844066Y-47672776D01*
X73844066Y-47672776D02*
X73891685Y-47696585D01*
X73891685Y-47696585D02*
X73915495Y-47744204D01*
X73915495Y-47744204D02*
X73915495Y-48006109D01*
X74367876Y-48006109D02*
X74367876Y-47506109D01*
X74367876Y-47982300D02*
X74320257Y-48006109D01*
X74320257Y-48006109D02*
X74225019Y-48006109D01*
X74225019Y-48006109D02*
X74177400Y-47982300D01*
X74177400Y-47982300D02*
X74153590Y-47958490D01*
X74153590Y-47958490D02*
X74129781Y-47910871D01*
X74129781Y-47910871D02*
X74129781Y-47768014D01*
X74129781Y-47768014D02*
X74153590Y-47720395D01*
X74153590Y-47720395D02*
X74177400Y-47696585D01*
X74177400Y-47696585D02*
X74225019Y-47672776D01*
X74225019Y-47672776D02*
X74320257Y-47672776D01*
X74320257Y-47672776D02*
X74367876Y-47696585D01*
X96563666Y-54203709D02*
X96397000Y-53965614D01*
X96277952Y-54203709D02*
X96277952Y-53703709D01*
X96277952Y-53703709D02*
X96468428Y-53703709D01*
X96468428Y-53703709D02*
X96516047Y-53727519D01*
X96516047Y-53727519D02*
X96539857Y-53751328D01*
X96539857Y-53751328D02*
X96563666Y-53798947D01*
X96563666Y-53798947D02*
X96563666Y-53870376D01*
X96563666Y-53870376D02*
X96539857Y-53917995D01*
X96539857Y-53917995D02*
X96516047Y-53941804D01*
X96516047Y-53941804D02*
X96468428Y-53965614D01*
X96468428Y-53965614D02*
X96277952Y-53965614D01*
X96730333Y-53703709D02*
X97039857Y-53703709D01*
X97039857Y-53703709D02*
X96873190Y-53894185D01*
X96873190Y-53894185D02*
X96944619Y-53894185D01*
X96944619Y-53894185D02*
X96992238Y-53917995D01*
X96992238Y-53917995D02*
X97016047Y-53941804D01*
X97016047Y-53941804D02*
X97039857Y-53989423D01*
X97039857Y-53989423D02*
X97039857Y-54108471D01*
X97039857Y-54108471D02*
X97016047Y-54156090D01*
X97016047Y-54156090D02*
X96992238Y-54179900D01*
X96992238Y-54179900D02*
X96944619Y-54203709D01*
X96944619Y-54203709D02*
X96801762Y-54203709D01*
X96801762Y-54203709D02*
X96754143Y-54179900D01*
X96754143Y-54179900D02*
X96730333Y-54156090D01*
X97243152Y-48564909D02*
X97243152Y-48064909D01*
X97243152Y-48064909D02*
X97362200Y-48064909D01*
X97362200Y-48064909D02*
X97433628Y-48088719D01*
X97433628Y-48088719D02*
X97481247Y-48136338D01*
X97481247Y-48136338D02*
X97505057Y-48183957D01*
X97505057Y-48183957D02*
X97528866Y-48279195D01*
X97528866Y-48279195D02*
X97528866Y-48350623D01*
X97528866Y-48350623D02*
X97505057Y-48445861D01*
X97505057Y-48445861D02*
X97481247Y-48493480D01*
X97481247Y-48493480D02*
X97433628Y-48541100D01*
X97433628Y-48541100D02*
X97362200Y-48564909D01*
X97362200Y-48564909D02*
X97243152Y-48564909D01*
X98005057Y-48564909D02*
X97719343Y-48564909D01*
X97862200Y-48564909D02*
X97862200Y-48064909D01*
X97862200Y-48064909D02*
X97814581Y-48136338D01*
X97814581Y-48136338D02*
X97766962Y-48183957D01*
X97766962Y-48183957D02*
X97719343Y-48207766D01*
X89044591Y-56853309D02*
X89211257Y-57353309D01*
X89211257Y-57353309D02*
X89377924Y-56853309D01*
X89711257Y-57091404D02*
X89782685Y-57115214D01*
X89782685Y-57115214D02*
X89806495Y-57139023D01*
X89806495Y-57139023D02*
X89830304Y-57186642D01*
X89830304Y-57186642D02*
X89830304Y-57258071D01*
X89830304Y-57258071D02*
X89806495Y-57305690D01*
X89806495Y-57305690D02*
X89782685Y-57329500D01*
X89782685Y-57329500D02*
X89735066Y-57353309D01*
X89735066Y-57353309D02*
X89544590Y-57353309D01*
X89544590Y-57353309D02*
X89544590Y-56853309D01*
X89544590Y-56853309D02*
X89711257Y-56853309D01*
X89711257Y-56853309D02*
X89758876Y-56877119D01*
X89758876Y-56877119D02*
X89782685Y-56900928D01*
X89782685Y-56900928D02*
X89806495Y-56948547D01*
X89806495Y-56948547D02*
X89806495Y-56996166D01*
X89806495Y-56996166D02*
X89782685Y-57043785D01*
X89782685Y-57043785D02*
X89758876Y-57067595D01*
X89758876Y-57067595D02*
X89711257Y-57091404D01*
X89711257Y-57091404D02*
X89544590Y-57091404D01*
X90258876Y-57353309D02*
X90258876Y-57091404D01*
X90258876Y-57091404D02*
X90235066Y-57043785D01*
X90235066Y-57043785D02*
X90187447Y-57019976D01*
X90187447Y-57019976D02*
X90092209Y-57019976D01*
X90092209Y-57019976D02*
X90044590Y-57043785D01*
X90258876Y-57329500D02*
X90211257Y-57353309D01*
X90211257Y-57353309D02*
X90092209Y-57353309D01*
X90092209Y-57353309D02*
X90044590Y-57329500D01*
X90044590Y-57329500D02*
X90020781Y-57281880D01*
X90020781Y-57281880D02*
X90020781Y-57234261D01*
X90020781Y-57234261D02*
X90044590Y-57186642D01*
X90044590Y-57186642D02*
X90092209Y-57162833D01*
X90092209Y-57162833D02*
X90211257Y-57162833D01*
X90211257Y-57162833D02*
X90258876Y-57139023D01*
X90425543Y-57019976D02*
X90616019Y-57019976D01*
X90496971Y-56853309D02*
X90496971Y-57281880D01*
X90496971Y-57281880D02*
X90520781Y-57329500D01*
X90520781Y-57329500D02*
X90568400Y-57353309D01*
X90568400Y-57353309D02*
X90616019Y-57353309D01*
X91044590Y-57353309D02*
X90758876Y-57353309D01*
X90901733Y-57353309D02*
X90901733Y-56853309D01*
X90901733Y-56853309D02*
X90854114Y-56924738D01*
X90854114Y-56924738D02*
X90806495Y-56972357D01*
X90806495Y-56972357D02*
X90758876Y-56996166D01*
X99949109Y-52000933D02*
X99711014Y-52167599D01*
X99949109Y-52286647D02*
X99449109Y-52286647D01*
X99449109Y-52286647D02*
X99449109Y-52096171D01*
X99449109Y-52096171D02*
X99472919Y-52048552D01*
X99472919Y-52048552D02*
X99496728Y-52024742D01*
X99496728Y-52024742D02*
X99544347Y-52000933D01*
X99544347Y-52000933D02*
X99615776Y-52000933D01*
X99615776Y-52000933D02*
X99663395Y-52024742D01*
X99663395Y-52024742D02*
X99687204Y-52048552D01*
X99687204Y-52048552D02*
X99711014Y-52096171D01*
X99711014Y-52096171D02*
X99711014Y-52286647D01*
X99496728Y-51810456D02*
X99472919Y-51786647D01*
X99472919Y-51786647D02*
X99449109Y-51739028D01*
X99449109Y-51739028D02*
X99449109Y-51619980D01*
X99449109Y-51619980D02*
X99472919Y-51572361D01*
X99472919Y-51572361D02*
X99496728Y-51548552D01*
X99496728Y-51548552D02*
X99544347Y-51524742D01*
X99544347Y-51524742D02*
X99591966Y-51524742D01*
X99591966Y-51524742D02*
X99663395Y-51548552D01*
X99663395Y-51548552D02*
X99949109Y-51834266D01*
X99949109Y-51834266D02*
X99949109Y-51524742D01*
X96674952Y-44526309D02*
X96674952Y-44026309D01*
X96674952Y-44026309D02*
X96841619Y-44383452D01*
X96841619Y-44383452D02*
X97008285Y-44026309D01*
X97008285Y-44026309D02*
X97008285Y-44526309D01*
X97317810Y-44526309D02*
X97270191Y-44502500D01*
X97270191Y-44502500D02*
X97246381Y-44478690D01*
X97246381Y-44478690D02*
X97222572Y-44431071D01*
X97222572Y-44431071D02*
X97222572Y-44288214D01*
X97222572Y-44288214D02*
X97246381Y-44240595D01*
X97246381Y-44240595D02*
X97270191Y-44216785D01*
X97270191Y-44216785D02*
X97317810Y-44192976D01*
X97317810Y-44192976D02*
X97389238Y-44192976D01*
X97389238Y-44192976D02*
X97436857Y-44216785D01*
X97436857Y-44216785D02*
X97460667Y-44240595D01*
X97460667Y-44240595D02*
X97484476Y-44288214D01*
X97484476Y-44288214D02*
X97484476Y-44431071D01*
X97484476Y-44431071D02*
X97460667Y-44478690D01*
X97460667Y-44478690D02*
X97436857Y-44502500D01*
X97436857Y-44502500D02*
X97389238Y-44526309D01*
X97389238Y-44526309D02*
X97317810Y-44526309D01*
X97627334Y-44192976D02*
X97817810Y-44192976D01*
X97698762Y-44026309D02*
X97698762Y-44454880D01*
X97698762Y-44454880D02*
X97722572Y-44502500D01*
X97722572Y-44502500D02*
X97770191Y-44526309D01*
X97770191Y-44526309D02*
X97817810Y-44526309D01*
X98055905Y-44526309D02*
X98008286Y-44502500D01*
X98008286Y-44502500D02*
X97984476Y-44478690D01*
X97984476Y-44478690D02*
X97960667Y-44431071D01*
X97960667Y-44431071D02*
X97960667Y-44288214D01*
X97960667Y-44288214D02*
X97984476Y-44240595D01*
X97984476Y-44240595D02*
X98008286Y-44216785D01*
X98008286Y-44216785D02*
X98055905Y-44192976D01*
X98055905Y-44192976D02*
X98127333Y-44192976D01*
X98127333Y-44192976D02*
X98174952Y-44216785D01*
X98174952Y-44216785D02*
X98198762Y-44240595D01*
X98198762Y-44240595D02*
X98222571Y-44288214D01*
X98222571Y-44288214D02*
X98222571Y-44431071D01*
X98222571Y-44431071D02*
X98198762Y-44478690D01*
X98198762Y-44478690D02*
X98174952Y-44502500D01*
X98174952Y-44502500D02*
X98127333Y-44526309D01*
X98127333Y-44526309D02*
X98055905Y-44526309D01*
X98436857Y-44526309D02*
X98436857Y-44192976D01*
X98436857Y-44288214D02*
X98460667Y-44240595D01*
X98460667Y-44240595D02*
X98484476Y-44216785D01*
X98484476Y-44216785D02*
X98532095Y-44192976D01*
X98532095Y-44192976D02*
X98579714Y-44192976D01*
X98722572Y-44073928D02*
X98746381Y-44050119D01*
X98746381Y-44050119D02*
X98794000Y-44026309D01*
X98794000Y-44026309D02*
X98913048Y-44026309D01*
X98913048Y-44026309D02*
X98960667Y-44050119D01*
X98960667Y-44050119D02*
X98984476Y-44073928D01*
X98984476Y-44073928D02*
X99008286Y-44121547D01*
X99008286Y-44121547D02*
X99008286Y-44169166D01*
X99008286Y-44169166D02*
X98984476Y-44240595D01*
X98984476Y-44240595D02*
X98698762Y-44526309D01*
X98698762Y-44526309D02*
X99008286Y-44526309D01*
X99198762Y-44383452D02*
X99436857Y-44383452D01*
X99151143Y-44526309D02*
X99317809Y-44026309D01*
X99317809Y-44026309D02*
X99484476Y-44526309D01*
D13*
%TO.C,D2*%
X97036600Y-46730800D02*
X97036600Y-44810800D01*
X97036600Y-44810800D02*
X94351600Y-44810800D01*
X94351600Y-46730800D02*
X97036600Y-46730800D01*
%TO.C,U2*%
X77090000Y-44390000D02*
X77090000Y-46390000D01*
X74810000Y-44400000D02*
X74810000Y-46400000D01*
X77300000Y-44030000D02*
X77020000Y-44030000D01*
X77020000Y-43750000D01*
X77300000Y-44030000D01*
G36*
X77300000Y-44030000D02*
G01*
X77020000Y-44030000D01*
X77020000Y-43750000D01*
X77300000Y-44030000D01*
G37*
%TO.C,U1*%
X95251000Y-41411400D02*
X97251000Y-41411400D01*
X95261000Y-43691400D02*
X97261000Y-43691400D01*
X94891000Y-41481400D02*
X94611000Y-41481400D01*
X94891000Y-41201400D01*
X94891000Y-41481400D01*
G36*
X94891000Y-41481400D02*
G01*
X94611000Y-41481400D01*
X94891000Y-41201400D01*
X94891000Y-41481400D01*
G37*
%TO.C,C1*%
X79017800Y-45103148D02*
X79017800Y-45625652D01*
X77547800Y-45103148D02*
X77547800Y-45625652D01*
%TO.C,J2*%
X69228400Y-48566400D02*
X69228400Y-56386400D01*
X69228400Y-50166400D02*
X70148400Y-50166400D01*
X69228400Y-56386400D02*
X75348400Y-56386400D01*
X69988400Y-52526400D02*
X69988400Y-54126400D01*
X69988400Y-54126400D02*
X70988400Y-54126400D01*
X70148400Y-48566400D02*
X69228400Y-48566400D01*
X70148400Y-50166400D02*
X70148400Y-48566400D01*
X70428400Y-50166400D02*
X70148400Y-50166400D01*
X70428400Y-50166400D02*
X70428400Y-48951400D01*
X70488400Y-54126400D02*
X70488400Y-56386400D01*
X70988400Y-52526400D02*
X69988400Y-52526400D01*
X70988400Y-54126400D02*
X70988400Y-52526400D01*
X70988400Y-54126400D02*
X70988400Y-56386400D01*
X71788400Y-52026400D02*
X72788400Y-52026400D01*
X71788400Y-56386400D02*
X71788400Y-52026400D01*
X72788400Y-52026400D02*
X72788400Y-56386400D01*
X73588400Y-52526400D02*
X74588400Y-52526400D01*
X73588400Y-54126400D02*
X73588400Y-52526400D01*
X74428400Y-48566400D02*
X74428400Y-50166400D01*
X74428400Y-50166400D02*
X74148400Y-50166400D01*
X74588400Y-52526400D02*
X74588400Y-54126400D01*
X74588400Y-54126400D02*
X73588400Y-54126400D01*
X75348400Y-48566400D02*
X74428400Y-48566400D01*
X75348400Y-50166400D02*
X74428400Y-50166400D01*
X75348400Y-56386400D02*
X75348400Y-48566400D01*
D10*
%TO.C,SW1*%
X76464600Y-55364150D02*
X76464600Y-54348150D01*
X77957600Y-57916650D02*
X77957600Y-56316650D01*
X77957600Y-57916650D02*
X79257600Y-57916650D01*
X78115600Y-53586150D02*
X80020600Y-53586150D01*
X79257600Y-57916650D02*
X79257600Y-56253150D01*
X81163600Y-53586150D02*
X81544600Y-53586150D01*
X82687600Y-56253150D02*
X76972600Y-56253150D01*
X83195600Y-54348150D02*
X83195600Y-55364150D01*
D14*
%TO.C,U3*%
X87659800Y-47081600D02*
X91659800Y-47081600D01*
X87659800Y-52181600D02*
X91659800Y-52181600D01*
D15*
X85314800Y-47126600D02*
G75*
G03*
X85114800Y-47126600I-100000J0D01*
G01*
X85114800Y-47126600D02*
G75*
G03*
X85314800Y-47126600I100000J0D01*
G01*
D13*
%TO.C,Motor1A*%
X78932000Y-49809400D02*
G75*
G03*
X77532000Y-49809400I-700000J0D01*
G01*
X77532000Y-49809400D02*
G75*
G03*
X78932000Y-49809400I700000J0D01*
G01*
%TO.C,C2*%
X96319748Y-38406400D02*
X96842252Y-38406400D01*
X96319748Y-39876400D02*
X96842252Y-39876400D01*
%TO.C,R1*%
X83844800Y-48588664D02*
X83844800Y-48134536D01*
X85314800Y-48588664D02*
X85314800Y-48134536D01*
%TO.C,C4*%
X89872452Y-46556600D02*
X89349948Y-46556600D01*
X89872452Y-45086600D02*
X89349948Y-45086600D01*
%TO.C,C3*%
X95223000Y-52215148D02*
X95223000Y-52737652D01*
X93753000Y-52215148D02*
X93753000Y-52737652D01*
%TO.C,Ground*%
X71972400Y-47040800D02*
G75*
G03*
X70572400Y-47040800I-700000J0D01*
G01*
X70572400Y-47040800D02*
G75*
G03*
X71972400Y-47040800I700000J0D01*
G01*
%TO.C,R3*%
X95734200Y-51382664D02*
X95734200Y-50928536D01*
X97204200Y-51382664D02*
X97204200Y-50928536D01*
%TO.C,D1*%
X97036600Y-48712000D02*
X97036600Y-46792000D01*
X97036600Y-46792000D02*
X94351600Y-46792000D01*
X94351600Y-48712000D02*
X97036600Y-48712000D01*
%TO.C,VBat1*%
X88050600Y-56565800D02*
G75*
G03*
X86650600Y-56565800I-700000J0D01*
G01*
X86650600Y-56565800D02*
G75*
G03*
X88050600Y-56565800I700000J0D01*
G01*
%TO.C,R2*%
X97817000Y-51331864D02*
X97817000Y-50877736D01*
X99287000Y-51331864D02*
X99287000Y-50877736D01*
%TO.C,Motor2A*%
X99785400Y-45593000D02*
G75*
G03*
X98385400Y-45593000I-700000J0D01*
G01*
X98385400Y-45593000D02*
G75*
G03*
X99785400Y-45593000I700000J0D01*
G01*
%TD*%
%LPC*%
D16*
%TO.C,D2*%
X96289100Y-45770800D03*
X94414100Y-45770800D03*
%TD*%
D17*
%TO.C,U2*%
X76700000Y-44450000D03*
X76200000Y-44450000D03*
X75700000Y-44450000D03*
X75200000Y-44450000D03*
X75200000Y-46350000D03*
X75700000Y-46350000D03*
X76200000Y-46350000D03*
X76700000Y-46350000D03*
D18*
X75950000Y-45400000D03*
%TD*%
D19*
%TO.C,U1*%
X95311000Y-41801400D03*
X95311000Y-42301400D03*
X95311000Y-42801400D03*
X95311000Y-43301400D03*
X97211000Y-43301400D03*
X97211000Y-42801400D03*
X97211000Y-42301400D03*
X97211000Y-41801400D03*
D20*
X96261000Y-42551400D03*
%TD*%
D21*
%TO.C,C1*%
X78282800Y-44414400D03*
X78282800Y-46314400D03*
%TD*%
D22*
%TO.C,J2*%
X71288400Y-50026400D03*
D23*
X73288400Y-50026400D03*
%TD*%
D24*
%TO.C,SW1*%
X77607600Y-52824150D03*
X80607600Y-52824150D03*
X82107600Y-52824150D03*
D25*
X76482600Y-53791150D03*
X76482600Y-55941150D03*
X83232600Y-53791150D03*
X83232600Y-55916150D03*
%TD*%
D26*
%TO.C,U3*%
X87184800Y-47726600D03*
X87184800Y-48996600D03*
X87184800Y-50266600D03*
X87184800Y-51536600D03*
X92134800Y-51536600D03*
X92134800Y-50266600D03*
X92134800Y-48996600D03*
X92134800Y-47726600D03*
D27*
X89659800Y-49631600D03*
%TD*%
D28*
%TO.C,Motor1A*%
X78232000Y-49809400D03*
%TD*%
D29*
%TO.C,C2*%
X95631000Y-39141400D03*
X97531000Y-39141400D03*
%TD*%
D30*
%TO.C,R1*%
X84579800Y-49274100D03*
X84579800Y-47449100D03*
%TD*%
D31*
%TO.C,C4*%
X90561200Y-45821600D03*
X88661200Y-45821600D03*
%TD*%
D21*
%TO.C,C3*%
X94488000Y-51526400D03*
X94488000Y-53426400D03*
%TD*%
D28*
%TO.C,Ground*%
X71272400Y-47040800D03*
%TD*%
D30*
%TO.C,R3*%
X96469200Y-52068100D03*
X96469200Y-50243100D03*
%TD*%
D16*
%TO.C,D1*%
X96289100Y-47752000D03*
X94414100Y-47752000D03*
%TD*%
D28*
%TO.C,VBat1*%
X87350600Y-56565800D03*
%TD*%
D30*
%TO.C,R2*%
X98552000Y-52017300D03*
X98552000Y-50192300D03*
%TD*%
D28*
%TO.C,Motor2A*%
X99085400Y-45593000D03*
%TD*%
D32*
%TO.C,J1*%
X92710000Y-41910000D03*
D33*
X92710000Y-39370000D03*
X90170000Y-41910000D03*
X90170000Y-39370000D03*
X87630000Y-41910000D03*
X87630000Y-39370000D03*
X85090000Y-41910000D03*
X85090000Y-39370000D03*
X82550000Y-41910000D03*
X82550000Y-39370000D03*
X80010000Y-41910000D03*
X80010000Y-39370000D03*
X77470000Y-41910000D03*
X77470000Y-39370000D03*
X74930000Y-41910000D03*
X74930000Y-39370000D03*
%TD*%
%LPD*%
M02*
